<svg width="162" height="135" viewBox="0 0 162 135" fill="none" xmlns="http://www.w3.org/2000/svg">
<path d="M86.876 101.379C89.716 87.1466 80.0534 73.128 66.3107 69.3586C61.516 68.048 56.452 68.316 51.672 67.164C48.5707 66.4173 46.256 64.2426 43.548 62.7186C33.8867 57.2813 20.9187 60.3986 12.9253 67.3933C5.14935 74.196 -0.710628 85.0213 1.78271 95.5426C6.32404 114.681 27.0334 125.796 45.4307 127.357C64.532 128.976 82.7253 122.164 86.876 101.379Z" fill="#E12F40"/>
<path d="M86.876 101.379L87.5307 101.509C87.8747 99.7813 88.04 98.0586 88.04 96.3533C88.032 83.648 78.8906 72.1253 66.4893 68.716C61.552 67.376 56.4773 67.6453 51.8293 66.516C48.9453 65.836 46.672 63.728 43.8747 62.1386C40.364 60.1626 36.4426 59.2853 32.4906 59.2853C25.1999 59.2906 17.7959 62.2493 12.4853 66.892C5.83861 72.7133 0.543992 81.412 0.533325 90.52C0.533325 92.24 0.725294 93.972 1.13463 95.6973C3.45196 105.465 9.89333 113.164 18.0413 118.596C26.192 124.033 36.0653 127.231 45.3747 128.023C47.1707 128.175 48.9613 128.253 50.7333 128.253C59.36 128.251 67.5826 126.396 74.1573 122.109C80.7319 117.827 85.6227 111.088 87.5307 101.509L86.876 101.379L86.2226 101.248C84.3653 110.519 79.716 116.883 73.428 120.992C67.1386 125.096 59.172 126.92 50.7333 126.919C49 126.919 47.248 126.841 45.4866 126.693C36.4 125.924 26.7187 122.784 18.78 117.487C10.8387 112.189 4.65462 104.76 2.43196 95.3893C2.04796 93.7693 1.86796 92.14 1.86796 90.52C1.85729 81.948 6.93066 73.516 13.364 67.8946C18.42 63.4666 25.5626 60.6146 32.4906 60.62C36.2466 60.62 39.936 61.452 43.22 63.3C45.8386 64.7573 48.196 66.9987 51.5173 67.8133C56.424 68.9853 61.48 68.7186 66.136 70.0026C77.964 73.2386 86.716 84.3 86.708 96.3533C86.708 97.972 86.5506 99.608 86.2226 101.248L86.876 101.379Z" fill="#9F2A2D"/>
<path d="M41.5707 121.912C37.9174 121.912 34.264 121.489 30.7534 120.723C20.4854 118.481 12.228 112.165 7.05735 103.017C4.46268 98.4306 2.27069 93.3693 2.00403 88.0493C2.84803 80.3493 7.55072 72.9746 13.3641 67.8946C18.4161 63.4706 25.5507 60.62 32.4721 60.62C32.4787 60.62 32.484 60.62 32.4907 60.62C36.2467 60.62 39.936 61.452 43.22 63.3C43.328 63.36 43.4347 63.42 43.5414 63.4827C42.7187 64.2333 42.0961 65.228 41.8054 66.4693C41.1747 69.1786 41.6934 71.84 44.0894 73.4986C48.0494 76.248 53.3094 76.636 57.9427 77.324C62.48 77.9946 67.0587 79.2266 69.7174 83.3213C72.6387 87.82 72.8227 93.5546 71.9014 98.6986C70.316 107.552 65.896 115.228 57.348 118.875C52.404 120.983 46.988 121.912 41.5707 121.912ZM27.5361 64.276C26.9067 64.276 26.2653 64.3213 25.624 64.404C21.4213 64.948 17.4947 66.784 14.4067 69.5147C7.47736 74.5707 3.98803 82.2253 5.54003 90.832C7.0707 99.3333 13.2254 106.752 20.632 110.909C25.1067 113.424 30.5214 114.687 35.9774 114.687C47.3854 114.687 58.9734 109.161 62.5227 97.9853C64.2107 92.664 64.5627 84.3733 58.4094 81.912C52.3747 79.5 45.1134 81.1493 39.5107 77.4866C36.2094 75.3293 36.1347 71.444 34.6001 68.2093C33.2054 65.276 30.4867 64.276 27.5361 64.276Z" fill="#D02D34"/>
<path d="M1.78271 95.5427C-0.710628 85.0214 5.14935 74.196 12.9253 67.3934C18.108 62.8574 25.3813 59.952 32.4906 59.952C36.344 59.952 40.152 60.8067 43.548 62.7187C44.152 63.06 44.736 63.4307 45.3147 63.8134C44.9107 63.5467 44.5053 63.2854 44.0906 63.0374C43.9 63.1747 43.716 63.3227 43.5414 63.4827C43.4347 63.4201 43.328 63.36 43.22 63.3C39.936 61.452 36.2466 60.62 32.4906 60.62C32.484 60.62 32.4787 60.62 32.472 60.62C25.5507 60.62 18.416 63.4707 13.364 67.8947C7.55069 72.9747 2.84799 80.3494 2.00399 88.0494C1.98133 87.6147 1.97337 87.1787 1.97737 86.7401C1.98403 85.8081 2.03865 84.8867 2.12131 83.9587C1.08265 87.7187 0.862706 91.6507 1.78271 95.5427Z" fill="#922726"/>
<path d="M51.6721 67.1641C49.2614 66.5841 47.328 65.1414 45.3147 63.8134C47.3294 65.1414 49.2641 66.5827 51.6721 67.1641Z" fill="#862224"/>
<path d="M50.7454 126.919C50.7414 126.919 50.7374 126.919 50.7334 126.919C49 126.919 47.248 126.841 45.4867 126.693C36.4 125.924 26.7187 122.784 18.7801 117.487C10.8387 112.189 4.65467 104.76 2.43201 95.3894C2.04801 93.7694 1.86801 92.14 1.86801 90.52C1.86668 89.6947 1.91334 88.8694 2.00401 88.0494C2.27068 93.3694 4.46267 98.4307 7.05733 103.017C12.228 112.165 20.4854 118.481 30.7534 120.723C34.264 121.489 37.9173 121.912 41.5707 121.912C46.988 121.912 52.404 120.983 57.348 118.875C65.896 115.228 70.316 107.552 71.9013 98.6987C72.8227 93.5547 72.6387 87.82 69.7174 83.3214C67.0587 79.2267 62.48 77.9947 57.9427 77.324C53.3093 76.636 48.0494 76.2481 44.0894 73.4987C41.6934 71.8401 41.1747 69.1787 41.8054 66.4694C42.096 65.2281 42.7187 64.2334 43.5414 63.4827C46.0334 64.9387 48.332 67.0321 51.5174 67.8134C51.5907 67.8307 51.6653 67.8481 51.74 67.8654C50.5507 68.4187 49.5467 68.8454 48.7694 69.156C48.196 69.384 47.748 69.552 47.44 69.6627C47.2867 69.7174 47.1694 69.7587 47.0894 69.7854L46.9974 69.8147L46.9733 69.8227L46.964 69.8267C45.9 70.164 45.2173 71.1454 45.2187 72.2054C45.2187 72.4521 45.2547 72.7054 45.3334 72.952C45.6694 74.0187 46.6521 74.7001 47.7134 74.7001C47.9547 74.7001 48.212 74.6681 48.4694 74.5827V74.5814C48.892 74.4481 53.6507 72.9041 60.3161 69.0067C62.2974 69.2161 64.2494 69.4827 66.136 70.0027C72.552 71.7587 78.064 75.8174 81.7627 81.088C76.56 86.1947 73.264 93.1654 73.2573 100.793C73.2573 101.209 73.268 101.629 73.2867 102.052C73.572 108.121 75.164 113.273 77.7373 117.557C76.4107 118.844 74.9694 119.985 73.428 120.992C67.1414 125.093 59.1787 126.919 50.7454 126.919Z" fill="#AE242C"/>
<path d="M50.736 127.585C48.9827 127.585 47.2094 127.508 45.4307 127.357C27.0334 125.796 6.32405 114.681 1.78271 95.5427C0.862712 91.6507 1.08265 87.7187 2.12132 83.9587C2.03865 84.8867 1.98404 85.808 1.97737 86.74C1.97337 87.1787 1.98133 87.6147 2.004 88.0494C1.91333 88.8694 1.86667 89.6947 1.868 90.52C1.868 92.14 2.048 93.7693 2.432 95.3893C4.65466 104.76 10.8387 112.189 18.78 117.487C26.7187 122.784 36.4 125.924 45.4867 126.693C47.248 126.841 49 126.919 50.7334 126.919C50.7374 126.919 50.7413 126.919 50.7453 126.919C59.1787 126.919 67.1414 125.093 73.428 120.992C74.9694 119.985 76.4107 118.844 77.7373 117.557C77.8547 117.752 77.9747 117.947 78.096 118.139C71.1987 124.764 61.304 127.585 50.736 127.585ZM81.7627 81.088C78.064 75.8173 72.552 71.7587 66.136 70.0027C64.2494 69.4827 62.2974 69.216 60.316 69.0067C60.6294 68.824 60.9467 68.636 61.268 68.4427C62.9653 68.6414 64.6547 68.9067 66.3107 69.3587C72.8494 71.152 78.4654 75.2667 82.2494 80.62C82.0867 80.7733 81.9227 80.9307 81.7627 81.088ZM51.74 67.8653C51.6653 67.848 51.5907 67.8307 51.5173 67.8134C48.332 67.032 46.0334 64.9387 43.5414 63.4827C43.716 63.3227 43.9 63.1747 44.0907 63.0373C44.5053 63.2853 44.9107 63.5467 45.3147 63.8134C47.328 65.1414 49.2614 66.584 51.672 67.164C52.0227 67.2493 52.3734 67.3253 52.7254 67.396C52.384 67.5613 52.056 67.7173 51.74 67.8653Z" fill="#7B1F23"/>
<path d="M19.7467 78.2533C19.332 78.2533 18.9294 78.2213 18.5494 78.1533C15.732 77.6573 14.284 74.7946 15.4613 72.1573C16.4987 69.8386 19.104 68.2653 21.4694 67.5906C22.44 67.3146 23.8347 67.0413 25.2027 67.0413C27.1134 67.0413 28.9746 67.5747 29.5626 69.3773C30.2893 71.608 29.028 73.9427 27.3387 75.4147C25.5254 76.992 22.36 78.2533 19.7467 78.2533Z" fill="#F0736A"/>
<path d="M111.067 133.884C129.493 135.079 151.627 127.172 158.965 108.924C163.001 98.8946 158.821 87.3133 152.143 79.428C145.283 71.3226 132.923 66.3093 122.559 70.2467C119.651 71.3467 117.04 73.1533 113.863 73.4333C111.543 73.6333 109.208 73.5106 106.868 73.388C104.267 73.2493 101.657 73.1133 99.0587 73.4213C84.9094 75.1 73.2627 87.524 73.9547 102.019C74.964 123.193 91.9374 132.636 111.067 133.884Z" fill="#E12F40"/>
<path d="M111.067 133.884L111.021 134.549C112.241 134.628 113.477 134.667 114.721 134.667C123.624 134.665 133.065 132.643 141.179 128.451C149.289 124.26 156.084 117.879 159.584 109.173C160.713 106.369 161.216 103.448 161.216 100.527C161.212 92.6746 157.601 84.8453 152.651 78.996C147.297 72.6826 138.741 68.2186 130.213 68.2106C127.543 68.2106 124.876 68.652 122.323 69.6213C119.315 70.7773 116.757 72.5226 113.805 72.768C112.939 72.8426 112.067 72.872 111.185 72.872C108.359 72.8733 105.465 72.5706 102.531 72.5693C101.353 72.5693 100.169 72.6186 98.98 72.76C84.908 74.436 73.2693 86.4546 73.2573 100.793C73.2573 101.209 73.268 101.629 73.2867 102.052C73.792 112.812 78.404 120.691 85.312 125.955C92.2147 131.224 101.364 133.917 111.021 134.549L111.067 133.884L111.109 133.219C101.639 132.603 92.7374 129.952 86.12 124.895C79.5054 119.831 75.1254 112.4 74.62 101.987C74.6014 101.587 74.5907 101.189 74.5907 100.793C74.5787 87.2026 85.7107 75.6706 99.1373 74.0839C100.26 73.9506 101.391 73.9013 102.531 73.9013C105.373 73.9013 108.264 74.2053 111.185 74.2066C112.095 74.2066 113.007 74.176 113.919 74.0973C117.324 73.7853 119.989 71.9186 122.796 70.8693C125.187 69.9613 127.689 69.5426 130.213 69.5426C138.269 69.5346 146.539 73.8293 151.633 79.8586C156.419 85.5026 159.889 93.0933 159.884 100.527C159.884 103.293 159.408 106.04 158.347 108.676C154.988 117.027 148.461 123.183 140.565 127.267C132.673 131.348 123.423 133.335 114.721 133.335C113.504 133.335 112.299 133.295 111.109 133.219L111.067 133.884Z" fill="#9F2A2D"/>
<path d="M111.109 133.219C101.639 132.603 92.7373 129.952 86.12 124.895C79.5053 119.831 75.1253 112.4 74.62 101.987C74.6013 101.587 74.5906 101.189 74.5906 100.793C74.5786 87.2027 85.7107 75.6707 99.1373 74.084C100.26 73.9507 101.391 73.9014 102.531 73.9014C103.861 73.9014 105.203 73.9681 106.553 74.0387C105.449 74.9574 104.764 76.1694 105.148 77.628C105.821 80.1854 108.829 80.8721 111.695 80.8721C113.313 80.8721 114.887 80.652 115.968 80.4294C121.6 79.2667 127.237 76.2814 132.968 76.2814C134.888 76.2814 136.819 76.616 138.763 77.468C147.392 81.248 152.091 90.5254 152.388 99.6467C152.688 108.893 149.107 117.605 142.216 123.817C139.075 126.652 135.456 129.017 131.545 130.883C126.044 132.527 120.271 133.335 114.721 133.335C113.504 133.335 112.299 133.295 111.109 133.219ZM98.184 76.0161C96.5093 76.0161 94.888 76.6227 93.2587 77.164C83.0787 80.5374 76.3707 90.1747 76.036 100.769C75.968 102.949 76.212 105.128 76.736 107.237C77.672 115.167 82.4347 121.437 89.7293 124.712C94.4533 126.832 99.6894 127.656 104.916 127.656C108.079 127.656 111.239 127.355 114.277 126.855C123.464 125.345 132.291 121.328 138.245 113.973C144.191 106.633 145.651 94.7721 139.612 86.9774C136.276 82.6721 132.101 81.452 127.623 81.452C122.959 81.452 117.967 82.776 113.259 83.3187C112.429 83.4147 111.597 83.4707 110.768 83.4707C109.337 83.4707 107.915 83.3027 106.529 82.8747C104.447 82.2374 101.449 80.1454 101.675 77.752C101.768 76.7214 100.688 76.4694 99.8933 76.2481C99.3146 76.0854 98.7467 76.0161 98.184 76.0161Z" fill="#D02D34"/>
<path d="M114.72 134.001C113.491 134.001 112.269 133.961 111.067 133.884L111.109 133.219C112.299 133.295 113.504 133.335 114.721 133.335C120.271 133.335 126.044 132.527 131.545 130.883C130.195 131.527 128.809 132.111 127.396 132.633C136.141 130.737 144.549 126.847 150.824 120.837C141.525 129.744 127.544 134.001 114.72 134.001ZM111.067 133.884C91.9374 132.636 74.964 123.193 73.9547 102.019C73.2627 87.524 84.9094 75.1 99.0587 73.4213C100.216 73.284 101.377 73.2347 102.537 73.2347C103.981 73.2347 105.425 73.3107 106.868 73.388C107.056 73.3973 107.243 73.4067 107.429 73.416C107.119 73.6067 106.824 73.8134 106.553 74.0387C105.203 73.968 103.861 73.9013 102.531 73.9013C101.391 73.9013 100.26 73.9507 99.1374 74.084C85.7107 75.6707 74.5787 87.2027 74.5907 100.793C74.5907 101.189 74.6014 101.587 74.62 101.987C75.1254 112.4 79.5054 119.831 86.12 124.895C92.7374 129.952 101.639 132.603 111.109 133.219L111.067 133.884ZM151.176 120.496C151.199 120.473 151.223 120.451 151.245 120.428C151.221 120.451 151.199 120.473 151.176 120.496ZM151.307 120.367C151.329 120.344 151.352 120.323 151.375 120.3C151.352 120.321 151.329 120.345 151.307 120.367ZM151.445 120.228C151.465 120.209 151.484 120.191 151.503 120.172C151.483 120.191 151.465 120.209 151.445 120.228ZM151.624 120.048C151.637 120.035 151.651 120.02 151.664 120.007C151.652 120.02 151.637 120.035 151.624 120.048ZM151.763 119.907C151.773 119.896 151.785 119.884 151.796 119.872C151.785 119.883 151.773 119.896 151.763 119.907ZM151.911 119.755C151.916 119.748 151.921 119.743 151.928 119.736C151.921 119.741 151.916 119.748 151.911 119.755ZM158.797 109.335C158.801 109.324 158.807 109.315 158.811 109.304C158.807 109.315 158.801 109.325 158.797 109.335ZM158.875 109.148C158.88 109.136 158.885 109.123 158.891 109.109C158.885 109.123 158.88 109.135 158.875 109.148ZM108.429 73.4667C108.391 73.464 108.353 73.4627 108.315 73.4613C108.352 73.4627 108.391 73.464 108.429 73.4667Z" fill="#922726"/>
<path d="M150.824 120.837C150.829 120.832 150.835 120.828 150.839 120.824C150.833 120.828 150.829 120.832 150.824 120.837ZM151.14 120.531C151.152 120.52 151.164 120.508 151.176 120.496C151.164 120.508 151.152 120.519 151.14 120.531ZM151.245 120.428C151.267 120.407 151.285 120.388 151.307 120.367C151.287 120.387 151.265 120.408 151.245 120.428ZM151.375 120.3C151.397 120.276 151.423 120.252 151.445 120.228C151.421 120.252 151.399 120.276 151.375 120.3ZM151.664 120.007C151.697 119.973 151.729 119.941 151.763 119.907C151.729 119.94 151.697 119.973 151.664 120.007ZM151.796 119.872C151.835 119.833 151.872 119.793 151.911 119.755C151.872 119.793 151.833 119.833 151.796 119.872ZM152.208 119.44C154.944 116.525 157.199 113.163 158.797 109.335C157.199 113.161 154.944 116.527 152.208 119.44ZM158.891 109.109C158.916 109.048 158.941 108.985 158.965 108.924C158.941 108.987 158.916 109.048 158.891 109.109ZM111.192 73.5386C110.416 73.5386 109.637 73.5173 108.859 73.4853C109.633 73.5159 110.405 73.5386 111.179 73.5386C111.704 73.5386 112.231 73.528 112.756 73.5053C112.235 73.5293 111.713 73.5386 111.192 73.5386ZM108.547 73.472C108.507 73.4693 108.468 73.4679 108.429 73.4666C108.468 73.4679 108.508 73.4693 108.547 73.472ZM108.129 73.4519C107.896 73.4399 107.663 73.4293 107.429 73.416C107.663 73.428 107.896 73.4399 108.129 73.4519Z" fill="#862224"/>
<path d="M131.545 130.883C135.456 129.017 139.075 126.652 142.216 123.817C149.107 117.605 152.688 108.893 152.388 99.6467C152.091 90.5254 147.392 81.248 138.763 77.468C136.819 76.616 134.888 76.2814 132.968 76.2814C127.237 76.2814 121.6 79.2667 115.968 80.4293C114.887 80.652 113.313 80.872 111.695 80.872C108.829 80.872 105.821 80.1853 105.148 77.628C104.764 76.1693 105.449 74.9573 106.553 74.0387C108.087 74.1187 109.632 74.2054 111.185 74.2067C111.687 74.2067 112.189 74.1974 112.692 74.176C112.491 76.2054 112.296 77.3427 112.287 77.4C112.259 77.5493 112.245 77.6974 112.247 77.8454C112.245 79.0294 113.092 80.0747 114.3 80.292L114.352 80.3L114.679 80.3307L114.744 80.3347C115.929 80.3347 116.975 79.4893 117.197 78.2853C117.256 77.9573 117.573 76.12 117.839 73.0747C119.56 72.376 121.153 71.4827 122.796 70.8693C125.187 69.9613 127.689 69.5427 130.213 69.5427C130.221 69.5427 130.229 69.5427 130.237 69.5427C138.285 69.5427 146.543 73.836 151.633 79.8587C156.419 85.5027 159.889 93.0933 159.884 100.527C159.884 103.293 159.408 106.04 158.347 108.676C154.988 117.027 148.461 123.183 140.565 127.267C137.707 128.745 134.669 129.948 131.545 130.883Z" fill="#AE242C"/>
<path d="M127.396 132.633C128.809 132.111 130.195 131.527 131.545 130.883C134.669 129.948 137.707 128.745 140.565 127.267C148.461 123.183 154.988 117.027 158.347 108.676C159.408 106.04 159.884 103.293 159.884 100.527C159.889 93.0934 156.419 85.5028 151.633 79.8588C146.543 73.8361 138.285 69.5428 130.237 69.5428C130.229 69.5428 130.221 69.5428 130.213 69.5428C127.689 69.5428 125.187 69.9614 122.796 70.8694C121.153 71.4828 119.56 72.3761 117.839 73.0748C117.86 72.8334 117.881 72.5828 117.901 72.3254C119.459 71.6654 120.964 70.8494 122.559 70.2468C125.032 69.3068 127.616 68.8774 130.215 68.8774C138.507 68.8774 146.919 73.2574 152.143 79.4281C157.02 85.1881 160.567 92.9201 160.551 100.579C160.544 103.405 160.053 106.221 158.965 108.924C158.941 108.985 158.916 109.048 158.891 109.109C158.885 109.123 158.88 109.136 158.875 109.148C158.853 109.2 158.832 109.252 158.811 109.304C158.807 109.315 158.801 109.324 158.797 109.335C157.199 113.163 154.944 116.525 152.208 119.44C152.208 119.44 152.207 119.441 152.207 119.443C152.113 119.54 152.021 119.639 151.928 119.736C151.921 119.743 151.916 119.748 151.911 119.755C151.872 119.793 151.835 119.833 151.796 119.872C151.785 119.884 151.773 119.896 151.763 119.907C151.729 119.941 151.697 119.973 151.664 120.007C151.651 120.02 151.637 120.035 151.624 120.048C151.584 120.089 151.543 120.131 151.503 120.172C151.484 120.191 151.465 120.209 151.445 120.228C151.423 120.252 151.397 120.276 151.375 120.3C151.352 120.323 151.329 120.344 151.307 120.367C151.285 120.388 151.267 120.407 151.245 120.428C151.223 120.451 151.199 120.473 151.176 120.496C151.164 120.508 151.152 120.52 151.14 120.531C151.081 120.589 151.021 120.648 150.961 120.705C150.955 120.712 150.948 120.719 150.941 120.725C150.908 120.757 150.873 120.791 150.839 120.824C150.835 120.828 150.829 120.832 150.824 120.837C144.549 126.847 136.141 130.737 127.396 132.633ZM111.185 74.2068C109.632 74.2054 108.087 74.1188 106.553 74.0388C106.824 73.8134 107.119 73.6068 107.429 73.4161C107.663 73.4294 107.896 73.4401 108.129 73.4521C108.133 73.4521 108.139 73.4521 108.143 73.4521C108.2 73.4547 108.257 73.4588 108.315 73.4614C108.353 73.4628 108.391 73.4641 108.429 73.4668C108.468 73.4681 108.507 73.4694 108.547 73.4721C108.573 73.4721 108.6 73.4734 108.627 73.4748C108.687 73.4774 108.747 73.4801 108.807 73.4828C108.824 73.4828 108.841 73.4841 108.859 73.4854C109.637 73.5174 110.416 73.5388 111.192 73.5388C111.713 73.5388 112.235 73.5294 112.756 73.5054C112.735 73.7388 112.713 73.9614 112.692 74.1761C112.189 74.1974 111.687 74.2068 111.185 74.2068Z" fill="#7B1F23"/>
<path d="M87.7213 93.4081C85.0226 93.4081 83.1014 91.0467 83.6 88.3054C84.052 85.8081 86.2094 83.6587 88.3494 82.4401C89.628 81.7134 91.7786 80.7788 93.6546 80.7788C94.864 80.7788 95.96 81.1667 96.6334 82.2521C97.8707 84.2441 97.204 86.8081 95.9107 88.6441C94.304 90.9214 90.832 93.2174 88.0267 93.3987C87.924 93.4054 87.8213 93.4081 87.7213 93.4081Z" fill="#F0736A"/>
<path d="M81.2467 100.292C81.1121 100.292 80.9761 100.279 80.8414 100.251C79.8481 100.04 78.7907 99.6 78.8347 98.388C78.8774 97.248 79.3801 96.112 80.2307 95.4947C80.8641 94.8693 81.7401 94.3707 82.6001 94.3707C82.7014 94.3707 82.8027 94.3773 82.9027 94.392C85.1441 94.712 85.1587 97.16 83.9774 98.6547C83.3534 99.4413 82.3267 100.293 81.2467 100.292Z" fill="#F0736A"/>
<path d="M102.748 6.09996L102.717 6.05197L102.604 5.89195L102.499 5.75998L102.372 5.63459L102.239 5.51994L102.092 5.42398L101.933 5.33726L101.776 5.27326L101.595 5.2146L101.537 5.19598L101.427 5.17997L101.243 5.16128H101.053L100.895 5.17463L100.693 5.21597L100.553 5.25464L100.347 5.3426L100.267 5.3786L100.223 5.40927L100.044 5.53062L99.9307 5.62261L99.7906 5.76395L99.6867 5.88531L99.5853 6.0426L99.504 6.19065L99.4373 6.35061L99.3773 6.53329L99.36 6.58928C93.6066 32.8786 79.7453 48.8306 69.1307 57.5866C57.592 67.0999 47.268 70.4306 47.164 70.4613C46.2013 70.7666 45.668 71.7919 45.9693 72.7519C46.2133 73.5346 46.936 74.0333 47.7134 74.0333C47.8947 74.0333 48.0787 74.0093 48.2613 73.9493C48.7067 73.8106 59.252 70.4306 71.3227 60.516C81.7733 51.9333 95.2227 36.7106 101.772 12.1453C118.355 45.7293 113.012 77.128 112.943 77.5133C112.76 78.5053 113.419 79.4573 114.417 79.636L114.744 79.6666C115.611 79.6666 116.381 79.048 116.541 78.1653C116.8 76.724 122.693 42.4613 102.748 6.09996Z" fill="#D4DB38"/>
<path d="M102.748 6.10005L103.307 5.73873L103.276 5.69074L103.264 5.67336L103.152 5.51203L103.124 5.47336L103.019 5.3427L102.968 5.2854L102.841 5.16138L102.805 5.12805L102.672 5.0134L102.601 4.96008L102.455 4.86405L102.419 4.84406L102.261 4.75474L102.179 4.71607L102.023 4.65474L101.985 4.64139L101.803 4.58137L101.797 4.58007L101.739 4.56138L101.632 4.53606L101.523 4.52004L101.497 4.51607L101.312 4.49738L101.243 4.49471H101.053L100.993 4.49608L100.835 4.51203L100.765 4.52141L100.561 4.56138L100.509 4.57473L100.369 4.61607L100.292 4.6427L100.087 4.72942L100.08 4.73208L100 4.76672L99.8933 4.82538L99.848 4.85604L99.8426 4.86008L99.6653 4.98274L99.6266 5.01203L99.512 5.10402L99.46 5.1507L99.3173 5.29341L99.2813 5.33208L99.1773 5.45337L99.1253 5.52675L99.024 5.68404L99.0053 5.71607L98.9213 5.86405L98.8867 5.94003L98.8213 6.10005L98.804 6.1427L98.744 6.32538L98.7253 6.38274L98.708 6.44673C92.9907 32.5681 79.236 48.3841 68.7053 57.0734C62.9827 61.7907 57.5586 64.9774 53.56 66.9827C51.5613 67.9867 49.916 68.6974 48.7693 69.156C48.196 69.384 47.748 69.552 47.44 69.6627C47.2867 69.7174 47.1693 69.7587 47.0893 69.7854L46.9973 69.8147L46.9733 69.8227L46.964 69.8267C45.9 70.164 45.2173 71.1454 45.2186 72.2054C45.2186 72.4521 45.2547 72.7054 45.3333 72.952C45.6693 74.0187 46.652 74.7 47.7134 74.7C47.9547 74.7 48.212 74.6681 48.4693 74.5827L48.2613 73.9494L48.4573 74.5854C48.964 74.4267 59.5827 71.0187 71.744 61.032C82.276 52.384 95.8253 37.0401 102.415 12.3187L101.772 12.1454L101.175 12.4414C111.16 32.6627 113.149 52.104 113.149 64.364C113.149 72.3427 112.307 77.2787 112.287 77.4L112.943 77.5134L112.288 77.3934C112.259 77.544 112.245 77.6947 112.247 77.8454C112.245 79.0294 113.092 80.0747 114.3 80.292L114.352 80.3L114.679 80.3307L114.744 80.3347C115.929 80.3347 116.975 79.4894 117.197 78.2854C117.301 77.7054 118.217 72.3881 118.217 64.0107C118.216 50.3267 115.773 28.464 103.333 5.78137L103.307 5.73873L102.748 6.10005L102.164 6.42141C114.465 28.8481 116.883 50.4814 116.883 64.0107C116.883 72.2907 115.979 77.5307 115.887 78.0481C115.785 78.6054 115.291 79.0014 114.744 79V79.6667L114.807 79.0027L114.48 78.9721L114.417 79.6361L114.535 78.9801C113.971 78.8801 113.58 78.3907 113.58 77.8454L113.599 77.6347L113.6 77.628C113.632 77.444 114.483 72.4374 114.483 64.364C114.483 51.9627 112.473 32.3187 102.369 11.8507C102.245 11.6014 101.981 11.456 101.705 11.484C101.428 11.5107 101.199 11.7054 101.127 11.9747C94.6186 36.3827 81.2693 51.4814 70.9 60.0014C58.9213 69.8414 48.4466 73.1934 48.0626 73.3121L48.0533 73.3161L47.7134 73.3667C47.2187 73.3654 46.76 73.0494 46.6067 72.5534L46.552 72.2054C46.552 71.7134 46.8693 71.2534 47.3653 71.0974L47.164 70.4614L47.3573 71.1C47.42 71.0814 48.08 70.8667 49.2667 70.3934C52.8013 68.9787 60.8307 65.2934 69.5533 58.1001C80.256 49.2787 94.224 33.188 100.011 6.73072L99.36 6.58938L99.9933 6.79608L100.012 6.74003L100.065 6.58007L100.104 6.48137L100.159 6.38274L100.224 6.28137L100.28 6.21607L100.376 6.11874L100.444 6.06405L100.601 5.95741L100.596 5.96008L100.64 5.93072L100.267 5.3787L100.533 5.98938L100.613 5.95474L100.608 5.95741L100.775 5.8854L100.852 5.86405L100.989 5.83606L101.084 5.82675H101.207L101.345 5.8427L101.388 5.84804L101.392 5.8494L101.385 5.84804L101.549 5.90272L101.647 5.94003L101.748 5.99608L101.84 6.05604L101.921 6.12538L102.004 6.20539L102.071 6.28938L102.163 6.42408L102.188 6.46405L102.748 6.10005Z" fill="#13A655"/>
<path d="M47.7134 73.3667C47.2187 73.3654 46.76 73.0494 46.6067 72.5534L46.552 72.2054C46.552 71.7134 46.8693 71.2534 47.3653 71.0974C47.464 71.0667 48.12 70.852 49.2667 70.3934C49.48 70.308 49.7093 70.2134 49.9547 70.112C50.684 70.6747 51.7 70.908 52.8853 70.908C53.2507 70.908 53.632 70.8854 54.0267 70.844C50.4933 72.5374 48.2373 73.2587 48.0627 73.312L48.0534 73.316L47.7134 73.3667Z" fill="#B0C726"/>
<path d="M47.7134 74.0333C46.936 74.0333 46.2133 73.5346 45.9693 72.752C45.668 71.792 46.2013 70.7667 47.164 70.4613C47.1933 70.4547 48.0187 70.1853 49.4453 69.6013C49.5947 69.7947 49.7653 69.964 49.9546 70.112C49.7093 70.2133 49.48 70.308 49.2667 70.3933C48.12 70.852 47.464 71.0667 47.3653 71.0973C46.8693 71.2533 46.552 71.7133 46.552 72.2053L46.6066 72.5533C46.76 73.0493 47.2187 73.3653 47.7134 73.3667L48.0533 73.316L48.0626 73.312C48.2373 73.2587 50.4933 72.5373 54.0266 70.844C54.7653 70.7667 55.5493 70.6213 56.3546 70.4267C51.6386 72.8667 48.4987 73.876 48.2613 73.9493C48.0787 74.0093 47.8947 74.0333 47.7134 74.0333Z" fill="#10A24A"/>
<path d="M114.768 79L114.517 78.976C113.963 78.8693 113.58 78.3853 113.58 77.8453L113.599 77.6347L113.6 77.628C113.616 77.5373 113.831 76.272 114.045 74.044C114.26 74.1093 114.492 74.1453 114.743 74.1453C114.955 74.1453 115.179 74.12 115.417 74.0653C115.785 73.9787 116.128 73.832 116.448 73.6387C116.203 76.2293 115.935 77.7787 115.887 78.048C115.788 78.5973 115.305 78.9893 114.768 79Z" fill="#B0C726"/>
<path d="M114.744 79.6666L114.417 79.636C113.419 79.4573 112.76 78.5053 112.943 77.5133C112.957 77.436 113.185 76.096 113.404 73.736C113.6 73.8693 113.813 73.9733 114.045 74.044C113.831 76.272 113.616 77.5373 113.6 77.628L113.599 77.6346L113.58 77.8453C113.58 78.3853 113.963 78.8693 114.517 78.976L114.768 79C115.305 78.9893 115.788 78.5973 115.887 78.048C115.935 77.7786 116.203 76.2293 116.448 73.6386C116.703 73.4853 116.941 73.304 117.167 73.1013C116.905 76.068 116.596 77.8573 116.541 78.1653C116.381 79.048 115.611 79.6666 114.744 79.6666Z" fill="#10A24A"/>
<path d="M104.816 8.28266C104.519 6.41066 104.736 4.44265 104.377 2.60265C104.164 1.50665 103.816 0.496001 102.469 0.690668C100.729 0.941335 99.1387 1.856 97.7347 2.88533C96.9507 3.46 96.0734 4.21328 96.3361 5.33728C96.6241 6.56795 97.3667 11.468 98.8547 11.596C100.043 11.7 101.729 11.176 102.763 10.572C103.469 10.16 104.98 9.31599 104.816 8.28266Z" fill="#A1542D"/>
<path d="M104.816 8.2828L105.475 8.17877C105.188 6.42677 105.408 4.45343 105.031 2.4761C104.925 1.94677 104.797 1.39081 104.471 0.890813C104.309 0.64148 104.084 0.408102 103.791 0.245435C103.5 0.0814353 103.153 -0.00254386 102.787 0.000122802C102.653 0.000122802 102.516 0.00945353 102.373 0.0307869C100.463 0.310787 98.7854 1.28944 97.34 2.3481C96.984 2.61077 96.5787 2.92409 96.2374 3.33743C95.9014 3.74543 95.62 4.28946 95.6213 4.93613C95.6213 5.11746 95.644 5.30145 95.688 5.48945C95.8213 6.05878 96.0841 7.62679 96.5054 9.06679C96.7187 9.79346 96.968 10.4921 97.296 11.0668C97.46 11.3561 97.6454 11.6161 97.8827 11.8335C98.1161 12.0481 98.4267 12.2295 98.7974 12.2615C98.9201 12.2721 99.0427 12.2775 99.1694 12.2775C100.505 12.2668 102.036 11.7601 103.099 11.1481C103.431 10.9534 103.981 10.6455 104.476 10.2295C104.725 10.0202 104.964 9.78148 105.157 9.49081C105.347 9.20281 105.495 8.84543 105.495 8.4401L105.475 8.18144V8.17877L104.816 8.2828L104.157 8.38547L104.16 8.4401C104.16 8.51476 104.135 8.61615 104.043 8.75748C103.775 9.19215 102.932 9.71479 102.427 9.99745C101.599 10.4908 100.145 10.9534 99.1694 10.9428L98.912 10.9322L98.7801 10.8495C98.6201 10.7108 98.3867 10.3401 98.188 9.85748C97.8827 9.13215 97.6253 8.16414 97.4267 7.28814C97.228 6.40548 97.088 5.62414 96.9853 5.18547L96.956 4.93613C96.956 4.67746 97.0574 4.4468 97.2707 4.1828C97.4814 3.9228 97.7987 3.66411 98.1307 3.42278C99.4921 2.42145 100.997 1.57477 102.565 1.35077L102.787 1.33215C102.964 1.33349 103.063 1.3681 103.141 1.40943C103.255 1.4721 103.36 1.59081 103.465 1.82148C103.571 2.05081 103.653 2.37345 103.721 2.73079C104.061 4.43345 103.849 6.39481 104.157 8.38814V8.38547L104.816 8.2828Z" fill="#6B241F"/>
<path d="M98.5467 8.5321C98.5001 8.5321 98.4533 8.53077 98.4093 8.52677C97.7613 8.46943 97.436 6.32676 97.308 5.78809C97.1934 5.29609 97.5787 4.96676 97.92 4.71609C98.5347 4.26542 99.232 3.86406 99.9933 3.75339C100.043 3.74673 100.088 3.74408 100.131 3.74408C100.605 3.74408 100.74 4.1521 100.828 4.59343C100.981 5.39743 100.889 6.25738 101.019 7.07605C101.092 7.52805 100.431 7.89742 100.121 8.07742C99.7067 8.32008 99.0547 8.5321 98.5467 8.5321Z" fill="#D67B3B"/>
<path d="M124.024 75.5066C120.983 76.8973 118.181 77.776 114.789 77.8213C111.995 77.8573 107.685 77.7906 105.273 76.2813C105.092 76.1666 104.721 76.5226 104.813 76.708C106.501 80.152 110.873 80.5 114.285 80.588C118.147 80.6933 121.699 79.264 124.373 76.5293C124.784 76.1066 124.891 75.1093 124.024 75.5066Z" fill="#741A34"/>
<path d="M57.0787 74.9974C53.9747 75.132 50.7093 75.1054 48.0267 73.324C45.308 71.5214 43.948 68.448 42.5734 65.636C42.404 65.2894 41.9534 65.8827 41.9454 66.076C41.7974 70.04 42.8987 73.54 46.048 76.0867C48.888 78.3813 53.8334 77.748 56.8494 76.2187C57.1934 76.0493 57.8654 74.9614 57.0787 74.9974Z" fill="#741A34"/>
</svg>
