<svg width="145" height="144" viewBox="0 0 145 144" fill="none" xmlns="http://www.w3.org/2000/svg">
<path d="M71.0145 96.5528C83.5102 96.5528 93.6403 86.4227 93.6403 73.9273C93.6403 61.431 83.5102 51.3017 71.0145 51.3017C58.5183 51.3017 48.389 61.431 48.389 73.9273C48.389 86.4227 58.5183 96.5528 71.0145 96.5528ZM71.0145 3.90555C109.686 3.90555 141.036 35.2558 141.036 73.9273C141.036 112.6 109.686 143.949 71.0145 143.949C32.3423 143.949 0.992803 112.6 0.992803 73.9273C0.992803 35.2558 32.3423 3.90555 71.0145 3.90555Z" fill="#E58146"/>
<path d="M73.384 94.1833C85.8793 94.1833 96.0088 84.0532 96.0088 71.5578C96.0088 59.0615 85.8793 48.9322 73.384 48.9322C60.8877 48.9322 50.7576 59.0615 50.7576 71.5578C50.7576 84.0532 60.8877 94.1833 73.384 94.1833ZM73.384 1.53687C112.056 1.53687 143.405 32.8863 143.405 71.5578C143.405 110.229 112.056 141.58 73.384 141.58C34.7109 141.58 3.36227 110.229 3.36227 71.5578C3.36227 32.8863 34.7109 1.53687 73.384 1.53687Z" fill="#F8A24D"/>
<path d="M43.186 75.8463C43.3117 76.2757 43.4922 76.7194 43.741 77.056C45.3303 79.2045 46.9651 80.8831 48.0153 83.4391C48.9955 85.8246 48.6319 89.7741 51.4375 91.02C51.737 91.1524 51.9985 91.079 52.2988 91.1617C52.5544 91.2317 52.788 91.4747 53.074 91.5388C54.3132 91.8188 55.5431 92.1478 56.7746 92.465C57.3094 92.6016 57.8274 92.5342 58.4044 92.605C59.0539 92.686 59.6933 92.8775 60.3293 93.0901C61.7043 93.5506 63.1004 93.9488 64.5175 94.2347C65.8579 94.5047 66.5741 95.0808 67.7458 95.6215C68.9217 96.1622 70.2907 96.1606 71.4051 96.8565C72.4131 97.4866 72.694 99.0556 73.6295 99.6697C75.2154 100.709 77.1589 98.5984 78.2378 97.6747C80.7947 95.484 84.6724 96.6608 87.1856 94.5283C88.1006 93.7522 88.3899 92.4371 89.165 91.5329C89.6424 90.9744 90.2286 90.5307 90.8424 90.0879C91.4609 89.6433 91.948 89.7091 92.6452 89.4662C93.297 89.2384 93.8888 88.928 94.3883 88.4548C94.8727 87.9951 95.0289 87.5243 95.2407 86.8411C95.7841 85.0933 96.3142 83.3184 97.1954 81.7056C98.2192 79.8295 99.5356 78.8536 101.38 77.8675C102.299 77.3765 103.573 76.1239 102.841 74.9792C102.553 74.5296 101.698 74.1508 101.201 73.9829C100.368 73.702 98.9184 73.3764 98.5688 72.4367C98.4014 71.9846 98.44 71.1756 98.38 70.6923C98.3128 70.1575 98.3905 69.5712 98.4989 69.071C98.7629 67.858 98.9085 66.8415 97.9836 65.9203C97.1921 65.1308 96.5733 64.4635 96.4632 63.2885C96.3621 62.2113 97.1486 61.2454 97.8089 60.4896C98.4051 59.8055 98.7546 59.0311 98.831 58.1049C98.9292 56.9113 97.8224 57.0699 97.0402 56.7789C96.6731 56.6439 96.4302 56.352 96.0883 56.1757C95.0167 55.6215 93.9692 55.8898 93.0383 55.0099C92.3466 54.3562 92.0508 53.4545 91.7901 52.5561C91.0965 50.1629 90.6661 46.831 88.0634 45.7166C86.5621 45.0739 85.0256 45.5327 83.5416 45.9908C81.3631 46.6639 79.2978 47.3362 77.6211 44.5264C75.9231 41.6811 76.2833 38.3381 72.0672 37.9282C69.1815 37.6473 67.5695 41.4356 65.4716 42.8106C64.3134 43.5698 62.7781 43.5732 61.6782 44.4623C60.66 45.2864 60.1842 46.4758 60.1809 47.7394C60.18 48.3957 60.2264 48.7601 60.5149 49.3354C60.8439 49.9892 60.8253 50.2743 60.9148 51.0048C61.0641 52.2398 61.1636 53.0183 60.218 53.9918C59.4116 54.8218 58.5225 55.5675 57.3676 55.8839C56.1066 56.2297 54.8488 56.1892 53.5169 56.1799C52.3064 56.1715 50.8378 56.9931 50.0752 57.9202C49.3363 58.816 48.858 60.0501 48.5982 61.1822C48.3038 62.4669 47.731 63.8115 47.1861 65.0692C46.1359 67.4995 43.4121 68.9377 42.9962 71.729C42.8309 72.8315 42.8536 74.5287 43.116 75.5831C43.1371 75.6692 43.1598 75.7569 43.186 75.8463ZM5.87267 40.5255C6.4252 38.9953 7.13967 37.5275 8.00852 36.1635C11.6459 30.446 17.4765 28.1743 23.609 26.014C30.6653 23.5289 34.3946 21.5002 39.1117 15.5582C39.9561 14.4971 40.6571 14.1462 41.849 13.6274C42.7693 13.2267 43.6348 12.702 44.523 12.3376C45.8777 11.7842 47.4569 11.7294 48.8293 11.279C51.6737 10.3468 52.6598 7.37081 54.7839 5.42982C56.1125 4.21512 57.3887 3.2771 59.0235 2.69506C60.4888 2.17206 61.6394 1.22813 63.2429 1.07291C64.5032 0.948913 66.1548 0.910954 67.2793 1.41455C68.4316 1.93249 69.3477 2.99197 70.2764 3.76888C71.2996 4.62254 72.6063 5.44922 73.7645 6.10128C74.9505 6.77021 76.0505 7.66015 77.2652 8.12072C80.3565 9.29241 83.0499 7.94442 86.053 7.30333C86.4972 7.20801 86.9539 7.22825 87.4103 7.2485C87.7161 7.26199 88.0219 7.27634 88.325 7.25441C91.5772 7.03171 94.8546 6.07513 97.9902 7.51421C99.2601 8.09541 100.422 8.66143 101.756 9.10851C103.585 9.72177 104.546 10.8091 105.909 12.0888C107.526 13.6088 108.586 13.9893 109.797 15.9868C110.54 17.2108 111.115 18.8354 112.537 19.4124C114.409 20.1699 115.985 18.5258 117.71 18.3875C117.951 18.3672 118.196 18.3774 118.445 18.4263C123.048 19.3584 124.313 25.7415 125.211 29.5299C126.128 33.3958 126.759 37.1091 128.791 40.5811C131.271 44.8199 136.969 49.5075 137.363 54.6633C137.559 57.2344 137.003 60.6423 138.19 63.307C139.393 66.0064 142.208 67.5475 143.472 70.2157C144.019 71.3696 144.066 73.05 144.064 74.3086C144.062 76.0606 143.724 76.8999 142.462 78.0556C136.828 83.2096 130.852 85.3623 129.301 93.5582C128.973 95.2951 129.006 96.9931 128.787 98.7401C128.569 100.468 127.88 101.859 126.955 103.359C125.529 105.675 123.953 108.049 123.274 110.718C122.659 113.141 122.92 115.313 121.463 117.513C120.123 119.533 117.439 119.739 115.345 120.531C112.492 121.61 109.281 121.262 106.224 121.262C104.264 121.262 102.211 121.09 100.271 121.323C98.522 121.533 96.629 122.267 94.9583 122.798C90.9041 124.087 87.5605 126.728 83.6892 128.392C78.99 130.411 74.7177 129.34 69.8125 129.31C68.084 129.299 66.6357 129.497 65.3206 130.698C64.2535 131.672 62.7022 132.188 61.8435 133.366C61.0472 134.457 60.455 135.685 59.8848 136.894C59.1231 138.513 59.3264 140.801 57.8274 142.015C53.5337 145.492 52.1225 138.262 51.9749 135.606C51.8728 133.763 51.3692 132.38 50.2161 130.947C48.6825 129.04 47.2046 127.247 45.0738 125.977C42.841 124.646 40.361 123.803 38.0918 122.536C34.7025 120.645 32.5523 117.312 30.5733 114.013C28.3017 110.222 27.254 105.528 23.5972 102.96C20.5242 100.802 16.4372 99.5415 14.2162 96.3259C11.5717 92.5021 9.03259 87.4569 10.5206 82.6487C11.7227 78.7633 12.7577 74.6316 12.3005 70.5354C11.9487 67.3738 10.1503 64.7166 8.56526 62.0527C6.79129 59.075 5.78664 56.2331 5.02829 52.8598C4.11473 48.7913 4.45636 44.4522 5.87267 40.5255Z" fill="#F1508C"/>
<path d="M41.4694 74.5414C41.763 77.0416 43.4306 78.7835 44.4159 81.0434C45.3489 83.186 45.2594 85.7436 45.8406 88.0069C46.5492 90.7711 48.2422 92.6666 50.8462 93.721C52.1571 94.2516 53.6772 94.1571 55.1795 94.0627C56.099 94.0053 57.0117 93.9471 57.8679 94.0323C59.0809 94.1538 60.2028 94.4203 61.248 95.0791C62.3117 95.7506 63.3231 95.9151 64.3623 96.6405C65.2978 97.2934 66.1667 97.9725 67.1722 98.5393C69.3848 99.7853 72.775 101.798 75.4068 101.71C77.8901 101.628 79.8527 98.6752 82.4386 98.1395C83.9314 97.8308 85.6648 97.9193 87.0307 97.1753C88.6281 96.3065 89.017 94.6582 90.3749 93.5852C91.3011 92.8555 92.3665 92.4692 93.4324 91.9656C96.256 90.6269 97.3133 88.0921 97.3035 85.1624C97.2916 81.7275 100.709 80.2522 103.378 78.9624C105.049 78.1551 105.688 76.5018 105.262 74.7438C105.087 74.0217 104.849 73.0618 104.353 72.527C103.266 71.3528 101.457 71.934 100.72 70.6375C100.133 69.6066 99.9827 68.6872 99.9976 67.5189C100.014 66.2097 99.2759 65.8436 98.892 64.6626C97.6179 60.7309 101.998 59.3458 101.221 56.4516C100.547 53.9387 98.402 55.1517 96.6316 54.5376C94.6849 53.8602 93.7646 52.0508 93.1715 50.0963C92.3466 47.3742 91.4089 43.6491 88.0264 43.1489C86.5984 42.938 85.251 43.4483 83.9758 43.9587C81.7144 44.8638 79.6787 45.7689 77.8183 42.6504C76.1205 39.8051 76.4807 36.4621 72.2646 36.053C69.3789 35.7721 67.7669 39.5596 65.669 40.9346C64.7166 41.5597 63.5348 41.5858 62.5479 42.2235C61.5677 42.8579 60.1935 43.5833 59.4942 44.4404C58.2112 46.0051 59.0261 48.7568 59.8764 50.4126C61.0506 52.7012 59.9911 54.2794 57.3466 53.9952C55.3204 53.7784 53.4486 52.686 51.3658 53.5338C47.2063 55.2284 48.1477 60.0552 45.9824 63.1577C43.574 66.607 40.9422 70.0326 41.4694 74.5414ZM8.16207 41.7849C8.69772 40.3011 9.39112 38.8789 10.233 37.5562C13.759 32.0141 19.4116 29.8108 25.356 27.7171C32.1963 25.3079 35.8118 23.3416 40.3854 17.5811C41.2037 16.552 41.8827 16.2128 43.0384 15.7101C43.9309 15.3212 44.7693 14.8117 45.6306 14.4591C46.944 13.9218 48.4759 13.8695 49.8045 13.4325C52.5628 12.5291 53.5194 9.64417 55.5777 7.76306C56.8658 6.58463 58.1041 5.67529 59.6874 5.11096C61.1079 4.60483 62.2239 3.6896 63.7778 3.53861C65 3.41967 66.6011 3.3817 67.691 3.87011C68.8087 4.37202 69.6952 5.39945 70.597 6.15274C71.5881 6.97941 72.8551 7.78162 73.9779 8.41343C75.1276 9.06212 76.1947 9.92423 77.3723 10.3713C80.3683 11.5059 82.9787 10.2009 85.8902 9.57838C86.3213 9.48643 86.7635 9.50583 87.2063 9.52607C87.5026 9.53872 87.7991 9.55222 88.0927 9.53113C91.2461 9.31518 94.4229 8.38898 97.4626 9.78251C98.694 10.346 99.8203 10.8951 101.113 11.3279C102.886 11.9234 103.818 12.977 105.14 14.2187C106.708 15.6915 107.735 16.0602 108.908 17.9969C109.629 19.1838 110.186 20.7587 111.565 21.3171C113.379 22.0519 114.907 20.4576 116.58 20.3234C116.814 20.304 117.05 20.3133 117.293 20.3622C121.755 21.2648 122.98 27.4548 123.852 31.125C124.74 34.8729 125.353 38.4731 127.321 41.8389C129.726 45.9478 135.25 50.4919 135.632 55.4908C135.821 57.9834 135.283 61.2868 136.433 63.8697C137.6 66.4864 140.328 67.9803 141.555 70.5674C142.084 71.6851 142.13 73.3149 142.128 74.5355C142.126 76.2335 141.798 77.0475 140.574 78.1669C135.113 83.1641 129.319 85.251 127.816 93.1955C127.498 94.8801 127.531 96.5258 127.318 98.2196C127.107 99.8932 126.438 101.243 125.542 102.698C124.159 104.942 122.632 107.244 121.973 109.83C121.377 112.179 121.63 114.286 120.218 116.417C118.919 118.377 116.317 118.576 114.288 119.344C111.521 120.391 108.408 120.052 105.445 120.052C103.545 120.052 101.553 119.886 99.674 120.111C97.9776 120.315 96.1436 121.027 94.5234 121.541C90.5933 122.791 87.3526 125.351 83.5985 126.964C79.044 128.921 74.9016 127.883 70.1473 127.854C69.0516 127.847 67.653 127.892 66.7749 128.44C66.1599 128.823 65.7829 129.312 65.1089 129.493C60.1142 130.839 59.4183 133.973 58.4693 138.652C58.1665 140.149 56.4963 142.187 54.8033 140.603C53.1491 139.053 52.9703 136.023 52.8556 133.957C52.756 132.171 52.2676 130.829 51.1499 129.442C49.6627 127.593 48.2304 125.854 46.1654 124.623C44 123.333 41.5942 122.515 39.396 121.288C36.1104 119.455 34.026 116.224 32.1077 113.025C29.9053 109.35 28.8905 104.8 25.3442 102.31C22.3648 100.218 18.4044 98.9957 16.2508 95.878C13.6873 92.1714 11.2258 87.2806 12.6674 82.62C13.8332 78.8553 14.8362 74.8476 14.3933 70.877C14.0525 67.8124 12.3098 65.2362 10.772 62.6542C9.05286 59.7675 8.0794 57.0125 7.34468 53.743C6.45811 49.7977 6.78878 45.5909 8.16207 41.7849Z" fill="#F36693"/>
<path d="M32.9858 26.7757C32.9259 27.1857 32.8205 27.8116 32.5658 28.1549C32.2216 28.6189 31.7163 28.9242 31.2186 29.1933C30.2646 29.7112 29.3982 30.2663 28.4779 30.8298C27.3602 31.5147 26.0393 31.6834 24.86 32.2343C23.5516 32.8433 22.3977 33.729 21.1906 34.5102C19.9607 35.3048 18.5486 35.9678 17.7759 37.2745C14.9677 42.0219 18.1032 48.5265 15.5886 53.6308C13.5303 57.8097 13.4983 62.5386 16.0517 66.4965C18.4414 70.203 20.6347 73.7324 19.9615 78.3871C19.571 81.0907 17.8847 83.5091 17.4781 86.1924C17.3111 87.3 17.4343 88.5172 17.4343 89.6417C17.4343 90.5594 17.2715 91.6839 17.6063 92.5308C17.3305 91.8332 15.9538 91.1693 15.6105 89.8956C14.9838 87.5665 15.4629 85.4779 16.2052 83.2898C17.2791 80.1239 18.0981 76.7127 17.5937 73.3495C17.0218 69.5468 14.6868 66.7901 12.8926 63.5458C12.0752 62.0662 11.4746 60.6625 11.3236 58.9493C11.2469 58.0855 10.8926 57.5271 10.9179 56.6245C10.9432 55.7067 11.3996 54.9636 11.5151 54.0677C11.769 52.0955 11.3084 50.5906 10.4792 48.928C10.0794 48.1258 9.5699 47.2426 9.38347 46.367C9.14728 45.2552 9.28731 44.6597 10.1334 44.0363C11.4949 43.0342 13.1735 42.4327 13.9285 40.8283C14.648 39.3049 14.1546 37.4693 14.8134 35.8809C16.1462 32.6679 20.3909 31.6092 23.415 30.8374C25.4783 30.311 32.5733 29.6379 32.9858 26.7757Z" fill="#F692AF"/>
<path d="M123.076 103.293C123.094 104.092 122.598 104.857 122.328 105.586C121.977 106.536 121.713 107.569 121.44 108.553C120.978 110.22 121.402 112.091 120.699 113.687C120.357 114.464 120.064 115.202 119.273 115.622C118.992 115.771 118.621 115.727 118.33 115.903C117.726 116.266 117.974 116.514 117.703 117.042C117.434 117.568 117.132 117.737 116.804 117.737C116.322 117.737 115.783 117.373 115.207 117.243C114.339 117.047 113.346 116.951 112.435 116.951C112.328 116.951 112.223 116.951 112.119 116.955C111.449 116.972 110.843 117.171 110.183 117.223C110.084 117.231 109.985 117.236 109.884 117.236C109.86 117.236 109.835 117.235 109.81 117.235C107.73 117.191 105.721 116.499 103.719 116.013C102.266 115.659 100.726 115.433 99.1781 115.433C98.8488 115.433 98.5193 115.443 98.1899 115.465C96.048 115.603 93.4785 116.763 91.6191 117.78C89.6773 118.842 88.0614 120.457 86.3858 121.82C85.0674 122.892 83.7425 124.503 82.2159 125.386C80.5944 126.325 79.1455 126.521 77.2601 126.521C75.9855 126.521 74.7109 126.521 73.4372 126.521C72.7994 126.521 72.1626 126.521 71.5248 126.521C70.6248 126.521 69.8386 126.676 68.9672 126.719C68.0891 126.762 67.0515 126.732 66.1936 126.906C64.9806 127.15 64.0898 128.229 62.8903 128.591C62.0831 128.836 61.2016 129.014 60.5411 129.577C58.7325 131.115 58.4988 134.304 57.6629 136.382C57.3921 137.059 57.177 138.415 56.7156 138.9C56.7797 136.93 56.6743 135.088 57.3567 133.234C57.9488 131.63 58.8295 130.101 59.7422 128.688C60.2129 127.959 60.7266 127.392 61.2783 126.719C62.0173 125.816 62.4365 125.572 63.6369 125.534C63.9127 125.525 64.1885 125.522 64.4644 125.522C64.9789 125.522 65.4935 125.532 66.0064 125.534C66.0106 125.534 66.0157 125.534 66.0199 125.534C66.9419 125.534 67.3957 125.263 68.2224 124.985C69.9677 124.4 71.8935 124.271 73.8362 124.271C75.2525 124.271 76.678 124.339 78.0502 124.349C78.0601 124.349 78.0703 124.349 78.0802 124.349C79.6542 124.349 81.2498 123.467 82.5862 122.73C84.1231 121.883 85.5485 120.228 86.5403 118.831C87.5678 117.383 88.6746 116.403 90.1004 115.425C91.3914 114.538 93.0195 113.572 94.6357 113.287C95.2041 113.187 95.7593 113.144 96.304 113.144C99.0716 113.144 101.576 114.259 104.311 114.673C106.59 115.019 109.023 115.737 111.421 115.737C112.268 115.737 113.111 115.647 113.941 115.42C114.514 115.262 115.265 114.804 115.807 114.53C116.734 114.064 117.049 113.718 117.584 112.94C118.207 112.034 118.43 112.427 119.326 112.118C120.095 111.851 120.144 110.992 120.298 110.378C120.945 107.812 121.302 105.385 123.076 103.293Z" fill="#F692AF"/>
<path d="M41.6508 71.1748C41.6128 71.5308 41.574 71.8328 41.477 72.1685C41.5192 71.8319 41.5774 71.5012 41.6508 71.1748Z" fill="#F583AA"/>
<path d="M46.3839 56.0365C46.1662 56.5376 45.9461 57.0218 45.7436 57.5043L45.2957 57.6039C45.677 57.1028 46.0566 56.5933 46.3839 56.0365ZM43.1919 61.6664C43.461 61.7996 43.7604 61.873 44.07 61.873C44.2126 61.873 44.3568 61.8578 44.5019 61.8258L44.8419 61.7499C44.5964 63.5129 43.1902 64.0738 42.3627 65.7069C41.6389 67.1342 41.8954 69.0955 41.7089 70.6425C41.6862 70.8374 41.6685 71.012 41.6507 71.1748C41.5774 71.5012 41.5191 71.8319 41.477 72.1685C41.4365 72.3068 41.3876 72.4511 41.3243 72.6071C41.0012 73.4017 40.8831 74.1221 40.776 74.9868C40.6866 75.7139 40.6368 76.619 40.733 77.3554C40.8325 78.1205 41.2425 78.7211 41.3243 79.5284C41.4044 80.3196 41.2113 80.9979 41.1235 81.6955C40.9928 82.7237 41.5099 82.9194 41.9713 83.6651C42.3872 84.3366 42.5964 84.9971 43.1025 85.6441C43.5437 86.211 44.1392 87.1245 44.2969 87.8103C44.4091 88.2987 44.2834 88.8462 44.5154 89.2983C44.8469 89.9428 45.7487 90.2735 46.3122 90.6666C47.7411 91.6653 47.3666 93.5574 48.4759 94.7054C49.1625 95.4149 49.9681 95.6291 50.8175 95.6291C51.9757 95.6291 53.214 95.231 54.3402 95.1483C54.4237 95.1424 54.5064 95.1399 54.589 95.1399C55.5431 95.1399 56.4144 95.5338 57.2529 95.9286C57.7 96.1395 58.1378 96.3495 58.5731 96.5005C58.212 96.3816 57.8561 96.2415 57.4714 96.1521C56.5992 95.9514 55.6612 95.9168 54.7653 95.9168C54.7425 95.9168 54.7206 95.9168 54.6978 95.9168C53.3802 95.9193 52.2423 96.3444 50.9559 96.5528C50.028 96.7038 48.9078 97.4799 47.9276 97.4799C47.8297 97.4799 47.7335 97.4731 47.6382 97.4554C46.577 97.2673 46.0895 95.2942 46.0051 94.4524C45.8786 93.1803 45.5251 91.6442 44.4732 90.7779C43.8946 90.3013 43.0628 89.9934 42.5542 89.3996C41.951 88.696 42.3753 88.0389 42.075 87.273C41.4171 85.5977 39.6634 85.4374 38.5077 84.3155C37.5773 83.4146 36.9277 80.9709 37.7165 79.8743C38.1905 79.2155 39.0459 78.8991 39.4086 78.1467C39.8093 77.3141 39.7452 76.3449 39.7452 75.4254C39.7452 73.4566 39.5478 71.6101 39.5478 69.6564C39.5478 67.7897 39.3243 66.6129 40.8873 65.4598C42.3872 64.3522 42.8123 63.318 43.1919 61.6664ZM58.5731 96.5005C58.8911 96.606 59.2125 96.6928 59.5592 96.7131C59.2302 96.6937 58.9021 96.6144 58.5731 96.5005ZM59.5592 96.7131C59.6098 96.7156 59.6604 96.7173 59.711 96.7173C59.7254 96.7173 59.7397 96.7173 59.7549 96.7173C59.7397 96.7173 59.7245 96.7173 59.7102 96.7173C59.6596 96.7173 59.609 96.7156 59.5592 96.7131Z" fill="#F692AF"/>
<path d="M120.107 47.3944C120.107 47.5606 120.108 47.7259 120.11 47.8896C120.093 47.7217 120.091 47.5564 120.107 47.3944ZM120.11 47.8896C120.222 48.9626 120.95 50.1376 121.291 51.0959C121.653 52.1149 122.265 53.3026 123.069 54.0719C123.391 54.3798 123.666 54.654 123.91 54.9281L122.861 56.3385C122.688 55.4427 121.903 54.9222 121.483 54.1107C120.434 52.082 120.141 50.1014 120.11 47.8896ZM125.692 59.1416C125.71 59.5313 125.694 59.9287 125.646 60.3319C125.533 61.2648 125.244 61.9768 125.24 62.9418C125.236 64.0856 125.802 64.8389 126.036 65.9043C126.217 66.7293 126.368 67.7896 126.232 68.6669C126.109 69.4666 125.426 69.9829 125.453 70.8247C125.505 72.3886 127.223 73.2465 127.011 74.856C126.812 76.3634 125.26 77.1007 124.302 78.0918C123.221 79.2138 122.057 80.7541 121.477 82.3003C121.255 82.1189 120.993 81.9865 120.71 81.9156C121.229 81.299 121.629 80.5929 121.895 79.7359C122.351 78.2639 122.868 76.5397 123.073 74.9868C123.19 74.0943 122.884 73.2963 122.823 72.4646C122.767 71.6978 123.248 71.2262 123.709 70.489C124.58 69.0954 124.609 67.4902 124.205 65.9043C124.037 65.2489 124.193 64.5892 124.065 63.9296C123.939 63.2809 123.495 62.9612 123.105 62.5706C123.187 62.493 123.264 62.4078 123.332 62.3142L125.692 59.1416ZM118.262 83.9258C118.264 83.9865 118.27 84.0473 118.278 84.1088L119.187 90.497C119.312 91.376 119.999 92.0381 120.834 92.1697C119.987 94.1141 118.889 95.1373 117.343 96.5579C115.948 97.8409 114.737 99.2319 113.799 100.853C113.208 101.877 112.706 103.062 112.109 104.14C111.936 104.092 111.756 104.067 111.576 104.067C111.46 104.067 111.343 104.077 111.228 104.098C111.245 103.671 111.299 103.251 111.469 102.827C111.85 101.873 112.402 100.672 112.999 99.8612C113.53 99.1408 114.367 98.8321 114.973 98.2399C115.808 97.4267 116.369 96.2744 116.804 95.1761C117.681 92.9652 117.343 90.4076 117.343 88.0575C117.343 87.1414 117.131 85.9258 117.387 85.0519C117.538 84.5374 117.868 84.2134 118.262 83.9258Z" fill="#F692AF"/>
<path d="M66.6796 7.27042C67.9128 7.27042 69.2254 8.04986 70.1634 8.79302C71.4144 9.78418 71.9213 11.2148 73.4659 11.8526C74.7472 12.3815 76.2496 12.7256 77.5014 13.3304C78.8632 13.9859 80.1581 14.2457 81.5925 14.2457C82.0429 14.2457 82.5069 14.2204 82.9913 14.1731C83.8144 14.0939 84.538 13.7851 85.3558 13.6248C86.1592 13.4679 86.7236 13.0647 87.5276 12.7914C88.7808 12.3663 90.34 12.0947 91.8044 12.0947C92.3036 12.0947 92.7922 12.1259 93.2538 12.1942C95.0312 12.4557 96.6102 13.942 97.7849 15.1609C98.864 16.2795 99.9461 17.8653 101.542 18.2795C101.825 18.3538 102.119 18.3706 102.416 18.3706C102.547 18.3706 102.679 18.3673 102.811 18.3639C102.944 18.3605 103.076 18.3571 103.209 18.3571C103.571 18.3571 103.929 18.3833 104.267 18.5073C105.031 18.7857 105.597 19.4436 106.088 20.0974C106.919 21.2049 107.446 22.439 108.49 23.3872C108.924 23.7803 109.299 23.9085 109.685 23.9085C110.207 23.9085 110.747 23.6731 111.469 23.5441C111.582 23.5247 111.683 23.5146 111.773 23.5146C112.41 23.5146 112.556 23.9827 113.142 24.4888C113.568 24.8558 113.982 24.9713 114.399 24.9713C114.754 24.9713 115.112 24.8878 115.482 24.8035C115.853 24.72 116.236 24.6356 116.642 24.6356C116.678 24.6356 116.714 24.6365 116.75 24.6382C118.517 24.7056 118.305 26.8491 118.763 28.192C119.247 29.6108 121.071 31.5409 120.659 33.1073C118.499 31.756 118.317 28.1313 115.368 27.7981C115.18 27.777 115 27.766 114.827 27.766C113.91 27.766 113.157 28.0511 112.352 28.5328C111.872 28.8196 111.896 28.9824 111.294 28.9824C111.27 28.9824 111.246 28.9824 111.221 28.9816C110.623 28.9689 110.227 28.7926 109.796 28.3987C108.942 27.6184 108.408 26.6703 107.469 26.0207C106.597 25.4167 105.46 25.2565 104.508 24.9891C104.052 24.8625 103.515 24.5816 103.082 24.4846C102.55 24.3657 102.057 24.4914 101.536 24.2425C100.157 23.5829 100.974 22.7866 100.53 21.7203C100.386 21.3753 99.6585 20.8641 99.4127 20.4913C99.3142 20.3403 99.2414 20.2264 99.1745 20.1294C99.1332 19.4942 98.7863 18.8894 98.1942 18.5452C97.8838 18.3664 97.5444 18.2812 97.2099 18.2812C97.0504 18.2812 96.8923 18.3006 96.7384 18.3386C96.6373 18.2551 96.5414 18.169 96.452 18.0779C96.0537 17.6713 96.0679 17.5946 95.6174 17.3381C95.2951 17.1542 95.0714 17.0142 94.7848 16.7881C94.1023 16.2508 93.583 15.4891 92.9072 14.9585C92.5131 14.6481 91.9411 14.53 91.3107 14.53C90.1185 14.53 88.7182 14.9534 87.923 15.3027C86.2768 16.0281 85.204 17.1222 83.3811 17.5355C82.8624 17.6528 82.3464 17.7363 81.836 17.7363C81.3576 17.7363 80.8844 17.6629 80.4201 17.4748C79.5087 17.1045 79.0286 16.5174 78.2437 15.9404C76.8924 14.9484 75.201 14.8294 73.7021 14.1251C72.2664 13.4494 70.2655 12.4329 69.5999 10.8167C69.4059 10.346 69.4455 10.1064 69.1697 9.63656C68.9673 9.29155 68.6501 8.74073 68.381 8.43705C67.8369 7.82632 66.9082 7.7715 66.2637 7.30164C66.4012 7.28056 66.5395 7.27042 66.6796 7.27042Z" fill="#F692AF"/>
<path d="M87.0893 37.5916C86.8567 38.2682 90.1495 38.7355 90.4272 38.7819C91.0797 38.889 91.6204 38.9717 92.0834 39.0864L89.0193 39.7705C88.5669 39.8709 88.1863 40.1197 87.9168 40.4546C87.1127 39.7519 86.6584 38.8485 87.0893 37.5916ZM95.1063 42.453C95.6388 43.5816 96.2371 44.6867 96.564 45.8946C96.7532 46.5939 96.8362 47.2519 96.7482 47.9546C96.7427 47.9976 96.736 48.0423 96.7294 48.087C96.63 48.7289 96.3109 49.4704 96.6447 50.1183C96.8834 50.5814 98.1183 51.1828 98.5846 51.3465C99.3086 51.5995 100.179 51.6712 100.954 51.6881C101.05 51.6906 101.145 51.6915 101.241 51.6915C101.352 51.6915 101.463 51.6906 101.574 51.6889C101.691 51.6881 101.809 51.6873 101.927 51.6873C101.998 51.6873 102.068 51.6872 102.139 51.6881C102.784 51.6991 102.902 51.8104 103.367 52.0399C104.897 52.7948 105.659 53.9049 105.496 55.6376C105.35 57.1846 104.263 58.1969 105.057 59.7836C105.405 60.477 105.964 60.9333 106.345 61.55C106.743 62.1936 106.801 63.2109 106.877 63.9304C107.031 65.3889 106.839 66.6686 107.856 67.8892C108.494 68.6551 109.586 68.6771 110.095 69.6514C110.603 70.6189 110.431 71.9011 110.431 72.9564C110.417 71.7037 110.146 70.845 109.05 70.09C108.313 69.583 107.571 69.4514 106.874 69.0676C105.018 68.0469 106.244 66.0891 105.653 64.5665C105.451 64.0469 104.77 63.4522 104.464 62.9916C104.045 62.3589 103.457 61.4934 103.319 60.7747C103.179 60.0485 103.328 59.1492 103.324 58.4044C103.316 56.9796 104.583 55.9168 104.22 54.4144C103.869 52.9602 103.064 52.5418 102.054 52.5418C101.371 52.5418 100.593 52.7332 99.7998 52.9256C99.0067 53.1171 98.1978 53.3085 97.4511 53.3085C96.6646 53.3085 95.9472 53.096 95.39 52.4464C93.6209 50.3857 95.1152 47.0309 94.019 44.6411C93.6845 43.9115 93.1596 43.4281 92.5394 43.0274L95.1063 42.453Z" fill="#F692AF"/>
<path d="M67.3274 25.8065C68.5986 25.8065 69.3865 26.4079 70.7429 26.8061C72.4047 27.2953 74.2217 26.9798 75.9223 27.3586C76.7169 27.534 77.3689 27.7087 77.957 27.9406L79.2477 29.0541C78.8325 29.0659 78.3801 29.1511 77.9445 29.2355C77.4744 29.3266 77.0239 29.4185 76.6604 29.4185C76.6418 29.4185 76.6232 29.4185 76.6055 29.4177C75.3925 29.3865 73.3899 28.2603 71.5864 27.7964C71.2128 27.7002 70.8787 27.6555 70.5767 27.6555C68.6914 27.6555 68.0807 29.3839 67.1553 31.0567C65.2497 34.5059 63.8773 32.7244 60.6701 33.7602C59.1982 34.2343 58.6136 36.0859 57.8611 37.2213C57.4832 37.7915 57.0362 38.8097 56.3419 39.0611C56.1597 39.1269 55.9379 39.1496 55.6983 39.1496C55.4435 39.1496 55.1711 39.1243 54.9045 39.099C54.638 39.0737 54.3781 39.0484 54.1538 39.0484C54.104 39.0484 54.0568 39.0493 54.0112 39.0526C52.136 39.1665 50.7079 39.5073 49.7665 41.213C48.8361 42.9 47.6458 44.3062 45.855 45.1287C45.0924 45.4788 44.4994 45.5699 43.7082 45.5699C43.639 45.5699 43.569 45.569 43.4964 45.5673C43.116 45.5606 42.7474 45.4745 42.3914 45.3708C42.4066 45.3716 42.4218 45.3716 42.4369 45.3716C42.631 45.3716 42.8359 45.3556 43.0586 45.3252C43.9832 45.2004 44.3653 44.7786 44.8301 43.9435C45.785 42.2328 46.2784 40.6368 48.0381 39.5908C49.6712 38.6199 51.6535 37.8675 53.3693 37.0771C54.8008 36.4182 56.6009 37.2517 57.4714 35.6996C57.9337 34.8746 57.4866 33.9728 57.7034 33.1242C57.8915 32.3903 58.5739 31.0752 59.14 30.5514C59.5035 30.2157 59.9337 30.1541 60.3833 30.1541C60.5166 30.1541 60.6516 30.1592 60.7866 30.1642C60.9207 30.1701 61.0573 30.176 61.1923 30.176C61.2834 30.176 61.3745 30.1735 61.4648 30.1667C62.4618 30.0925 62.5335 29.7492 63.0928 28.9765C64.0738 27.6235 64.7993 26.1574 66.6011 25.8672C66.8618 25.825 67.1022 25.8065 67.3274 25.8065ZM40.9936 45.0156C41.4416 45.0587 41.9064 45.2308 42.3914 45.3708C41.9021 45.3649 41.4787 45.2544 40.9936 45.0156Z" fill="#F692AF"/>
<path d="M109.313 51.5801C110.066 52.3663 111.316 52.3933 112.101 51.64C112.888 50.8867 112.915 49.6374 112.161 48.8504L107.697 44.1898C106.943 43.4045 105.694 43.3775 104.907 44.1299C104.121 44.884 104.095 46.1333 104.848 46.9195L109.313 51.5801Z" fill="white"/>
<path d="M113.631 34.9142C114.717 34.845 115.543 33.9079 115.474 32.8214C115.405 31.7349 114.468 30.9082 113.382 30.9774L106.94 31.3831C105.854 31.4531 105.028 32.3903 105.095 33.4768C105.164 34.5633 106.102 35.39 107.188 35.3208L113.631 34.9142Z" fill="#ECEF32"/>
<path d="M127.185 57.1348C127.835 56.2601 127.652 55.0243 126.779 54.3756C125.904 53.7261 124.669 53.9074 124.018 54.7822L120.167 59.9599C119.519 60.8346 119.7 62.0704 120.573 62.7208C121.447 63.3703 122.684 63.1881 123.332 62.3142L127.185 57.1348Z" fill="#4DC3BA"/>
<path d="M112.584 62.6314C111.856 61.8207 110.609 61.7549 109.799 62.4829C108.99 63.2109 108.922 64.4585 109.651 65.27L113.963 70.0689C114.693 70.8779 115.94 70.9453 116.751 70.2174C117.56 69.4894 117.627 68.2426 116.899 67.4328L112.584 62.6314Z" fill="#EE2830"/>
<path d="M122.185 83.5521C122.031 82.4724 121.032 81.7233 119.955 81.8768C118.877 82.0304 118.127 83.0283 118.278 84.1088L119.187 90.497C119.341 91.5751 120.339 92.3258 121.418 92.174C122.496 92.0188 123.246 91.0208 123.093 89.942L122.185 83.5521Z" fill="#ECEF32"/>
<path d="M105.216 108.293C104.341 108.942 104.156 110.178 104.804 111.052C105.451 111.928 106.688 112.114 107.564 111.465L112.751 107.626C113.626 106.978 113.811 105.742 113.164 104.865C112.515 103.991 111.281 103.806 110.404 104.453L105.216 108.293Z" fill="#EE2830"/>
<path d="M90.7703 101.636C89.7238 101.941 89.123 103.037 89.4282 104.081C89.7313 105.127 90.8267 105.729 91.8742 105.425L98.0699 103.621C99.1148 103.315 99.7171 102.221 99.413 101.175C99.1079 100.129 98.0143 99.528 96.9671 99.8317L90.7703 101.636Z" fill="white"/>
<path d="M81.1239 109.639C80.5792 108.696 79.3726 108.372 78.4292 108.917C77.4862 109.459 77.1623 110.666 77.7059 111.611L80.9305 117.202C81.4746 118.143 82.6808 118.47 83.6253 117.925C84.5679 117.38 84.8915 116.174 84.3482 115.23L81.1239 109.639Z" fill="#ECEF32"/>
<path d="M63.8376 119.069C62.7478 119.097 61.8873 120.002 61.9143 121.09C61.9405 122.177 62.8456 123.04 63.9363 123.014L70.3869 122.855C71.4742 122.827 72.338 121.923 72.3119 120.834C72.2823 119.744 71.3789 118.885 70.289 118.909L63.8376 119.069Z" fill="#4DC3BA"/>
<path d="M40.9523 107.497C39.8633 107.524 39.002 108.429 39.029 109.518C39.056 110.605 39.9603 111.467 41.051 111.441L47.5016 111.283C48.5889 111.255 49.4518 110.351 49.4265 109.262C49.397 108.173 48.4936 107.312 47.4045 107.338L40.9523 107.497Z" fill="#E93848"/>
<path d="M57.3601 99.42C56.5317 98.7131 55.2858 98.811 54.5789 99.6393C53.8712 100.465 53.9682 101.712 54.7974 102.421L59.7026 106.614C60.5293 107.321 61.776 107.224 62.4838 106.397C63.1907 105.568 63.0928 104.324 62.2661 103.615L57.3601 99.42Z" fill="#262C49"/>
<path d="M27.5838 89.5396C26.7546 88.8318 25.5104 88.9297 24.8026 89.7581C24.0941 90.5839 24.1911 91.8306 25.0203 92.5401L29.9255 96.7325C30.753 97.4385 31.9989 97.3424 32.7075 96.5157C33.4144 95.6856 33.3165 94.4414 32.489 93.7328L27.5838 89.5396Z" fill="#EE2830"/>
<path d="M46.2902 78.3584C46.7272 77.3596 46.2708 76.1972 45.2738 75.7603C44.2784 75.3225 43.1135 75.7772 42.6748 76.7759L40.086 82.6858C39.6499 83.682 40.1028 84.8486 41.1008 85.2856C42.0995 85.7209 43.2611 85.267 43.6997 84.2691L46.2902 78.3584Z" fill="white"/>
<path d="M31.8563 72.5067C32.2941 71.508 31.8378 70.3447 30.8407 69.9095C29.8453 69.4725 28.6795 69.9263 28.2417 70.9251L25.6521 76.8341C25.216 77.8312 25.6698 78.997 26.666 79.4339C27.6656 79.87 28.828 79.4154 29.2658 78.4174L31.8563 72.5067Z" fill="#ECEF32"/>
<path d="M26.8491 54.848C26.003 54.1597 24.7613 54.2879 24.073 55.1314C23.3864 55.9741 23.5112 57.2175 24.3564 57.9075L29.357 61.9844C30.2005 62.671 31.4447 62.5462 32.1339 61.7026C32.8206 60.8574 32.694 59.6166 31.8505 58.9265L26.8491 54.848Z" fill="#E93848"/>
<path d="M30.2258 43.7351C29.1376 43.6584 28.1962 44.4775 28.1169 45.5631C28.0402 46.6479 28.8584 47.5927 29.9449 47.672L36.382 48.1317C37.4668 48.2085 38.4132 47.3911 38.4917 46.3046C38.5676 45.2181 37.7502 44.2742 36.662 44.1957L30.2258 43.7351Z" fill="#262C49"/>
<path d="M37.3621 26.7091C36.6763 25.8613 35.4355 25.7314 34.5869 26.4155C33.7408 27.0988 33.6084 28.3422 34.2933 29.1908L38.3491 34.209C39.0341 35.0542 40.2783 35.1884 41.1252 34.5043C41.9713 33.8176 42.102 32.5768 41.4179 31.7273L37.3621 26.7091Z" fill="#EE2830"/>
<path d="M56.5773 39.1851C57.2259 38.3086 57.0412 37.0745 56.1665 36.425C55.2925 35.7772 54.0559 35.9602 53.4055 36.8358L49.564 42.0194C48.9162 42.8933 49.0984 44.1299 49.9732 44.7811C50.8496 45.4273 52.0837 45.2434 52.7341 44.3686L56.5773 39.1851Z" fill="white"/>
<path d="M64.7352 16.1875C64.4711 15.1297 63.4007 14.4895 62.3437 14.7527C61.2876 15.0158 60.644 16.0863 60.9072 17.145L62.4703 23.4057C62.7334 24.461 63.8047 25.1063 64.8617 24.8448C65.9187 24.5774 66.5623 23.5078 66.2983 22.4491L64.7352 16.1875Z" fill="#262C49"/>
<path d="M77.922 22.6972C77.0956 21.9852 75.8531 22.0772 75.1403 22.9013C74.4292 23.7255 74.5203 24.9722 75.3444 25.6859L80.2293 29.901C81.0531 30.6113 82.2999 30.5227 83.0133 29.6978C83.7234 28.8719 83.6321 27.6268 82.807 26.9149L77.922 22.6972Z" fill="#EE2830"/>
<path d="M92.2669 24.8549C91.7209 25.7989 92.0445 27.0034 92.9879 27.5492C93.93 28.0933 95.1373 27.7728 95.6846 26.8288L98.9135 21.242C99.4575 20.3006 99.1366 19.0927 98.1942 18.5452C97.2504 18.002 96.0437 18.3242 95.4975 19.2681L92.2669 24.8549Z" fill="#4DC3BA"/>
<path d="M89.0193 39.7705C87.956 40.0075 87.289 41.0628 87.5249 42.1265C87.7635 43.1877 88.8176 43.8583 89.8825 43.6213L96.1785 42.2134C97.2405 41.9755 97.9121 40.9202 97.6761 39.8565C97.4366 38.7954 96.3818 38.1256 95.3182 38.3635L89.0193 39.7705Z" fill="#262C49"/>
<path d="M43.6382 57.975C42.5745 58.2121 41.9081 59.2665 42.1443 60.3302C42.3821 61.3922 43.4357 62.0628 44.502 61.8258L50.7973 60.4171C51.8593 60.1792 52.5308 59.1248 52.2946 58.0611C52.055 56.999 51.0006 56.3301 49.9369 56.5672L43.6382 57.975Z" fill="#4DC3BA"/>
<path d="M102.884 82.9C102.083 82.1611 100.837 82.2126 100.096 83.0131C99.3596 83.8128 99.4064 85.0604 100.208 85.801L104.949 90.1781C105.749 90.9146 106.998 90.8673 107.738 90.0676C108.475 89.2654 108.426 88.0178 107.625 87.2789L102.884 82.9Z" fill="#E93848"/>
<path d="M31.0575 125.928C31.0575 125.928 9.73271 108.75 6.77187 88.8082C6.77187 88.8082 17.0386 109.935 31.0575 125.928Z" fill="#E09245"/>
<path d="M90.0945 53.3667C90.0945 53.3667 78.9884 42.852 62.5504 49.9605C62.5504 49.9605 75.2862 36.3364 90.0945 53.3667Z" fill="#E09245"/>
<path d="M139.852 82.8351C139.852 82.8351 130.671 110.675 120.749 120.005C120.749 120.005 142.073 100.161 139.852 82.8351Z" fill="#E09245"/>
<path d="M116.454 123.707C116.454 123.707 94.2413 143.698 61.07 138.071C61.07 138.071 102.682 132.295 116.454 123.707Z" fill="#E09245"/>
<path d="M119.344 82.9507C119.552 82.9507 119.732 83.1033 119.761 83.3142L120.707 90.2583C120.739 90.4886 120.578 90.7003 120.348 90.7323C120.328 90.7349 120.31 90.7357 120.29 90.7357C120.083 90.7357 119.902 90.583 119.873 90.3722L118.927 83.4281C118.895 83.1978 119.057 82.9852 119.287 82.954C119.306 82.9515 119.326 82.9507 119.344 82.9507Z" fill="#F6F798"/>
<path d="M110.507 63.9481C110.615 63.9481 110.723 63.9895 110.805 64.0721L115.748 69.0398C115.912 69.2051 115.912 69.4708 115.747 69.6353C115.665 69.7171 115.558 69.7576 115.45 69.7576C115.342 69.7576 115.234 69.7163 115.152 69.6336L110.208 64.666C110.045 64.5015 110.045 64.2349 110.21 64.0705C110.292 63.9895 110.399 63.9481 110.507 63.9481Z" fill="#F68C79"/>
<path d="M125.187 54.6321C125.274 54.6321 125.361 54.6582 125.436 54.713C125.624 54.8514 125.664 55.1146 125.526 55.3018L121.371 60.946C121.288 61.0573 121.161 61.1172 121.032 61.1172C120.945 61.1172 120.857 61.0902 120.782 61.0354C120.595 60.8971 120.555 60.6339 120.693 60.4466L124.848 54.8033C124.931 54.6911 125.058 54.6321 125.187 54.6321Z" fill="#A6E1D8"/>
<path d="M95.7768 39.0771C95.9657 39.0771 96.1381 39.2061 96.1848 39.3976C96.2405 39.6237 96.1028 39.8515 95.8771 39.9063L89.0384 41.59C89.0041 41.5984 88.9705 41.6027 88.9372 41.6027C88.7481 41.6027 88.5761 41.4736 88.529 41.2821C88.4736 41.0569 88.6114 40.8283 88.8371 40.7735L95.6757 39.0897C95.7094 39.0813 95.7436 39.0771 95.7768 39.0771Z" fill="#78728C"/>
<path d="M113.662 33.2904C113.882 33.2904 114.068 33.4616 114.082 33.6843C114.097 33.9163 113.921 34.117 113.689 34.1314L107.166 34.5523C107.157 34.5532 107.148 34.5532 107.139 34.5532C106.919 34.5532 106.734 34.3819 106.719 34.1592C106.704 33.9281 106.88 33.7273 107.112 33.7121L113.635 33.2912C113.644 33.2912 113.653 33.2904 113.662 33.2904Z" fill="#F6F798"/>
<path d="M96.7236 19.2977C96.796 19.2977 96.8692 19.3163 96.9361 19.3551C97.1367 19.4732 97.2039 19.7313 97.0867 19.932L93.5095 26.0334C93.4308 26.1675 93.2901 26.2418 93.1457 26.2418C93.0733 26.2418 93.0001 26.2232 92.9332 26.1836C92.7332 26.0663 92.6657 25.8082 92.7833 25.6083L96.3604 19.5061C96.4385 19.3719 96.5796 19.2977 96.7236 19.2977Z" fill="#A6E1D8"/>
<path d="M76.3128 24.2425C76.4132 24.2425 76.5153 24.2788 76.5954 24.3522L81.3305 28.6661C81.5022 28.8221 81.5144 29.0887 81.3579 29.2608C81.2748 29.3519 81.1612 29.3974 81.0468 29.3974C80.9456 29.3974 80.8438 29.362 80.7631 29.2878L76.0285 24.9747C75.8573 24.8187 75.8446 24.5521 76.0015 24.38C76.0842 24.2889 76.1981 24.2425 76.3128 24.2425Z" fill="#F68C79"/>
<path d="M61.8983 16.3512C62.0873 16.3512 62.2594 16.4794 62.3066 16.6709L63.8849 22.9831C63.9414 23.2084 63.8039 23.437 63.5787 23.4935C63.5441 23.5019 63.5103 23.5061 63.4766 23.5061C63.2877 23.5061 63.1164 23.3788 63.0683 23.1873L61.4901 16.875C61.4335 16.649 61.5702 16.4204 61.7963 16.3647C61.8309 16.3563 61.8654 16.3512 61.8983 16.3512Z" fill="#78728C"/>
<path d="M35.3858 28.3455C35.5056 28.3455 35.6253 28.397 35.708 28.4965L39.4955 33.0204C39.6448 33.1993 39.6212 33.4641 39.4432 33.6134C39.3648 33.6792 39.2686 33.7113 39.1733 33.7113C39.0527 33.7113 38.9337 33.6607 38.8502 33.5612L35.0627 29.0372C34.9134 28.8584 34.937 28.5935 35.115 28.4442C35.1943 28.3776 35.2896 28.3455 35.3858 28.3455Z" fill="#F68C79"/>
<path d="M29.9145 46.2312C29.9255 46.2312 29.9365 46.232 29.9474 46.2329L36.576 46.7593C36.8071 46.777 36.9809 46.9803 36.9623 47.2114C36.9446 47.4324 36.7607 47.5994 36.5439 47.5994C36.5321 47.5994 36.5212 47.5994 36.5093 47.5977L29.8808 47.0722C29.6496 47.0537 29.4759 46.8512 29.4944 46.6192C29.5121 46.3991 29.6969 46.2312 29.9145 46.2312Z" fill="#78728C"/>
<path d="M50.7467 58.7519C50.939 58.7519 51.1128 58.8843 51.1567 59.08C51.2081 59.3078 51.0647 59.5322 50.8378 59.5836L44.7356 60.951C44.7044 60.9586 44.674 60.9612 44.6437 60.9612C44.4513 60.9612 44.2775 60.8279 44.2337 60.6322C44.1822 60.4053 44.3248 60.1809 44.5517 60.1303L50.6539 58.762C50.6851 58.7553 50.7163 58.7519 50.7467 58.7519Z" fill="#A6E1D8"/>
<path d="M24.6542 56.2272C24.7461 56.2272 24.8381 56.2567 24.9148 56.3175L30.4915 60.7368C30.6737 60.881 30.7041 61.1451 30.5598 61.3281C30.4772 61.4327 30.354 61.4867 30.23 61.4867C30.1381 61.4867 30.0461 61.4572 29.9685 61.3964L24.3927 56.9771C24.2105 56.8329 24.1793 56.5688 24.3244 56.3858C24.407 56.2812 24.5302 56.2272 24.6542 56.2272Z" fill="#F4958E"/>
<path d="M29.2835 71.1663C29.3434 71.1663 29.405 71.1798 29.4624 71.2068C29.6724 71.3055 29.7627 71.5569 29.664 71.7669L27.033 77.3436C26.9621 77.4955 26.8103 77.5849 26.6525 77.5849C26.5926 77.5849 26.5311 77.5714 26.4737 77.5444C26.2628 77.4457 26.1734 77.1943 26.2721 76.9843L28.9023 71.4076C28.974 71.2558 29.125 71.1663 29.2835 71.1663Z" fill="#F6F798"/>
<path d="M25.7061 91.1567C25.8006 91.1567 25.8951 91.1879 25.9727 91.2528L31.3393 95.6722C31.519 95.8198 31.5443 96.0846 31.3967 96.2635C31.3132 96.3647 31.1934 96.4178 31.0719 96.4178C30.9774 96.4178 30.8829 96.3858 30.8045 96.3208L25.4387 91.9032C25.259 91.7547 25.2329 91.489 25.3814 91.3102C25.464 91.209 25.5847 91.1567 25.7061 91.1567Z" fill="#F68C79"/>
<path d="M55.9016 101.152C55.9986 101.152 56.0973 101.186 56.1766 101.254L60.8059 105.252C60.9814 105.404 61.0008 105.67 60.849 105.845C60.7654 105.942 60.6482 105.991 60.5309 105.991C60.4331 105.991 60.3352 105.957 60.2559 105.889L55.6266 101.891C55.4503 101.74 55.4317 101.473 55.5827 101.297C55.6662 101.202 55.7835 101.152 55.9016 101.152Z" fill="#78728C"/>
<path d="M47.6948 109.779C47.9217 109.779 48.1089 109.958 48.1157 110.187C48.1233 110.419 47.9402 110.613 47.7074 110.621L40.8688 110.831C40.8646 110.831 40.8604 110.831 40.8561 110.831C40.6292 110.831 40.4428 110.651 40.4352 110.423C40.4285 110.191 40.6115 109.997 40.8426 109.99L47.6821 109.779C47.6863 109.779 47.6905 109.779 47.6948 109.779Z" fill="#F4958E"/>
<path d="M70.5253 121.247C70.7547 121.247 70.9428 121.431 70.947 121.662C70.9504 121.893 70.7648 122.085 70.5329 122.089L64.1152 122.194C64.1126 122.194 64.1101 122.194 64.1076 122.194C63.8781 122.194 63.6909 122.01 63.6867 121.78C63.6833 121.548 63.8689 121.356 64.1008 121.352L70.5185 121.247C70.521 121.247 70.5236 121.247 70.5253 121.247Z" fill="#A6E1D8"/>
<path d="M78.8371 110.2C78.9828 110.2 79.1251 110.276 79.2029 110.411L82.5695 116.304C82.6851 116.506 82.6146 116.763 82.413 116.878C82.347 116.915 82.2752 116.934 82.2047 116.934C82.0587 116.934 81.9164 116.857 81.8386 116.721L78.472 110.83C78.3571 110.628 78.4269 110.371 78.6285 110.254C78.6945 110.217 78.7659 110.2 78.8371 110.2Z" fill="#F6F798"/>
<path d="M112.084 106.097C112.218 106.097 112.35 106.161 112.431 106.28C112.562 106.47 112.514 106.733 112.323 106.864L107.272 110.336C107.2 110.387 107.117 110.411 107.034 110.411C106.9 110.411 106.769 110.346 106.687 110.228C106.555 110.036 106.604 109.775 106.796 109.643L111.846 106.171C111.919 106.12 112.001 106.097 112.084 106.097Z" fill="#F68C79"/>
<path d="M101.143 84.108C101.244 84.108 101.345 84.1443 101.426 84.2177L106.266 88.6362C106.437 88.7939 106.449 89.0588 106.293 89.2309C106.209 89.322 106.096 89.3683 105.982 89.3683C105.88 89.3683 105.779 89.3321 105.698 89.2587L100.859 84.8394C100.687 84.6825 100.674 84.4167 100.832 84.2447C100.914 84.1544 101.028 84.108 101.143 84.108Z" fill="#F4958E"/>
</svg>
