<svg width="129" height="226" viewBox="0 0 129 226" fill="none" xmlns="http://www.w3.org/2000/svg">
<path d="M4.30096 104.118C4.62541 104.837 4.87851 105.321 4.97343 105.51C4.68852 105.051 4.46706 104.593 4.30096 104.118Z" fill="#FF6CA8"/>
<path d="M123.826 104.244C123.676 104.664 123.471 105.082 123.21 105.494C123.305 105.313 123.526 104.885 123.826 104.244Z" fill="#FF6CA8"/>
<path d="M116.795 67.3159C116.795 68.0988 116.73 68.8591 116.604 69.6033C115.284 77.4423 107.127 83.1779 95.1436 86.6195H95.1355C86.4269 89.1184 75.6926 90.4001 64.0875 90.4001C52.4831 90.4001 41.7487 89.1184 33.0394 86.6195H33.0315C22.3525 83.5491 14.7189 78.6691 12.2431 72.0942C11.6734 70.5913 11.3808 68.9931 11.3808 67.3159C11.3808 58.7408 19.1092 51.0923 31.1725 46.1155C33.3557 53.9545 43.5839 59.8724 60.5277 59.8724C82.4399 59.8724 91.4261 52.6889 94.2574 45.0549C107.88 49.9607 116.795 58.0999 116.795 67.3159Z" fill="#FF6CA8"/>
<path d="M116.795 67.3159C116.795 68.1004 116.73 68.8591 116.604 69.6033C115.284 77.4423 107.127 83.1778 95.1436 86.6195H95.1355C91.7731 87.5832 88.1186 88.3597 84.2268 88.9602C96.3542 86.4532 104.874 81.3892 106.795 73.7165C106.977 72.9804 107.105 72.2298 107.168 71.4452C107.792 63.4723 101.654 55.7818 91.3938 49.9914C92.6997 48.4175 93.6327 46.7483 94.2574 45.0549C107.88 49.9607 116.795 58.0999 116.795 67.3159Z" fill="#C1528F"/>
<path d="M95.3341 38.9094C95.3341 40.903 95.0177 42.9983 94.2574 45.0549C91.4261 52.6889 82.4399 59.8724 60.5277 59.8724C43.5839 59.8724 33.3557 53.9545 31.1726 46.1155C30.8799 45.063 30.7295 43.9798 30.7295 42.8644C30.7295 36.3297 35.2807 28.4617 47.7051 27.2171C50.4265 26.9443 52.5383 26.8442 54.5872 27.2801C54.3262 26.9233 54.0808 26.5601 53.8515 26.1969C45.9332 13.7443 53.4085 1.19808 53.4085 1.19808C61.0262 17.3441 95.0322 5.65189 95.326 38.4735C95.3341 38.6156 95.3341 38.7673 95.3341 38.9094Z" fill="#FF6CA8"/>
<path d="M95.3341 38.9094C95.3341 40.903 95.0177 42.9983 94.2574 45.0549C91.4261 52.6889 82.4399 59.8724 60.5277 59.8724C43.5839 59.8724 33.3557 53.9545 31.1726 46.1155C30.8799 45.063 30.7295 43.9798 30.7295 42.8644C30.7295 36.3297 35.2807 28.4617 47.7051 27.2171C50.4265 26.9443 52.5383 26.8442 54.5872 27.2801C54.3262 26.9233 54.0808 26.5601 53.8515 26.1969C45.9332 13.7443 53.4085 1.19808 53.4085 1.19808C61.0262 17.3441 95.0322 5.65189 95.326 38.4735C95.3341 38.6156 95.3341 38.7673 95.3341 38.9094Z" fill="#FF6CA8"/>
<path d="M95.3341 38.9094C95.3341 40.903 95.0177 42.9983 94.2574 45.0549C91.4261 52.6889 82.4399 59.8724 60.5279 59.8724C53.3057 59.8724 47.3096 58.7973 42.6346 56.9538C45.6484 57.5075 48.9945 57.7997 52.665 57.7997C74.1736 57.7997 82.9936 50.403 85.77 42.5399C86.5206 40.4203 86.8305 38.2604 86.8305 36.2119C86.8305 36.0601 86.8305 35.91 86.8224 35.7599C86.711 22.9844 81.8782 16.7582 75.494 13.0566C85.6037 16.2206 95.1678 21.1329 95.326 38.4735C95.3341 38.6156 95.3341 38.7673 95.3341 38.9094Z" fill="#C1528F"/>
<path d="M124.205 103.406V111.292C124.205 113.659 122.711 115.92 119.989 118.001C111.169 124.725 89.4632 129.488 64.0875 129.488C38.7112 129.488 17.0051 124.725 8.18503 118.001C5.46383 115.92 3.96876 113.659 3.96876 111.292V103.358C4.07158 103.611 4.17441 103.841 4.27739 104.054C4.27739 104.078 4.29305 104.094 4.30096 104.118C4.46706 104.593 4.68852 105.051 4.97343 105.51C5.00507 105.565 5.02089 105.597 5.02089 105.597C5.25818 105.984 5.54292 106.364 5.8593 106.745C7.76566 108.982 11.0486 111.055 15.4229 112.874C26.3473 117.431 44.0743 120.39 64.0875 120.39C84.1009 120.39 101.828 117.431 112.753 112.874C117.126 111.055 120.409 108.982 122.315 106.745C122.632 106.364 122.917 105.984 123.155 105.597C123.155 105.597 123.169 105.565 123.21 105.494C123.471 105.082 123.676 104.664 123.826 104.244V104.236C123.946 103.991 124.071 103.715 124.205 103.406Z" fill="#FEB447"/>
<path d="M124.205 103.406V111.292C124.205 113.659 122.711 115.92 119.989 118.001C117.537 119.875 114.089 121.593 109.833 123.104C112.309 121.102 113.662 118.942 113.662 116.695V112.487C117.586 110.763 120.543 108.824 122.315 106.745C122.632 106.364 122.917 105.984 123.155 105.597C123.155 105.597 123.169 105.565 123.21 105.494C123.471 105.082 123.676 104.664 123.826 104.244V104.236C123.946 103.991 124.072 103.715 124.205 103.406Z" fill="#C7955A"/>
<path d="M12.1243 120.445C10.6134 119.67 9.30043 118.847 8.18503 118.001C5.46383 115.92 3.96876 113.659 3.96876 111.292V103.358C4.07158 103.611 4.17441 103.841 4.27723 104.054C4.27723 104.078 4.29305 104.094 4.30096 104.118C4.46706 104.593 4.68852 105.051 4.97343 105.51C5.00507 105.565 5.02089 105.597 5.02089 105.597C5.25818 105.984 5.54292 106.364 5.8593 106.745C6.33403 107.298 6.8877 107.836 7.52046 108.366V113.444C7.52046 115.811 9.01553 118.072 11.7367 120.153C11.8633 120.248 11.9979 120.35 12.1243 120.445Z" fill="#FFDE9C"/>
<path d="M54.5872 27.28C59.0722 28.2131 63.0908 30.436 71.1438 29.3528Z" fill="#FF6CA8"/>
<path d="M124.205 103.406C124.071 103.715 123.946 103.991 123.826 104.236V104.244C123.526 104.885 123.305 105.313 123.21 105.494C123.169 105.565 123.155 105.597 123.155 105.597C122.917 105.985 122.632 106.364 122.315 106.745C120.409 108.982 117.126 111.055 112.753 112.874C101.828 117.431 84.1009 120.39 64.0875 120.39C44.0743 120.39 26.3472 117.431 15.4229 112.874C11.0486 111.055 7.76566 108.982 5.8593 106.745C5.54292 106.364 5.25818 105.985 5.02089 105.597C5.02089 105.597 5.00506 105.565 4.97343 105.51C4.87851 105.321 4.62541 104.837 4.30096 104.118C4.29305 104.094 4.27739 104.078 4.27739 104.054C4.17441 103.841 4.07158 103.612 3.96876 103.358C1.43738 97.4014 -3.65684 80.9631 12.2431 72.0942C14.7189 78.6692 22.3525 83.5492 33.0315 86.6196H33.0394C41.7487 89.1185 52.4831 90.4002 64.0875 90.4002C75.6926 90.4002 86.4269 89.1185 95.1355 86.6196H95.1436C107.127 83.1779 115.284 77.4424 116.604 69.6034C133.603 77.9573 127.046 96.959 124.205 103.406Z" fill="#FF6CA8"/>
<path d="M124.205 103.406C124.071 103.715 123.946 103.991 123.826 104.236V104.244C123.526 104.885 123.305 105.313 123.21 105.494C123.169 105.565 123.155 105.597 123.155 105.597C122.917 105.985 122.632 106.364 122.315 106.745C120.409 108.982 117.126 111.055 112.753 112.874C101.828 117.431 84.1009 120.39 64.0875 120.39C44.0743 120.39 26.3472 117.431 15.4229 112.874C11.0486 111.055 7.76566 108.982 5.8593 106.745C5.54292 106.364 5.25818 105.985 5.02089 105.597C5.02089 105.597 5.00506 105.565 4.97343 105.51C4.87851 105.321 4.62541 104.837 4.30096 104.118C4.29305 104.094 4.27739 104.078 4.27739 104.054C4.17441 103.841 4.07158 103.612 3.96876 103.358C1.43738 97.4014 -3.65684 80.9631 12.2431 72.0942C14.7189 78.6692 22.3525 83.5492 33.0315 86.6196H33.0394C41.7487 89.1185 52.4831 90.4002 64.0875 90.4002C75.6926 90.4002 86.4269 89.1185 95.1355 86.6196H95.1436C95.539 86.5082 95.9345 86.3903 96.3219 86.2628C107.658 82.7985 115.331 77.1808 116.604 69.6034C118.985 70.7738 120.908 72.1588 122.443 73.6924C131.839 83.0439 126.651 97.8598 124.205 103.406Z" fill="#FF6CA8"/>
<path d="M124.205 103.406C124.071 103.715 123.946 103.991 123.826 104.236V104.244C123.526 104.885 123.305 105.313 123.21 105.494C123.169 105.565 123.155 105.597 123.155 105.597C122.917 105.985 122.632 106.364 122.315 106.745C120.409 108.982 117.126 111.055 112.753 112.874C101.828 117.431 84.1009 120.39 64.0875 120.39C63.0275 120.39 61.9676 120.382 60.9234 120.366C79.6312 120.074 96.0766 117.186 106.424 112.874C110.798 111.055 114.081 108.982 115.988 106.745C116.304 106.364 116.588 105.985 116.825 105.597C116.825 105.597 116.842 105.565 116.882 105.494C116.975 105.313 117.198 104.885 117.498 104.244V104.236C117.616 103.991 117.744 103.715 117.878 103.406C118.223 102.62 118.625 101.649 119.032 100.531C122.507 90.991 113.65 81.6492 103.897 84.4758C103.836 84.4952 103.773 84.5129 103.71 84.5307H103.702C101.386 85.1958 98.9175 85.7721 96.3219 86.2628C105.886 83.3361 112.846 78.8823 115.544 73.0128C115.679 72.727 115.805 72.4348 115.909 72.1346C116.012 71.8892 116.097 71.6439 116.17 71.3904C116.241 71.1935 116.296 70.9868 116.343 70.7818C116.391 70.6236 116.43 70.4654 116.462 70.3072C116.517 70.078 116.565 69.8407 116.604 69.6034C117.57 70.078 118.456 70.5833 119.271 71.1224C119.436 71.2322 119.602 71.3436 119.76 71.4534C119.942 71.5809 120.125 71.7068 120.291 71.8343C120.441 71.9441 120.583 72.0555 120.717 72.1669C120.892 72.3009 121.058 72.4349 121.216 72.5688C121.437 72.7513 121.644 72.9417 121.849 73.1225C122.055 73.313 122.252 73.5035 122.443 73.6924C131.839 83.0439 126.651 97.8598 124.205 103.406Z" fill="#C1528F"/>
<path d="M4.30096 104.118L4.2275 104.151C4.55244 104.872 4.807 105.358 4.90127 105.545L4.97342 105.51L5.04202 105.468C4.76003 105.013 4.5413 104.559 4.37714 104.091L4.30096 104.118L4.22476 104.144C4.39296 104.625 4.61717 105.089 4.90482 105.552L5.04558 105.474C4.94986 105.282 4.69821 104.803 4.37456 104.084L4.22476 104.144L4.30096 104.118Z" fill="#272727"/>
<path d="M123.826 104.244L123.75 104.217C123.602 104.63 123.4 105.045 123.142 105.45L123.21 105.494L123.281 105.531C123.376 105.348 123.599 104.921 123.9 104.278L123.826 104.244L123.753 104.21C123.453 104.85 123.232 105.276 123.138 105.457L123.277 105.537C123.542 105.121 123.75 104.696 123.902 104.272L123.753 104.21L123.826 104.244Z" fill="#272727"/>
<path d="M94.6674 43.9169C98.6028 45.3261 102.427 47.1132 105.975 49.4071C109.482 51.7349 112.814 54.5243 115.221 58.1871C116.388 60.0274 117.3 62.084 117.721 64.2746C118.12 66.4571 118.136 68.7526 117.5 70.9029C116.911 73.0595 115.779 75.0257 114.356 76.6497C112.932 78.2801 111.226 79.5877 109.421 80.6467C109.21 80.7726 108.937 80.7016 108.813 80.4885C108.703 80.3028 108.745 80.0688 108.9 79.9299L108.905 79.9267C110.422 78.5788 111.817 77.1324 112.935 75.5326C114.049 73.9313 114.871 72.1798 115.271 70.3459C115.465 69.4258 115.582 68.496 115.582 67.5565C115.536 66.6169 115.492 65.6774 115.268 64.7621C114.885 62.9235 114.138 61.1558 113.122 59.5206C111.064 56.25 108.017 53.5703 104.674 51.4217C101.292 49.2973 97.6294 47.5894 93.8474 46.1946L93.8409 46.193C93.213 45.9606 92.8918 45.2648 93.1226 44.6369C93.3535 44.0137 94.0427 43.6925 94.6674 43.9169Z" fill="#273351"/>
<path d="M25.9303 84.5403C23.7558 83.8138 21.6269 82.8921 19.6164 81.7104C17.6038 80.5352 15.6991 79.0969 14.0888 77.3018C13.2972 76.3962 12.5703 75.4164 11.9684 74.3477C11.3706 73.2758 10.9085 72.1216 10.5881 70.9238C9.94158 68.5201 10.0037 65.9744 10.5982 63.5917C11.1952 61.201 12.3517 59.0152 13.7637 57.0894C15.1762 55.1539 16.8679 53.4734 18.6715 51.9721C20.4811 50.474 22.4223 49.1633 24.4307 47.9832L25.9566 47.1373C26.4649 46.8548 27 46.6288 27.5201 46.3722C28.5592 45.8524 29.6368 45.4262 30.7093 44.9919C31.3311 44.7401 32.0392 45.0404 32.2912 45.6619C32.5362 46.2672 32.2594 46.9533 31.6718 47.2229L31.6358 47.239C29.6123 48.1624 27.6139 49.1164 25.6783 50.1819C23.7568 51.2667 21.9066 52.4677 20.1946 53.8285C16.8064 56.5551 13.9951 60.1145 13.0215 64.1842C12.5256 66.2004 12.517 68.3248 12.9769 70.3249C13.4573 72.3266 14.4658 74.2008 15.7816 75.8716C17.1159 77.5359 18.7546 78.9985 20.53 80.3125C22.3253 81.6007 24.2512 82.7484 26.2404 83.8155C26.4339 83.9172 26.5083 84.1561 26.4063 84.3498C26.3151 84.5241 26.1103 84.6 25.9303 84.5403Z" fill="#273351"/>
<path d="M59.3959 60.3777C56.4931 60.4342 53.5722 60.3309 50.6671 59.9467C47.7698 59.5351 44.8694 58.9087 42.0925 57.8352C39.3289 56.7601 36.614 55.3444 34.3498 53.2507C33.7926 52.7196 33.2358 52.1869 32.7617 51.5654C32.2418 50.9874 31.8331 50.3159 31.4063 49.6589C30.6437 48.2932 30.0042 46.8177 29.7251 45.2519C29.1466 42.0992 29.7154 38.9207 31.0044 36.065C31.6849 34.6509 32.5825 33.3514 33.6213 32.181C34.7078 31.0607 35.8937 30.0292 37.2221 29.2317C39.844 27.5674 42.8254 26.6634 45.7887 26.2066C47.2944 25.9919 48.7285 25.8401 50.2258 25.782C51.717 25.7158 53.2847 25.7723 54.8313 26.1194H54.8335L53.6302 27.9823C52.2234 25.987 51.1433 23.8449 50.3262 21.5671C49.5304 19.2829 49.1504 16.8728 49.0521 14.4707C48.9577 12.0622 49.2641 9.66015 49.8181 7.33558C50.3906 4.99487 51.1838 2.79461 52.3871 0.594341L52.3892 0.591093C52.7128 0.0277083 53.4318 -0.167595 53.9951 0.156876C54.2074 0.277948 54.3674 0.45712 54.4669 0.66052L54.4816 0.691198C55.9677 3.73735 58.7568 5.90532 61.977 7.34687C65.21 8.79811 68.7564 9.72796 72.3109 10.7563C75.8734 11.7749 79.4972 12.8645 82.9645 14.5321C84.6917 15.3812 86.3559 16.3966 87.9088 17.5895C89.452 18.8035 90.803 20.2612 91.983 21.8399C94.2461 25.0846 95.5504 28.8734 96.1089 32.6589L96.4188 35.5081L96.5237 38.3314C96.5802 40.3089 96.3316 42.2768 95.7812 44.1784C95.2211 46.0736 94.351 47.8848 93.2066 49.4878C92.0556 51.0875 90.6497 52.4839 89.0984 53.6429C85.9847 55.9788 82.3527 57.3574 78.7014 58.171C78.4222 58.2339 78.1462 58.058 78.0848 57.7803C78.0283 57.5269 78.1687 57.2751 78.4044 57.1847L78.4125 57.1814C81.8233 55.8803 85.1033 54.2725 87.8119 52.0141C89.1614 50.8857 90.3575 49.604 91.3406 48.1834C92.2945 46.7483 93.0564 45.1873 93.5197 43.5294C93.983 41.8748 94.1847 40.1298 94.1186 38.4122L93.9911 35.6953L93.6763 33.035C93.1194 29.5223 91.8958 26.163 89.8959 23.346C88.8499 21.9739 87.6521 20.7245 86.293 19.6413C84.9112 18.5839 83.4133 17.6622 81.8201 16.8792C78.6175 15.3327 75.1341 14.2722 71.5942 13.26C68.0526 12.2446 64.4239 11.2567 60.9158 9.6424C59.1688 8.83042 57.4647 7.80695 55.958 6.48969C54.4497 5.17728 53.1956 3.52748 52.3354 1.70495L54.4279 1.80505L54.4264 1.80827C53.4295 3.63241 52.6292 5.77941 52.1246 7.89412C51.6161 10.0282 51.3362 12.2236 51.4242 14.4029C51.5165 16.5774 51.8547 18.7437 52.5719 20.7987C52.7089 21.3266 52.978 21.8076 53.1732 22.3129C53.3945 22.8101 53.5674 23.3283 53.8618 23.7932C54.3964 24.744 54.911 25.7126 55.5439 26.5778C55.931 27.1073 55.8161 27.8499 55.287 28.2373C55.0153 28.4359 54.6874 28.5021 54.3803 28.4472L54.3406 28.4407H54.3386C53.0624 28.1889 51.7249 28.1695 50.343 28.2454C48.9613 28.3148 47.5308 28.4892 46.1876 28.7006C43.4877 29.172 40.8261 29.9565 38.5778 31.4062C37.4303 32.0938 36.4335 32.9752 35.513 33.9164C34.6431 34.9043 33.8978 35.9924 33.3033 37.1659C32.7399 38.3524 32.3448 39.6197 32.134 40.9192C31.9228 42.2235 31.8951 43.5472 32.1241 44.816C32.3341 46.0994 32.8499 47.3069 33.4649 48.4579C33.8205 49.0099 34.1473 49.5814 34.5916 50.0818C34.9809 50.6194 35.4732 51.0778 35.9383 51.5605C37.8555 53.4541 40.3021 54.844 42.8575 55.9255C45.4344 56.9813 48.1482 57.79 50.9336 58.3147C53.7217 58.8296 56.5554 59.1509 59.4119 59.3494L59.4217 59.351C59.7048 59.3704 59.9184 59.6158 59.8985 59.8999C59.8798 60.1663 59.6583 60.3713 59.3959 60.3777Z" fill="#273351"/>
<path d="M119.989 118.001C119.989 118.001 111.649 153.616 108.362 165.482C107.789 167.548 106.306 169.636 103.156 171.407C95.6972 175.623 81 178.495 64.0875 178.495C47.1752 178.495 32.4778 175.623 25.0183 171.407C21.87 169.636 20.3265 167.565 19.8133 165.482C16.9028 153.67 8.18503 118.001 8.18503 118.001C17.0051 124.725 38.711 129.488 64.0875 129.488C89.4632 129.488 111.169 124.725 119.989 118.001Z" fill="#FEB447"/>
<path d="M66.729 178.471C65.8589 178.487 64.9727 178.495 64.0875 178.495C47.1752 178.495 32.4778 175.623 25.0183 171.407C21.87 169.636 20.3275 167.563 19.8133 165.482C16.9021 153.67 8.18503 118.001 8.18503 118.001C9.80665 119.243 11.8712 120.415 14.3156 121.506C16.5858 130.785 22.7321 155.934 25.0895 165.482C25.6036 167.563 27.1461 169.636 30.2944 171.407C37.3662 175.402 50.9325 178.195 66.729 178.471Z" fill="#FFDE9C"/>
<path d="M119.989 118.001C119.989 118.001 111.644 153.615 108.362 165.482C107.792 167.547 106.306 169.636 103.156 171.407C96.2832 175.29 83.2777 178.036 68.051 178.44C79.339 177.404 89.2389 175.807 94.1944 171.938C99.4212 167.855 100.44 162.145 101.074 159.661C103.918 148.54 95.1742 137.923 83.707 138.415C75.8911 138.751 67.2245 138.515 58.1468 137.62C37.8884 135.626 20.2719 130.809 9.90947 125.073C8.86525 120.794 8.18503 118.001 8.18503 118.001C17.0051 124.725 38.711 129.488 64.0875 129.488C89.4632 129.488 111.169 124.725 119.989 118.001Z" fill="#C7955A"/>
<path d="M94.1476 215.715C93.1501 220.226 80.6917 224.813 64.0875 224.813C47.4836 224.813 35.3877 220.363 34.0282 215.715C33.9905 215.586 25.0183 171.407 25.0183 171.407C32.4778 175.623 47.1752 178.495 64.0875 178.495C81 178.495 95.6972 175.623 103.156 171.407C103.156 171.407 94.1767 215.585 94.1476 215.715Z" fill="#FEB447"/>
<path d="M103.156 171.407C103.156 171.407 102.24 175.909 100.997 182.04C100.759 183.21 100.508 184.443 100.246 185.717C100.001 186.928 99.7472 188.171 99.4938 189.436C99.3841 189.958 99.2727 190.495 99.1613 191.027C96.7658 202.845 94.1622 215.644 94.1476 215.715C93.1501 220.224 80.6917 224.813 64.0875 224.813C59.4837 224.813 55.2279 224.473 51.4468 223.879C50.4184 223.721 49.4216 223.54 48.4646 223.341C41.6222 221.926 36.7414 219.648 34.8192 217.18C34.4395 216.697 34.1704 216.206 34.0282 215.715C34.0282 215.707 33.9885 215.518 33.9175 215.178C32.8812 210.138 25.0183 171.407 25.0183 171.407C32.4778 175.623 47.1752 178.495 64.0875 178.495C70.8355 178.495 77.2341 178.036 82.9613 177.213C83.4439 177.15 83.9185 177.079 84.3931 177.008C84.7659 176.945 85.1211 176.889 85.4859 176.826H85.4923C86.2446 176.7 86.9806 176.564 87.707 176.43H87.7151C94.1864 175.197 99.5342 173.463 103.156 171.407Z" fill="#FEB447"/>
<path d="M66.2318 224.781C65.5264 224.805 64.8065 224.813 64.0875 224.813C47.4836 224.813 35.3887 220.368 34.0282 215.715C33.9885 215.589 25.0183 171.407 25.0183 171.407C26.4025 172.191 28.048 172.934 29.9069 173.615C31.7183 182.561 38.4342 215.604 38.4658 215.715C39.7631 220.153 50.8139 224.394 66.2318 224.781Z" fill="#FFDE9C"/>
<path d="M103.156 171.407C103.156 171.407 94.1783 215.581 94.1476 215.715C93.1501 220.224 80.6917 224.813 64.0875 224.813C62.5292 224.813 61.0183 224.773 59.547 224.702C67.4957 224.308 73.2374 222.499 77.4843 220.465C82.2607 218.179 85.6505 213.751 86.7062 208.562C86.7272 208.456 86.7482 208.351 86.7708 208.243C89.0032 197.264 80.9032 186.828 69.7088 186.397C67.0922 186.297 64.4013 186.119 61.659 185.861C46.7322 184.46 33.7591 180.971 26.1098 176.779C25.4454 173.503 25.0183 171.407 25.0183 171.407C32.4778 175.623 47.1752 178.495 64.0875 178.495C81 178.495 95.6972 175.623 103.156 171.407Z" fill="#C7955A"/>
<path d="M10.0588 120.67C12.2069 129.456 18.5635 155.451 20.9655 165.198C21.4522 167.176 23.0115 168.916 25.6002 170.373C33.1692 174.651 47.9161 177.308 64.0875 177.308C80.2591 177.308 95.0064 174.651 102.572 170.375C105.09 168.956 106.654 167.205 107.218 165.166C109.91 155.445 116.083 129.411 118.147 120.65C107.689 126.797 87.0791 130.675 64.0875 130.675C41.1208 130.675 20.5276 126.804 10.0588 120.67ZM64.0875 179.681C47.5309 179.681 32.3367 176.906 24.4341 172.44C21.2542 170.651 19.311 168.404 18.6613 165.766C15.7506 153.955 7.03249 118.282 7.03249 118.282C6.9132 117.795 7.11434 117.285 7.53548 117.008C7.95597 116.732 8.5048 116.753 8.90431 117.057C17.7251 123.782 39.9015 128.3 64.0875 128.3C88.272 128.3 110.449 123.782 119.271 117.057C119.67 116.753 120.214 116.732 120.635 117.005C121.055 117.278 121.26 117.783 121.145 118.272C121.061 118.628 112.761 154.045 109.505 165.799C108.766 168.469 106.825 170.704 103.738 172.441C95.8393 176.906 80.6449 179.681 64.0875 179.681Z" fill="#273351"/>
<path d="M38.9749 198.756C40.4299 200.961 42.2611 202.953 44.0904 204.921C45.9453 206.872 47.8449 208.789 49.8008 210.643C51.7606 212.493 53.757 214.303 55.8072 216.033C57.8727 217.733 59.9584 219.449 62.3053 220.612L62.3605 220.639C62.5665 220.741 62.6507 220.991 62.5489 221.196C62.4603 221.375 62.2603 221.462 62.0743 221.415C61.3892 221.243 60.6535 221.096 60.0167 220.8C59.6866 220.67 59.3559 220.532 59.0309 220.389L58.0918 219.909C56.8446 219.254 55.6642 218.503 54.5307 217.698C52.2544 216.095 50.1412 214.295 48.1354 212.39C46.1482 210.466 44.2533 208.445 42.5298 206.27C40.8262 204.091 39.1697 201.808 38.1701 199.122C38.0848 198.893 38.2014 198.638 38.4305 198.552C38.6274 198.48 38.8432 198.556 38.9541 198.723L38.9749 198.756Z" fill="#FFDE9C"/>
<path d="M62.5945 210.283C61.59 212.966 59.9366 215.252 58.2359 217.428C58.141 217.546 58.0461 217.665 57.9591 217.775C57.5715 218.25 57.1839 218.716 56.7885 219.175C55.4673 220.702 54.075 222.15 52.6276 223.551C52.3665 223.795 52.1054 224.04 51.8365 224.294C50.8082 224.136 49.8114 223.953 48.8542 223.756C49.5583 223.115 50.2623 222.458 50.9583 221.801C52.2954 220.544 53.6006 219.247 54.8819 217.933C55.3644 217.443 55.8392 216.954 56.3137 216.455C56.4324 216.327 56.551 216.209 56.6697 216.082C58.505 214.112 60.3323 212.119 61.7878 209.912L61.8115 209.88C61.946 209.675 62.2149 209.62 62.4205 209.754C62.5945 209.872 62.6657 210.094 62.5945 210.283Z" fill="#FFDE9C"/>
<path d="M51.4331 199.122C50.4363 201.812 48.7751 204.089 47.0744 206.273C46.8213 206.59 46.5682 206.898 46.3072 207.206C45.8246 207.801 45.3183 208.377 44.8042 208.947C43.7363 210.133 42.613 211.281 41.4659 212.388C39.5042 214.254 37.4396 216.019 35.209 217.593C34.8292 217.11 34.5603 216.621 34.4179 216.13C34.4179 216.122 34.3783 215.932 34.3071 215.593C36.1819 214.003 38.0091 212.333 39.8049 210.64C40.9913 209.517 42.1542 208.369 43.2934 207.206C43.8075 206.7 44.3058 206.186 44.8042 205.663C45.0415 205.419 45.2788 205.174 45.5163 204.921C47.3434 202.951 49.1708 200.958 50.6261 198.757L50.65 198.727C50.7845 198.52 51.0613 198.465 51.2591 198.599C51.441 198.711 51.5043 198.932 51.4331 199.122Z" fill="#FFDE9C"/>
<path d="M5.15535 107.742V111.292C5.15535 113.216 6.41716 115.155 8.90576 117.058C17.7251 123.782 39.9015 128.3 64.0875 128.3C88.272 128.3 110.449 123.782 119.271 117.057C121.758 115.155 123.019 113.216 123.019 111.292V107.742C120.984 110.015 117.687 112.107 113.208 113.97C101.789 118.732 83.4262 121.577 64.0875 121.577C44.7489 121.577 26.3858 118.732 14.9664 113.97C10.4806 112.104 7.18164 110.01 5.15535 107.742ZM64.0875 130.675C39.0366 130.675 16.8116 126.069 7.4659 118.944C4.35729 116.568 2.78216 113.995 2.78216 111.292V103.358C2.78216 102.79 3.18426 102.302 3.74164 102.194C4.30015 102.084 4.85527 102.386 5.06835 102.912C5.16068 103.14 5.25301 103.347 5.34582 103.539C5.3681 103.584 5.38715 103.631 5.40329 103.679C5.41362 103.705 5.42298 103.731 5.43025 103.754C5.55857 104.118 5.74211 104.498 5.98149 104.885C6.01168 104.937 6.03363 104.976 6.04912 105.005C6.23411 105.303 6.47043 105.624 6.77099 105.984C8.49915 108.014 11.6513 110.022 15.8787 111.78C27.0247 116.429 45.0462 119.204 64.0875 119.204C83.1292 119.204 101.15 116.429 112.294 111.78C116.524 110.022 119.676 108.014 121.413 105.975C121.702 105.626 121.936 105.308 122.12 105.011C122.134 104.987 122.152 104.953 122.176 104.909C122.406 104.546 122.57 104.22 122.69 103.897C122.707 103.834 122.73 103.774 122.759 103.718C122.871 103.486 122.992 103.224 123.119 102.932C123.342 102.417 123.899 102.131 124.448 102.244C124.998 102.359 125.394 102.843 125.394 103.405V111.292C125.394 113.995 123.818 116.569 120.711 118.944C111.363 126.069 89.1388 130.675 64.0875 130.675Z" fill="#273351"/>
<path d="M68.5385 181.097C69.9929 183.304 71.825 185.296 73.6538 187.264C75.5086 189.215 77.4085 191.13 79.3648 192.986C81.3245 194.836 83.3212 196.646 85.3713 198.376C87.4358 200.076 89.5213 201.791 91.8684 202.953L91.9249 202.98C92.1299 203.084 92.2138 203.332 92.1121 203.539C92.0233 203.718 91.8232 203.805 91.6376 203.758C90.9531 203.586 90.2171 203.437 89.5795 203.142C89.2502 203.013 88.9193 202.875 88.5948 202.732L87.6553 202.252C86.4076 201.597 85.2276 200.846 84.0944 200.041C81.8184 198.436 79.7055 196.638 77.699 194.733C75.7119 192.809 73.8169 190.788 72.0929 188.612C70.3899 186.432 68.7338 184.151 67.733 181.464C67.6491 181.234 67.7653 180.979 67.9945 180.895C68.1914 180.821 68.4061 180.897 68.5175 181.065L68.5385 181.097Z" fill="#FEB447"/>
<path d="M99.9894 189.93C99.878 190.452 99.7666 190.991 99.6569 191.521L98.8175 191.093C98.3752 190.855 97.9313 190.61 97.5051 190.358C96.8482 189.963 96.2154 189.551 95.5988 189.123C95.4793 189.044 95.3696 188.957 95.2501 188.878C92.9806 187.28 90.8595 185.477 88.8579 183.57C87.7118 182.463 86.5964 181.315 85.5279 180.129C85.0065 179.559 84.4996 178.982 84.017 178.388C83.82 178.167 83.6376 177.938 83.4568 177.709C83.9379 177.644 84.4124 177.573 84.887 177.502C85.2599 177.439 85.615 177.384 85.9798 177.32H85.9879C86.3269 177.676 86.6755 178.033 87.0323 178.388C88.1703 179.551 89.3341 180.698 90.5205 181.83C92.4818 183.673 94.4834 185.485 96.5318 187.217C96.698 187.359 96.8724 187.494 97.0386 187.637C97.5762 188.079 98.1218 188.523 98.6754 188.949C99.1113 189.29 99.5455 189.622 99.9894 189.93Z" fill="#FEB447"/>
<path d="M101.492 182.534C101.255 183.704 101.001 184.939 100.74 186.213C100.17 187.034 99.5616 187.825 98.9531 188.61C98.8659 188.72 98.7707 188.839 98.6755 188.949C98.2961 189.423 97.9006 189.898 97.5052 190.358C96.1912 191.884 94.7917 193.332 93.3518 194.731C91.4132 196.567 89.389 198.3 87.205 199.858C87.1259 199.921 87.0388 199.978 86.9532 200.041C86.4851 200.373 86.0105 200.698 85.5279 201.006C84.8402 201.448 84.1284 201.868 83.3923 202.255L82.4512 202.73C82.1268 202.872 81.7942 203.014 81.4698 203.142C80.829 203.434 80.0945 203.584 79.4133 203.758C79.1841 203.813 78.963 203.679 78.9081 203.458C78.8596 203.26 78.9549 203.063 79.1211 202.983L79.176 202.951C80.837 202.128 82.364 201.037 83.8443 199.858C84.4125 199.416 84.9742 198.956 85.5279 198.505C85.5763 198.459 85.6312 198.418 85.678 198.38C87.728 196.646 89.7215 194.835 91.6828 192.983C93.0113 191.725 94.3171 190.436 95.5988 189.123C96.0895 188.633 96.5641 188.134 97.0387 187.636C97.1565 187.517 97.2759 187.391 97.3938 187.264C98.8175 185.73 100.241 184.187 101.492 182.534Z" fill="#FEB447"/>
<path d="M88.2025 176.924C88.075 177.098 87.933 177.281 87.799 177.455C87.5456 177.772 87.2921 178.08 87.0323 178.388C86.5496 178.982 86.0428 179.559 85.5278 180.128C84.4528 181.315 83.3374 182.463 82.1897 183.57C80.1816 185.477 78.0687 187.28 75.7991 188.878C75.6797 188.957 75.5699 189.044 75.4504 189.123C74.8257 189.551 74.193 189.969 73.536 190.358C73.1099 190.618 72.674 190.863 72.2318 191.093L71.2971 191.567C70.9743 191.717 70.6418 191.853 70.3092 191.987C69.6765 192.279 68.9404 192.423 68.2528 192.596C68.03 192.652 67.8008 192.516 67.7459 192.295C67.6991 192.106 67.7927 191.908 67.9671 191.821L68.0236 191.797C69.557 191.03 70.9888 190.034 72.3738 188.949C72.9275 188.523 73.465 188.079 74.0106 187.636C74.1769 187.494 74.3512 187.359 74.5174 187.217C76.5659 185.485 78.5675 183.673 80.5206 181.83C81.7087 180.698 82.8789 179.551 84.017 178.388C84.3188 178.096 84.6029 177.802 84.887 177.502C85.2599 177.439 85.615 177.384 85.9798 177.32H85.9879C86.7385 177.194 87.4745 177.06 88.2025 176.924Z" fill="#FEB447"/>
<path d="M26.6685 173.571C28.5256 182.716 35.0532 214.85 35.1854 215.452C36.178 218.839 46.791 223.627 64.0875 223.627C80.8661 223.627 92.2219 218.875 92.987 215.465C93.1049 214.895 99.6456 182.724 101.505 173.571C93.1727 177.371 79.197 179.681 64.0875 179.681C48.9771 179.681 35.0019 177.371 26.6685 173.571ZM64.0875 226C47.9613 226 34.5488 221.721 32.8894 216.048C32.8702 215.983 32.8374 215.872 23.8551 171.644C23.7628 171.189 23.9447 170.72 24.3205 170.448C24.6971 170.175 25.1978 170.146 25.6021 170.375C33.1691 174.651 47.9161 177.308 64.0875 177.308C80.2591 177.308 95.0064 174.651 102.572 170.375C102.977 170.146 103.478 170.175 103.854 170.448C104.23 170.72 104.412 171.189 104.319 171.644C102.22 181.972 95.3841 215.594 95.305 215.972C94.0621 221.595 80.3495 226 64.0875 226Z" fill="#273351"/>
<path d="M54.8289 26.1178C56.2603 26.4794 57.6077 26.9476 58.9302 27.3753C60.2521 27.808 61.5586 28.1889 62.8925 28.4617C65.5539 29.03 68.3173 29.0978 71.076 28.8508L71.0825 28.8492C71.3617 28.825 71.6087 29.03 71.6329 29.3092C71.6571 29.5756 71.4699 29.8113 71.2116 29.8549C69.8056 30.0873 68.3835 30.2601 66.9453 30.3198C65.5087 30.3731 64.0573 30.3101 62.6199 30.1341C61.1828 29.9582 59.7604 29.6644 58.3828 29.3335C57.0033 29.0058 55.661 28.6619 54.3454 28.4424C53.6983 28.3342 53.2602 27.724 53.3667 27.0767C53.4734 26.4294 54.0845 25.9919 54.7317 26.0984C54.763 26.1033 54.7987 26.1113 54.8289 26.1178Z" fill="#273351"/>
<path d="M64.0875 121.577C44.7489 121.577 26.3858 118.732 14.9664 113.97C10.3303 112.043 6.96212 109.87 4.95601 107.513C4.56392 107.043 4.2569 106.622 4.00847 106.215C3.9912 106.188 3.97458 106.157 3.95957 106.128C3.94875 106.109 3.92244 106.062 3.91243 106.041L3.86061 105.939C3.736 105.694 3.50404 105.237 3.21946 104.606L3.20783 104.58C3.1975 104.556 3.18749 104.532 3.17765 104.506C3.07466 104.289 2.97184 104.057 2.86918 103.804C0.631263 98.5377 -5.3711 80.5611 11.6651 71.0578C12.2368 70.7398 12.9603 70.9448 13.2793 71.5162C13.5982 72.0893 13.3932 72.8125 12.8207 73.1305C-2.06976 81.436 2.43351 96.712 5.06061 102.893C5.16069 103.14 5.25302 103.347 5.34583 103.539C5.36553 103.579 5.38279 103.621 5.39748 103.663C5.6543 104.231 5.86302 104.641 5.97601 104.864L6.03428 104.979L6.0514 105.008C6.23606 105.305 6.47173 105.624 6.771 105.984C8.49916 108.014 11.6513 110.022 15.8788 111.78C27.0247 116.429 45.0467 119.204 64.0875 119.204C83.1292 119.204 101.15 116.429 112.294 111.78C116.524 110.022 119.676 108.014 121.413 105.975C121.702 105.626 121.936 105.308 122.122 105.011C122.134 104.987 122.152 104.953 122.176 104.909C122.246 104.775 122.446 104.388 122.719 103.81C122.73 103.779 122.745 103.749 122.759 103.718C122.871 103.485 122.992 103.224 123.119 102.932C126.256 95.808 131.845 78.4157 116.081 70.6671C115.492 70.3782 115.25 69.6679 115.539 69.0787C115.828 68.4911 116.541 68.2505 117.127 68.5379C135.23 77.4342 127.954 97.842 125.292 103.884C125.166 104.173 125.045 104.44 124.93 104.68C124.921 104.703 124.911 104.725 124.901 104.748C124.59 105.413 124.36 105.855 124.26 106.043L123.16 105.586L124.214 106.13C124.201 106.156 124.181 106.191 124.167 106.215C123.918 106.62 123.611 107.042 123.229 107.503C121.213 109.87 117.844 112.043 113.208 113.97C101.789 118.732 83.4262 121.577 64.0875 121.577Z" fill="#273351"/>
<path d="M49.0835 89.1862C52.3467 89.2233 55.5878 89.2814 58.8287 89.2782C62.0685 89.2685 65.3053 89.233 68.5385 89.1281C71.7717 89.0296 75.0001 88.8714 78.2285 88.6648C81.4585 88.4533 84.682 88.1756 87.9346 87.898C88.1654 87.877 88.3704 88.0481 88.3914 88.279C88.4092 88.4808 88.28 88.6632 88.0928 88.7197C84.9387 89.6672 81.699 90.3065 78.4399 90.7521C76.8112 90.9813 75.1728 91.1379 73.5344 91.2848C71.8944 91.3962 70.2528 91.4995 68.6095 91.5398C65.323 91.6205 62.0352 91.5769 58.757 91.3396C55.4798 91.112 52.2101 90.723 48.9885 90.0644C48.7482 90.0159 48.5932 89.7819 48.6423 89.5413C48.6856 89.3283 48.8746 89.183 49.0835 89.1862Z" fill="#273351"/>
<path d="M38.5852 198.341C40.0403 200.546 41.8714 202.538 43.7006 204.506C45.5555 206.457 47.4552 208.374 49.4111 210.228C51.3709 212.078 53.3672 213.89 55.4174 215.62C57.483 217.318 59.5687 219.034 61.9156 220.197L61.9708 220.224C62.1768 220.326 62.2611 220.576 62.159 220.783C62.0704 220.96 61.8704 221.047 61.6845 221.001C60.9996 220.828 60.2638 220.681 59.6269 220.386C59.2969 220.255 58.966 220.118 58.6412 219.974L57.7019 219.496C56.4548 218.839 55.2744 218.09 54.1409 217.283C51.8645 215.68 49.7516 213.88 47.7458 211.975C45.7584 210.051 43.8636 208.03 42.14 205.855C40.4364 203.676 38.7799 201.393 37.7802 198.707C37.695 198.478 37.8117 198.223 38.0406 198.137C38.2375 198.065 38.4534 198.141 38.5643 198.309L38.5852 198.341Z" fill="#273351"/>
<path d="M62.2049 209.87C61.2002 212.551 59.5469 214.837 57.8462 217.013C57.7513 217.131 57.6564 217.251 57.5694 217.36C57.1818 217.835 56.7941 218.303 56.3986 218.762C55.0776 220.289 53.6853 221.735 52.2377 223.136C51.9767 223.382 51.7157 223.627 51.4468 223.879C50.4184 223.721 49.4216 223.54 48.4646 223.341C49.1685 222.7 49.8726 222.045 50.5687 221.388C51.9055 220.13 53.2108 218.833 54.4921 217.519C54.9747 217.029 55.4493 216.539 55.9241 216.04C56.0427 215.914 56.1614 215.794 56.28 215.669C58.1152 213.697 59.9424 211.705 61.3979 209.497L61.4217 209.466C61.5561 209.26 61.8252 209.205 62.0309 209.339C62.2049 209.458 62.2761 209.68 62.2049 209.87Z" fill="#273351"/>
<path d="M51.0434 198.707C50.0466 201.397 48.3855 203.676 46.6848 205.859C46.4315 206.175 46.1784 206.483 45.9174 206.792C45.4349 207.386 44.9287 207.964 44.4144 208.532C43.3466 209.718 42.2233 210.866 41.0763 211.974C39.1145 213.841 37.0498 215.604 34.8192 217.18C34.4395 216.697 34.1704 216.206 34.0282 215.715C34.0282 215.707 33.9885 215.518 33.9175 215.178C35.792 213.588 37.6195 211.919 39.4151 210.225C40.6017 209.102 41.7645 207.956 42.9035 206.792C43.4178 206.286 43.9161 205.771 44.4144 205.25C44.6517 205.005 44.889 204.759 45.1264 204.506C46.9537 202.536 48.781 200.543 50.2365 198.344L50.2602 198.312C50.3947 198.107 50.6715 198.05 50.8692 198.186C51.0513 198.296 51.1144 198.517 51.0434 198.707Z" fill="#273351"/>
<path d="M68.0445 180.603C69.4989 182.808 71.331 184.8 73.1599 186.768C75.0146 188.72 76.9145 190.636 78.8693 192.491C80.8306 194.341 82.8257 196.152 84.8757 197.882C86.9419 199.581 89.0274 201.297 91.3744 202.459L91.4293 202.486C91.6359 202.588 91.7199 202.838 91.6182 203.045C91.5294 203.222 91.3292 203.31 91.1436 203.263C90.4592 203.09 89.7231 202.943 89.0855 202.648C88.7562 202.517 88.4253 202.38 88.1009 202.236L87.1614 201.757C85.9136 201.101 84.7337 200.352 83.6005 199.545C81.3229 197.942 79.2099 196.142 77.2051 194.237C75.218 192.313 73.323 190.292 71.599 188.118C69.896 185.938 68.2383 183.656 67.2391 180.969C67.1535 180.74 67.2714 180.485 67.499 180.4C67.6959 180.327 67.9122 180.403 68.0236 180.571L68.0445 180.603Z" fill="#273351"/>
<path d="M99.4938 189.436C99.3841 189.958 99.2727 190.495 99.1613 191.026L98.3235 190.599C97.8812 190.361 97.4373 190.116 97.0096 189.863C96.3542 189.467 95.7215 189.055 95.1032 188.629C94.9854 188.55 94.874 188.463 94.7562 188.384C92.485 186.786 90.3656 184.983 88.364 183.076C87.2179 181.969 86.1025 180.821 85.0339 179.634C84.5125 179.065 84.0057 178.487 83.523 177.894C83.3261 177.673 83.1437 177.442 82.9613 177.213C83.4439 177.15 83.9185 177.079 84.3931 177.008C84.7659 176.945 85.1211 176.889 85.4859 176.826H85.4923C85.8329 177.182 86.1816 177.538 86.5367 177.894C87.6763 179.057 88.8386 180.204 90.025 181.336C91.9878 183.178 93.9894 184.991 96.0378 186.723C96.2041 186.865 96.3768 186.999 96.5431 187.141C97.0822 187.585 97.6278 188.027 98.1815 188.455C98.6157 188.796 99.0515 189.128 99.4938 189.436Z" fill="#273351"/>
<path d="M100.997 182.04C100.759 183.21 100.508 184.444 100.246 185.717C99.6762 186.54 99.0677 187.331 98.4575 188.114C98.3704 188.226 98.2767 188.344 98.1815 188.455C97.8022 188.93 97.4067 189.404 97.0096 189.863C95.6973 191.39 94.2977 192.838 92.8579 194.237C90.9192 196.073 88.8951 197.805 86.7111 199.364C86.632 199.427 86.5448 199.482 86.4576 199.547C85.9911 199.878 85.5165 200.202 85.0339 200.51C84.3463 200.954 83.6344 201.372 82.8983 201.762L81.9573 202.236C81.6328 202.378 81.3003 202.52 80.9758 202.646C80.335 202.94 79.5989 203.09 78.9194 203.264C78.6901 203.319 78.469 203.185 78.4125 202.964C78.3657 202.766 78.4609 202.567 78.6272 202.488L78.6821 202.457C80.3431 201.634 81.8701 200.543 83.3487 199.364C83.9185 198.92 84.4802 198.462 85.0339 198.012C85.0823 197.963 85.1372 197.924 85.184 197.884C87.2324 196.152 89.226 194.341 91.1888 192.489C92.5173 191.232 93.8232 189.942 95.1032 188.629C95.5939 188.139 96.0685 187.64 96.5431 187.141C96.6625 187.023 96.7804 186.897 96.8998 186.77C98.3235 185.235 99.7473 183.693 100.997 182.04Z" fill="#273351"/>
<path d="M87.707 176.43C87.5811 176.605 87.4391 176.787 87.3051 176.961C87.0516 177.276 86.7982 177.586 86.5367 177.894C86.0541 178.487 85.5488 179.065 85.0339 179.635C83.9589 180.821 82.8435 181.969 81.6958 183.076C79.6861 184.983 77.5747 186.786 75.3052 188.384C75.1857 188.463 75.0744 188.55 74.9565 188.629C74.3318 189.056 73.6991 189.475 73.0421 189.863C72.6143 190.124 72.1801 190.37 71.7362 190.599L70.8032 191.073C70.4788 191.224 70.1462 191.358 69.8153 191.493C69.1826 191.785 68.4465 191.927 67.7572 192.102C67.5361 192.157 67.3069 192.023 67.252 191.801C67.2036 191.611 67.2988 191.414 67.4731 191.327L67.528 191.303C69.0631 190.536 70.4949 189.538 71.8799 188.455C72.4335 188.027 72.9711 187.585 73.5167 187.141C73.6829 186.999 73.8573 186.865 74.0235 186.723C76.0719 184.991 78.0735 183.178 80.0267 181.336C81.2131 180.204 82.3834 179.057 83.523 177.894C83.8233 177.601 84.109 177.308 84.3931 177.008C84.7659 176.945 85.1211 176.889 85.4859 176.826H85.4923C86.2446 176.7 86.9806 176.564 87.707 176.43Z" fill="#273351"/>
<path d="M32.4778 107.689C32.4778 107.689 27.9451 110.356 27.9451 119.39C27.9451 122.15 25.7143 124.381 22.9536 124.381C20.193 124.381 17.9622 122.15 17.9622 119.39C17.9622 114.581 18.6978 111.51 13.4612 109.042L32.4778 107.689Z" fill="#FF6CA8"/>
<path d="M32.4778 107.694C32.4778 107.694 27.9792 110.34 27.9453 119.283C27.9368 121.537 26.4619 123.598 24.2903 124.195C23.2869 124.471 22.2929 124.42 21.4032 124.132C23.4046 123.483 24.8443 121.609 24.8443 119.386C24.8443 116.49 25.311 114.25 25.9448 112.54C26.9686 109.781 29.5422 107.902 32.4778 107.694Z" fill="#C1528F"/>
<path d="M116.795 105.51C116.795 105.51 119.264 120.292 108.979 123.95C104.722 125.464 102.068 124.623 99.7053 123.784C97.0193 122.828 94.7094 121.871 90.8515 124.381C83.8588 128.93 88.3479 140.943 80.4189 139.641C72.1963 138.288 81.1017 124.384 67.2584 120.955C63.468 120.017 59.7667 120.821 56.1809 121.624C48.1926 123.414 40.7773 125.204 34.226 107.733L116.795 105.51Z" fill="#FF6CA8"/>
<path d="M93.4422 123.104C92.6513 123.357 91.7974 123.761 90.8482 124.378C83.8556 128.927 88.3478 140.942 80.4222 139.637C79.9637 139.558 79.5521 139.447 79.197 139.297C82.9694 137.216 80.7789 128.182 86.632 124.378C89.4955 122.518 91.5052 122.566 93.4422 123.104Z" fill="#C1528F"/>
<path d="M117.016 110.826C116.754 115.446 115.205 121.735 108.979 123.95C106.265 124.915 104.201 124.923 102.445 124.583C103.165 124.449 103.931 124.242 104.763 123.95C110.078 122.059 111.984 117.194 112.587 112.939L112.591 112.902C112.895 110.834 113.849 108.932 115.326 107.455C115.562 107.221 115.783 106.984 115.988 106.745C116.296 106.372 116.58 106.001 116.809 105.621C116.882 106.104 117.158 108.191 117.016 110.826Z" fill="#C1528F"/>
<path d="M117.574 106.995C118.004 109.546 118.047 112.18 117.618 114.815C117.355 116.122 117.014 117.438 116.451 118.699C115.854 119.935 115.161 121.18 114.157 122.2C113.707 122.755 113.11 123.164 112.574 123.637C112.283 123.843 111.975 124.024 111.675 124.216C111.371 124.405 111.074 124.61 110.743 124.738C110.097 125.023 109.447 125.341 108.788 125.509L107.8 125.808C107.466 125.895 107.116 125.945 106.774 126.013C106.093 126.173 105.373 126.189 104.662 126.237C103.952 126.216 103.226 126.211 102.53 126.073C101.123 125.858 99.8086 125.39 98.6432 124.98C97.4713 124.563 96.4382 124.263 95.4697 124.279C94.5044 124.287 93.5342 124.642 92.5657 125.144C92.0847 125.425 91.5891 125.698 91.2001 126.008C90.8111 126.341 90.435 126.684 90.1202 127.099C89.4649 127.9 88.9919 128.896 88.6126 129.971C88.2397 131.057 87.9717 132.225 87.7135 133.45C87.4439 134.677 87.2131 135.955 86.7175 137.324C86.4641 138.005 86.1396 138.725 85.594 139.415C85.0614 140.101 84.2397 140.711 83.3632 140.989C82.4867 141.274 81.6473 141.289 80.8774 141.234C80.13 141.163 79.3536 141.019 78.5739 140.685C77.8007 140.346 77.0485 139.812 76.4932 139.126C75.9509 138.438 75.6151 137.686 75.3778 136.969C74.9291 135.529 74.8209 134.205 74.6821 132.945C74.4319 130.444 74.1575 128.089 73.034 126.268C71.9654 124.431 70.0381 123.23 67.825 122.539C65.6233 121.806 63.3109 121.741 60.9195 122.047C58.531 122.35 56.1115 122.997 53.5645 123.472C51.0415 123.94 48.2378 124.231 45.5201 123.412C42.7981 122.61 40.5909 120.718 39.0264 118.619C37.4037 116.526 36.2882 114.17 35.3793 111.788C35.2831 111.534 35.4095 111.252 35.6618 111.157C35.8892 111.069 36.1412 111.163 36.2594 111.368L36.2655 111.378C36.5796 111.92 36.9033 112.454 37.2038 112.998L38.1932 114.569C38.9078 115.573 39.6093 116.577 40.4219 117.464C42.0139 119.267 43.9679 120.634 46.1398 121.188C48.3224 121.753 50.6935 121.475 53.0894 120.994C55.4947 120.516 57.952 119.816 60.5678 119.443C63.1599 119.062 66.0155 119.091 68.6321 119.927C69.9348 120.327 71.2342 120.868 72.4303 121.669C73.6248 122.463 74.6886 123.541 75.4537 124.786C76.2317 126.027 76.7111 127.396 77.0065 128.726C77.31 130.06 77.4617 131.376 77.607 132.62C77.7523 133.86 77.8992 135.066 78.2236 136.033C78.3883 136.509 78.5933 136.914 78.837 137.218C79.0889 137.508 79.3907 137.713 79.77 137.881C79.9702 137.952 80.1671 138.033 80.4109 138.07C80.6304 138.133 80.8871 138.152 81.1356 138.185C81.6183 138.218 82.0622 138.194 82.3915 138.084C82.7208 137.975 82.9581 137.805 83.2034 137.502C83.4456 137.2 83.6635 136.762 83.8459 136.264C84.2155 135.259 84.4528 134.047 84.7175 132.812C84.9806 131.571 85.2728 130.271 85.7167 128.97C86.1751 127.674 86.7853 126.349 87.7264 125.188C88.1784 124.596 88.7353 124.081 89.3147 123.608C89.9201 123.138 90.5351 122.805 91.1485 122.461C92.4059 121.816 93.87 121.28 95.4487 121.28C97.0225 121.275 98.4381 121.754 99.631 122.184C102.007 123.091 104.039 123.609 106.28 123.162C108.519 122.733 110.666 121.906 112.172 120.293C113.754 118.757 114.764 116.608 115.407 114.324C116.028 112.022 116.317 109.568 116.359 107.09V107.085C116.364 106.748 116.643 106.478 116.98 106.485C117.281 106.49 117.526 106.709 117.574 106.995Z" fill="#273351"/>
<path d="M32.6652 108.009C31.5724 109.14 30.8255 110.63 30.2902 112.101C29.7797 113.605 29.4827 115.181 29.3384 116.781C29.3127 117.184 29.2685 117.583 29.256 117.988L29.2441 119.204L29.2237 119.948C29.2016 120.214 29.1658 120.484 29.1148 120.749C29.0021 121.277 28.8341 121.796 28.5905 122.281C27.6302 124.234 25.5849 125.601 23.4006 125.738C21.2272 125.905 19.0083 124.825 17.7948 123.035C17.1759 122.147 16.8205 121.088 16.7201 120.024C16.7117 119.77 16.6929 119.46 16.7028 119.254L16.7215 118.6L16.769 117.318C16.8277 115.625 16.8963 114.045 16.3659 112.774C15.8668 111.483 14.6287 110.435 13.2516 109.487L13.2357 109.476C13.0105 109.321 12.9537 109.013 13.1088 108.787C13.2362 108.603 13.4676 108.532 13.6707 108.598C14.5157 108.874 15.3659 109.2 16.1514 109.738C16.9365 110.257 17.6723 110.971 18.1819 111.859C18.6865 112.747 18.9541 113.736 19.0687 114.666C19.1896 115.602 19.2048 116.492 19.208 117.354L19.2151 118.632L19.2237 119.26C19.2242 119.48 19.2492 119.596 19.2555 119.769C19.3481 120.398 19.5825 121.001 19.961 121.503C20.6966 122.531 21.9686 123.099 23.2096 122.989C24.452 122.931 25.6154 122.16 26.1962 121.052C26.3495 120.781 26.4562 120.486 26.5374 120.184C26.5728 120.03 26.6004 119.875 26.6217 119.719C26.6307 119.549 26.6488 119.438 26.6583 119.183L26.7269 117.84C26.7595 117.391 26.8254 116.942 26.8741 116.495C27.1267 114.708 27.6238 112.923 28.4867 111.295C29.3779 109.692 30.5543 108.198 32.2901 107.371C32.4738 107.282 32.6933 107.361 32.7808 107.544C32.8486 107.688 32.8169 107.851 32.7138 107.959L32.6652 108.009Z" fill="#273351"/>
<path d="M24.6318 76.2058C24.6141 76.2058 24.5963 76.2058 24.5799 76.2042C21.6913 75.9879 19.2393 74.0104 17.9313 71.3242C17.2941 69.986 16.9472 68.5073 16.8894 67.0609C16.8337 65.6097 17.0603 64.2117 17.4064 62.8993C18.1126 60.2664 19.4492 58.0258 21.0908 56.1661C21.9165 55.2363 22.8294 54.4017 23.8402 53.6833C24.8515 52.965 25.9269 52.3451 27.1908 51.9254C27.2543 51.9044 27.3185 51.8947 27.3818 51.8947C27.6357 51.8947 27.8722 52.0561 27.9566 52.3096C27.9884 52.4064 27.995 52.5049 27.9798 52.5969L27.9726 52.6405C27.5643 55.0878 26.9991 57.196 26.5177 59.1864C26.0346 61.1688 25.6062 63.009 25.3648 64.6766C25.1135 66.3716 25.0858 67.768 24.9792 69.2999C24.9243 70.0828 24.9363 70.9126 24.9784 71.9086C25.0007 72.9207 25.1934 73.9991 25.3009 75.4277L25.3046 75.4794C25.3329 75.8507 25.0535 76.1768 24.6811 76.2042C24.6651 76.2058 24.6485 76.2058 24.6318 76.2058Z" fill="#FFA7CB"/>
<path d="M16.1322 102.462C16.1099 102.462 16.0876 102.461 16.0655 102.459C13.913 102.288 11.7671 101.245 10.1418 99.6C8.48688 97.9728 7.41974 95.8226 6.86801 93.6692C6.31999 91.506 6.27334 89.3025 6.6685 87.2282C6.85946 86.1902 7.17794 85.1829 7.5973 84.2175C8.02845 83.2489 8.53628 82.3385 9.29382 81.4765C9.46589 81.2811 9.7064 81.1811 9.94805 81.1811C10.1522 81.1811 10.3572 81.2521 10.5227 81.399C10.6625 81.5217 10.7534 81.6783 10.794 81.8461L10.8121 81.922C11.2904 83.8882 11.5083 85.7172 11.755 87.4429C11.9969 89.1702 12.2045 90.799 12.5138 92.3471C12.8399 93.8919 13.2749 95.3286 13.9357 96.7315C14.5861 98.152 15.5277 99.4999 16.7667 101.042L16.7964 101.079C17.0908 101.445 17.0326 101.979 16.6663 102.275C16.5093 102.401 16.3196 102.462 16.1322 102.462Z" fill="#FFA7CB"/>
<path d="M46.8233 50.1432C46.5908 50.1432 46.3595 50.1319 46.1282 50.1141C45.7342 50.0818 45.3269 50.0641 44.9529 49.9511C44.2055 49.7251 43.4083 49.5217 42.7237 49.081C41.2672 48.3417 40.0535 47.0809 39.1597 45.6522C38.2525 44.2171 37.7783 42.5238 37.8106 40.882C37.8287 40.4704 37.8684 40.062 37.9287 39.66C38.0154 39.2565 38.0977 38.861 38.242 38.4735C38.5169 37.6955 38.8981 36.9835 39.5349 36.2975C39.7127 36.1054 39.9546 36.0085 40.1968 36.0085C40.4167 36.0085 40.637 36.0876 40.8109 36.249C40.8748 36.3088 40.9282 36.375 40.971 36.446L41.0809 36.6316C41.8511 37.9295 42.3219 39.0595 42.8154 40.0539C43.278 41.0564 43.6874 41.9442 44.1311 42.8273C44.5957 43.6941 45.0604 44.5917 45.7213 45.507C46.0055 46.0042 46.4065 46.4352 46.7513 46.984C47.1251 47.5054 47.5556 48.0075 47.9511 48.6774L48.0123 48.7807C48.263 49.2053 48.1219 49.7525 47.6973 50.0044C47.5769 50.0754 47.4425 50.1141 47.312 50.1254C47.1484 50.1384 46.9855 50.1432 46.8233 50.1432Z" fill="#FFA7CB"/>
<path d="M51.7378 119.22C51.435 119.22 51.132 119.207 50.8295 119.181C49.5621 119.099 48.3187 118.736 47.134 118.25C45.9574 117.735 44.8483 117.047 43.8879 116.187C42.9339 115.302 42.1132 114.34 41.5878 113.032C41.4222 112.621 41.6219 112.153 42.0341 111.986C42.1323 111.948 42.2338 111.928 42.3336 111.928C42.4779 111.928 42.6186 111.967 42.7413 112.04L42.8824 112.124C43.777 112.656 44.7255 113.236 45.6567 113.696C46.5913 114.174 47.5279 114.606 48.4898 114.992C49.4634 115.351 50.4326 115.722 51.4516 116.053C51.7023 116.148 51.9574 116.237 52.2181 116.313L52.9979 116.59C53.5238 116.782 54.0642 116.936 54.6145 117.21L54.6957 117.251C55.1078 117.456 55.2753 117.958 55.0697 118.369C54.9654 118.579 54.7822 118.726 54.5756 118.792C53.6535 119.084 52.6975 119.22 51.7378 119.22Z" fill="#FFA7CB"/>
<path d="M101.46 105.923C102.214 105.773 102.98 105.639 103.767 105.528L103.868 105.513C103.907 105.507 103.946 105.505 103.984 105.505C104.252 105.505 104.496 105.633 104.651 105.838L101.46 105.923Z" fill="#FFA7CB"/>
<path d="M87.6505 113.594C87.2825 113.594 86.9161 113.585 86.5496 113.567C84.364 113.505 82.1881 113.144 80.0945 112.49C79.6635 112.356 79.4246 111.898 79.5586 111.467C79.6425 111.197 79.8524 111.002 80.1042 110.927L80.1639 110.91C81.2034 110.606 82.2236 110.425 83.2308 110.209C84.2365 109.949 85.2357 109.812 86.2187 109.567C88.1961 109.181 90.1251 108.692 92.0459 108.241C93.9668 107.768 95.8409 107.202 97.7731 106.751C98.9773 106.464 100.199 106.173 101.46 105.923L104.651 105.838C104.733 105.946 104.79 106.077 104.809 106.222C104.842 106.448 104.779 106.669 104.651 106.838C103.213 108.761 101.35 110.006 99.376 111.021C97.397 112.025 95.2598 112.648 93.1 113.063C91.297 113.381 89.4745 113.594 87.6505 113.594Z" fill="#FFA7CB"/>
<path d="M77.5844 72.7835C77.2454 73.4485 76.4319 73.7117 75.7668 73.3727L69.7201 70.2829C69.0566 69.9439 68.7935 69.1287 69.1325 68.4653C69.4715 67.8002 70.2867 67.537 70.9501 67.876L76.9969 70.9658C77.6619 71.3048 77.925 72.12 77.5844 72.7835Z" fill="#273351"/>
<path d="M111.047 101.243C110.706 101.907 109.892 102.172 109.227 101.831L103.182 98.7412C102.517 98.4022 102.254 97.5886 102.593 96.9235C102.932 96.2584 103.747 95.9953 104.411 96.3343L110.457 99.424C111.122 99.7646 111.386 100.578 111.047 101.243Z" fill="#273351"/>
<path d="M37.8976 65.926C38.1809 66.6169 37.8508 67.4062 37.1602 67.6904L30.8786 70.2668C30.1882 70.5493 29.3987 70.22 29.1156 69.529C28.8323 68.8381 29.1624 68.0487 29.8528 67.7662L36.1344 65.1882C36.825 64.9057 37.6143 65.2367 37.8976 65.926Z" fill="#273351"/>
<path d="M91.2453 101.113C90.6997 101.621 89.8442 101.59 89.3357 101.043L84.7127 96.0711C84.2042 95.5255 84.2349 94.6699 84.7821 94.1614C85.3277 93.6529 86.1832 93.6836 86.6917 94.2308L91.3147 99.2028C91.8232 99.7485 91.7925 100.604 91.2453 101.113Z" fill="#273351"/>
<path d="M57.5339 102.125C57.383 102.856 56.6679 103.326 55.9372 103.176L49.2878 101.8C48.5569 101.65 48.0868 100.935 48.2379 100.204C48.3889 99.4724 49.1038 99.0026 49.8347 99.1544L56.4839 100.528C57.2148 100.678 57.6848 101.393 57.5339 102.125Z" fill="#273351"/>
<path d="M71.8605 44.3301C71.6636 43.6101 72.0881 42.8676 72.8064 42.6706L79.3552 40.8756C80.0751 40.677 80.8177 41.1015 81.0162 41.8215C81.2131 42.5399 80.7902 43.2841 80.0703 43.481L73.5215 45.2761C72.8016 45.4746 72.0591 45.0501 71.8605 44.3301Z" fill="#273351"/>
<path d="M90.9451 73.9571C90.4866 73.3679 90.5916 72.5188 91.1791 72.0603L96.5318 67.8826C97.1209 67.4241 97.97 67.529 98.4284 68.1166C98.8885 68.7059 98.7836 69.555 98.1944 70.0134L92.8417 74.1912C92.2542 74.6496 91.4051 74.5447 90.9451 73.9571Z" fill="#273351"/>
<path d="M49.0631 80.0623C49.0985 79.3181 49.7314 78.7418 50.4768 78.7773L57.259 79.0969C58.0044 79.1325 58.5802 79.7653 58.5449 80.511C58.5097 81.2568 57.8768 81.8332 57.1312 81.7976L50.3491 81.4764C49.6037 81.4409 49.0279 80.8081 49.0631 80.0623Z" fill="#273351"/>
<path d="M67.4134 113.478C66.955 112.89 67.0599 112.041 67.6474 111.581L73.0001 107.405C73.5893 106.945 74.4383 107.05 74.8968 107.639C75.3568 108.227 75.2519 109.077 74.6627 109.536L69.3101 113.712C68.7225 114.172 67.8734 114.067 67.4134 113.478Z" fill="#273351"/>
<path d="M18.8957 100.885C18.6125 100.194 18.9426 99.4046 19.633 99.1205L25.9147 96.5441C26.6052 96.2616 27.3945 96.5909 27.6778 97.2819C27.9611 97.9728 27.6309 98.7621 26.9405 99.0446L20.6588 101.621C19.9683 101.905 19.179 101.574 18.8957 100.885Z" fill="#273351"/>
<path d="M53.9246 37.9101C54.5709 37.5372 55.3974 37.7583 55.7706 38.4057L59.1654 44.2849C59.5386 44.9322 59.3171 45.7587 58.6708 46.1316C58.0243 46.5045 57.198 46.2834 56.8248 45.636L53.4298 39.7568C53.0568 39.1095 53.2782 38.283 53.9246 37.9101Z" fill="#273351"/>
</svg>
