<svg width="96" height="96" viewBox="0 0 96 96" fill="none" xmlns="http://www.w3.org/2000/svg">
<path d="M62 52C62 68.5685 57.0604 74 48.5 74C39.9396 74 35 68.5685 35 52C35 35.4315 42 14 48.5 14C55 14 62 35.4315 62 52Z" fill="#FFD12F"/>
<path fill-rule="evenodd" clip-rule="evenodd" d="M60.12 70.329C57.3516 74.4474 53.2625 76 48.5 76C43.7375 76 39.6484 74.4474 36.88 70.329C34.2356 66.395 33 60.3988 33 52C33 43.4757 34.7931 33.7556 37.4218 26.1346C38.7342 22.33 40.2898 18.9451 42.0041 16.4691C42.8612 15.2311 43.8063 14.1494 44.8434 13.361C45.883 12.5707 47.1186 12 48.5 12C49.8814 12 51.117 12.5707 52.1566 13.361C53.1937 14.1494 54.1388 15.2311 54.9959 16.4691C56.7102 18.9451 58.2658 22.33 59.5782 26.1346C62.2069 33.7556 64 43.4757 64 52C64 60.3988 62.7644 66.395 60.12 70.329ZM48.5 74C57.0604 74 62 68.5685 62 52C62 35.4315 55 14 48.5 14C42 14 35 35.4315 35 52C35 68.5685 39.9396 74 48.5 74Z" fill="#EC9616"/>
<path d="M43.2478 42.0558C45.7186 42.1 47.7693 39.4615 47.8283 36.1626C47.8873 32.8637 49.0856 17.1562 46.6148 17.112C44.1441 17.0678 38.9399 32.7037 38.8809 36.0027C38.8219 39.3016 40.7771 42.0117 43.2478 42.0558Z" fill="#FFE071"/>
<path fill-rule="evenodd" clip-rule="evenodd" d="M42.0168 72.5011C47.453 71.1756 51.3122 65.5898 53.4482 53.1731C56.0434 38.0875 53.454 17.8984 47.9933 14.0428C48.1625 14.0144 48.3314 14 48.5 14C55 14 62 35.4315 62 52C62 68.5685 57.0605 74 48.5 74C46.0259 74 43.8542 73.5463 42.0168 72.5011Z" fill="#F1B826"/>
<path d="M43.0063 33.1358C43.0063 34.0683 42.2504 34.8242 41.3179 34.8242C40.3854 34.8242 39.6295 34.0683 39.6295 33.1358C39.6295 32.2033 40.3854 31.4474 41.3179 31.4474C42.2504 31.4474 43.0063 32.2033 43.0063 33.1358Z" fill="#FFF730"/>
<path d="M48.0715 33.1358C48.0715 34.0683 47.3156 34.8242 46.3831 34.8242C45.4506 34.8242 44.6947 34.0683 44.6947 33.1358C44.6947 32.2033 45.4506 31.4474 46.3831 31.4474C47.3156 31.4474 48.0715 32.2033 48.0715 33.1358Z" fill="#FFF730"/>
<path d="M53.0565 33.1358C53.0565 34.0683 52.3005 34.8242 51.3681 34.8242C50.4356 34.8242 49.6796 34.0683 49.6796 33.1358C49.6796 32.2033 50.4356 31.4474 51.3681 31.4474C52.3005 31.4474 53.0565 32.2033 53.0565 33.1358Z" fill="#FFF730"/>
<path d="M58.0412 33.1358C58.0412 34.0683 57.2853 34.8242 56.3528 34.8242C55.4203 34.8242 54.6643 34.0683 54.6643 33.1358C54.6643 32.2033 55.4203 31.4474 56.3528 31.4474C57.2853 31.4474 58.0412 32.2033 58.0412 33.1358Z" fill="#FFF730"/>
<path d="M56.4333 28.0706C56.4333 29.0031 55.6773 29.759 54.7448 29.759C53.8124 29.759 53.0564 29.0031 53.0564 28.0706C53.0564 27.1381 53.8124 26.3822 54.7448 26.3822C55.6773 26.3822 56.4333 27.1381 56.4333 28.0706Z" fill="#FFF730"/>
<path d="M50.5238 28.0706C50.5238 29.0031 49.7678 29.759 48.8353 29.759C47.9028 29.759 47.1469 29.0031 47.1469 28.0706C47.1469 27.1381 47.9028 26.3822 48.8353 26.3822C49.7678 26.3822 50.5238 27.1381 50.5238 28.0706Z" fill="#FFF730"/>
<path d="M44.6143 28.0706C44.6143 29.0031 43.8583 29.759 42.9258 29.759C41.9933 29.759 41.2374 29.0031 41.2374 28.0706C41.2374 27.1381 41.9933 26.3822 42.9258 26.3822C43.8583 26.3822 44.6143 27.1381 44.6143 28.0706Z" fill="#FFF730"/>
<path d="M47.147 23.8494C47.147 24.7819 46.391 25.5378 45.4585 25.5378C44.526 25.5378 43.7701 24.7819 43.7701 23.8494C43.7701 22.9169 44.526 22.1609 45.4585 22.1609C46.391 22.1609 47.147 22.9169 47.147 23.8494Z" fill="#FFF730"/>
<path d="M53.9006 23.8494C53.9006 24.7819 53.1446 25.5378 52.2121 25.5378C51.2796 25.5378 50.5237 24.7819 50.5237 23.8494C50.5237 22.9169 51.2796 22.1609 52.2121 22.1609C53.1446 22.1609 53.9006 22.9169 53.9006 23.8494Z" fill="#FFF730"/>
<path d="M50.5238 19.6284C50.5238 20.5609 49.7678 21.3168 48.8353 21.3168C47.9028 21.3168 47.1469 20.5609 47.1469 19.6284C47.1469 18.6959 47.9028 17.9399 48.8353 17.9399C49.7678 17.9399 50.5238 18.6959 50.5238 19.6284Z" fill="#FFF730"/>
<path d="M45.5388 38.2816C45.5388 39.2141 44.7829 39.97 43.8504 39.97C42.9179 39.97 42.162 39.2141 42.162 38.2816C42.162 37.3491 42.9179 36.5932 43.8504 36.5932C44.7829 36.5932 45.5388 37.3491 45.5388 38.2816Z" fill="#FFF730"/>
<path d="M50.5238 38.2011C50.5238 39.1336 49.7678 39.8895 48.8353 39.8895C47.9028 39.8895 47.1469 39.1336 47.1469 38.2011C47.1469 37.2686 47.9028 36.5127 48.8353 36.5127C49.7678 36.5127 50.5238 37.2686 50.5238 38.2011Z" fill="#FFF730"/>
<path d="M57.2776 38.2011C57.2776 39.1336 56.5217 39.8895 55.5892 39.8895C54.6567 39.8895 53.9007 39.1336 53.9007 38.2011C53.9007 37.2686 54.6567 36.5127 55.5892 36.5127C56.5217 36.5127 57.2776 37.2686 57.2776 38.2011Z" fill="#FFF730"/>
<path d="M60.5741 43.2664C60.5741 44.1989 59.8182 44.9548 58.8857 44.9548C57.9532 44.9548 57.1973 44.1989 57.1973 43.2664C57.1973 42.3339 57.9532 41.578 58.8857 41.578C59.8182 41.578 60.5741 42.3339 60.5741 43.2664Z" fill="#FFF730"/>
<path d="M53.9006 43.2664C53.9006 44.1989 53.1446 44.9548 52.2121 44.9548C51.2796 44.9548 50.5237 44.1989 50.5237 43.2664C50.5237 42.3339 51.2796 41.578 52.2121 41.578C53.1446 41.578 53.9006 42.3339 53.9006 43.2664Z" fill="#FFF730"/>
<path d="M46.3027 43.2664C46.3027 44.1989 45.5467 44.9548 44.6142 44.9548C43.6817 44.9548 42.9258 44.1989 42.9258 43.2664C42.9258 42.3339 43.6817 41.578 44.6142 41.578C45.5467 41.578 46.3027 42.3339 46.3027 43.2664Z" fill="#FFF730"/>
<path d="M41.2375 40.7337C41.2375 41.6662 40.4815 42.4221 39.549 42.4221C38.6165 42.4221 37.8606 41.6662 37.8606 40.7337C37.8606 39.8012 38.6165 39.0453 39.549 39.0453C40.4815 39.0453 41.2375 39.8012 41.2375 40.7337Z" fill="#FFF730"/>
<path d="M42.0013 47.4071C42.0013 48.3395 41.2454 49.0955 40.3129 49.0955C39.3804 49.0955 38.6244 48.3395 38.6244 47.4071C38.6244 46.4746 39.3804 45.7186 40.3129 45.7186C41.2454 45.7186 42.0013 46.4746 42.0013 47.4071Z" fill="#FFF730"/>
<path d="M47.7499 48.2514C47.7499 49.1839 46.9939 49.9398 46.0614 49.9398C45.1289 49.9398 44.373 49.1839 44.373 48.2514C44.373 47.3189 45.1289 46.5629 46.0614 46.5629C46.9939 46.5629 47.7499 47.3189 47.7499 48.2514Z" fill="#FFF730"/>
<path d="M54.4234 48.3317C54.4234 49.2642 53.6675 50.0202 52.735 50.0202C51.8025 50.0202 51.0466 49.2642 51.0466 48.3317C51.0466 47.3992 51.8025 46.6433 52.735 46.6433C53.6675 46.6433 54.4234 47.3992 54.4234 48.3317Z" fill="#FFF730"/>
<path d="M60.2525 50.1407C60.2525 51.0732 59.4965 51.8292 58.564 51.8292C57.6315 51.8292 56.8756 51.0732 56.8756 50.1407C56.8756 49.2082 57.6315 48.4523 58.564 48.4523C59.4965 48.4523 60.2525 49.2082 60.2525 50.1407Z" fill="#FFF730"/>
<path d="M50.0816 54.7639C50.0816 55.6964 49.3257 56.4523 48.3932 56.4523C47.4607 56.4523 46.7047 55.6964 46.7047 54.7639C46.7047 53.8314 47.4607 53.0754 48.3932 53.0754C49.3257 53.0754 50.0816 53.8314 50.0816 54.7639Z" fill="#FFF730"/>
<path d="M51.0062 60.3116C51.0062 61.2441 50.2502 62 49.3177 62C48.3852 62 47.6293 61.2441 47.6293 60.3116C47.6293 59.3791 48.3852 58.6232 49.3177 58.6232C50.2502 58.6232 51.0062 59.3791 51.0062 60.3116Z" fill="#FFF730"/>
<path d="M55.4285 54.1608C55.4285 55.0933 54.6725 55.8492 53.74 55.8492C52.8075 55.8492 52.0516 55.0933 52.0516 54.1608C52.0516 53.2283 52.8075 52.4723 53.74 52.4723C54.6725 52.4723 55.4285 53.2283 55.4285 54.1608Z" fill="#FFF730"/>
<path d="M45.3781 54.2412C45.3781 55.1737 44.6222 55.9297 43.6897 55.9297C42.7572 55.9297 42.0012 55.1737 42.0012 54.2412C42.0012 53.3087 42.7572 52.5528 43.6897 52.5528C44.6222 52.5528 45.3781 53.3087 45.3781 54.2412Z" fill="#FFF730"/>
<path fill-rule="evenodd" clip-rule="evenodd" d="M46.9129 18.0489C47.8569 18.6224 48.1573 19.8526 47.5838 20.7967C47.1462 21.5169 46.8961 22.2495 46.8095 23.0086C46.6844 24.106 45.6933 24.8943 44.5959 24.7691C43.4984 24.644 42.7102 23.6529 42.8353 22.5555C42.9905 21.1939 43.4417 19.9106 44.1652 18.7198C44.7387 17.7758 45.9689 17.4754 46.9129 18.0489Z" fill="white"/>
<path d="M51 65C51 66.1046 50.1046 67 49 67C47.8954 67 47 66.1046 47 65C47 63.8954 47.8954 63 49 63C50.1046 63 51 63.8954 51 65Z" fill="#F3D157"/>
<path d="M64.4211 69.7287C61.0526 79.239 52.0702 81.8722 48 82C48.4211 77.9096 47.4165 67.9969 53.1429 59.1002C58.8692 50.2035 69.193 50.2993 72 51.7053C69.0526 53.6227 68.6316 57.841 64.4211 69.7287Z" fill="#76C611"/>
<path fill-rule="evenodd" clip-rule="evenodd" d="M46.5364 83.363C46.1431 82.9407 45.9514 82.3692 46.0105 81.7952C46.0762 81.1568 46.0987 80.2889 46.1259 79.2401C46.251 74.4157 46.4753 65.7639 51.4611 58.0177C54.6452 53.0707 59.1284 50.6127 63.1809 49.599C65.1991 49.0942 67.1268 48.9422 68.7678 49.0187C70.362 49.093 71.8451 49.3909 72.8957 49.9171C73.5365 50.2381 73.9566 50.8775 73.9969 51.593C74.0371 52.3086 73.6914 52.991 73.0906 53.3818C72.2165 53.9505 71.5545 54.9073 70.5662 57.6551C70.153 58.8038 69.7111 60.1745 69.1666 61.8634C69.0711 62.1596 68.9725 62.4657 68.8702 62.782C68.1904 64.8859 67.368 67.3988 66.3063 70.3965C62.5627 80.9661 52.6097 83.8562 48.0628 83.999C47.4861 84.0171 46.9296 83.7853 46.5364 83.363ZM48.1143 79.9938C48.1239 79.6999 48.1327 79.3925 48.1419 79.0725C48.2827 74.1663 48.5084 66.3005 53.1429 59.1002C57.7635 51.9214 65.3775 50.5976 69.6204 51.0927C70.6357 51.2112 71.458 51.4338 72 51.7053C71.3829 52.1068 70.8766 52.6091 70.423 53.2616C69.3325 54.8302 68.5471 57.2666 67.2612 61.2556C66.5274 63.532 65.6306 66.3139 64.4211 69.7287C61.5368 77.8719 54.5366 80.973 50.0285 81.7766C49.2717 81.9115 48.5851 81.9816 48 82C48.0581 81.436 48.089 80.7613 48.1143 79.9938Z" fill="#548F09"/>
<path fill-rule="evenodd" clip-rule="evenodd" d="M48.2664 75.8852C52.4221 75.1313 57.2631 72.8979 60.5955 67.6283C62.5317 64.5665 64.0228 62.0525 65.2428 59.9953C68.2482 54.9281 69.6093 52.6332 71.9296 51.7519C69.8808 53.1294 69.0614 55.6709 67.2612 61.2556C66.5273 63.5319 65.6305 66.3139 64.4211 69.7287C61.0526 79.2389 52.0702 81.8721 48 82C48.0803 81.22 48.1087 80.2284 48.1419 79.0725C48.1694 78.114 48.2002 77.0426 48.2664 75.8852ZM71.9705 51.7247C71.9803 51.7182 71.9901 51.7117 72 51.7053C71.956 51.6833 71.9102 51.6616 71.8627 51.6403C71.9001 51.6685 71.936 51.6966 71.9705 51.7247Z" fill="#67AE0E"/>
<path d="M33.2121 48.7327C28.8039 45.7386 27.4193 41.6634 27.2781 40C26.1478 40 24.7349 43.9921 28.1258 59.9604C31.5167 75.9287 42.537 81.3069 47.6233 82C53.5573 60.7921 38.7223 52.4752 33.2121 48.7327Z" fill="#8DEA17"/>
<path fill-rule="evenodd" clip-rule="evenodd" d="M27.278 38C28.317 38 29.1829 38.7955 29.2709 39.8307C29.3637 40.924 30.4513 44.4398 34.3358 47.0782C34.6322 47.2795 34.9641 47.499 35.3254 47.7379C38.1811 49.6259 42.8712 52.7268 46.3452 57.6663C50.3522 63.3637 52.6753 71.3667 49.5493 82.5389C49.2802 83.5007 48.3429 84.1165 47.3533 83.9817C41.4848 83.182 29.7467 77.2219 26.1694 60.3758C24.4614 52.3327 23.931 47.167 24.007 43.9449C24.0446 42.3512 24.2322 41.0916 24.5886 40.1592C24.8845 39.3852 25.6555 38 27.278 38ZM27.1969 40.0069C26.7151 40.089 26.2044 40.9173 26.0481 43.0933C25.8433 45.9465 26.2478 51.1167 28.1258 59.9604C31.5166 75.9287 42.537 81.3069 47.6233 82C53.2203 61.9966 40.3404 53.4616 34.2357 49.4162C33.8681 49.1726 33.525 48.9452 33.2121 48.7327C30.4896 46.8836 28.9204 44.6221 28.0851 42.771C27.9541 42.4808 27.8412 42.2006 27.7447 41.9337C27.4601 41.1467 27.3184 40.475 27.278 40C27.2511 40 27.2241 40.0023 27.1969 40.0069ZM28.3877 41.4482C28.388 41.4497 28.3811 41.4647 28.3658 41.4889C28.3797 41.4589 28.3873 41.4468 28.3877 41.4482Z" fill="#548F09"/>
<path d="M33.0764 52.7822C30.5849 51.1426 29.5 50.5 29 49.5C29.5 54 29.0834 52.7554 31 61.5C31.8767 65.5 36.347 72.6205 39.2219 73C42.5759 61.3861 36.1909 54.8317 33.0764 52.7822Z" fill="#A4FC34"/>
</svg>
