<svg width="96" height="96" viewBox="0 0 96 96" fill="none" xmlns="http://www.w3.org/2000/svg">
<path d="M50.1008 25.9008C50.0385 25.3891 49.6063 25 49.0908 25H46.9272C46.4042 25 45.9678 25.4012 45.9117 25.9212C45.7191 27.7038 45.1806 31.696 44 34.5C42.928 37.046 39.8207 40.2746 36.0187 42.5333C28.5 47 24 51.9612 24 59C24 69.4934 34.7452 78 48 78C61.2548 78 72 69.4934 72 59C72 51.9082 66.5629 46.8037 59.8187 42.4597C56 40 53.0638 37.156 52 34.5C50.9072 31.7715 50.3194 27.6939 50.1008 25.9008Z" fill="#E289B0"/>
<path fill-rule="evenodd" clip-rule="evenodd" d="M46.9272 23H49.0908C50.6351 23 51.9036 24.1613 52.0861 25.6589C52.3065 27.4667 52.873 31.3006 53.8566 33.7564C54.6832 35.8203 57.1804 38.3813 60.9017 40.7783C67.6715 45.1388 74 50.7668 74 59C74 71.0083 61.8986 80 48 80C34.1014 80 22 71.0083 22 59C22 50.8816 27.2832 45.3965 34.9972 40.8138C38.5923 38.6781 41.311 35.7325 42.1567 33.7239C43.2118 31.2182 43.7304 27.4916 43.9232 25.7064C44.0863 24.1965 45.3572 23 46.9272 23ZM49.0908 25C49.6063 25 50.0385 25.3891 50.1008 25.9008C50.3194 27.6939 50.9072 31.7715 52 34.5C53.0638 37.156 56 40 59.8187 42.4597C66.5629 46.8037 72 51.9082 72 59C72 69.4934 61.2548 78 48 78C34.7452 78 24 69.4934 24 59C24 51.9612 28.5 47 36.0187 42.5333C39.8207 40.2746 42.928 37.046 44 34.5C45.1806 31.696 45.7191 27.7038 45.9117 25.9212C45.9678 25.4012 46.4042 25 46.9272 25H49.0908Z" fill="#9D225D"/>
<path d="M41.1779 46.6172C43.4944 48.9867 42.2852 53.9258 38.477 57.649C34.6688 61.3722 29.7037 62.4697 27.3871 60.1003C25.0706 57.7309 26.2798 52.7918 30.088 49.0685C33.8962 45.3453 38.8613 44.2478 41.1779 46.6172Z" fill="#FFA7CF"/>
<path fill-rule="evenodd" clip-rule="evenodd" d="M46.7373 25.018C46.3018 25.1013 45.9608 25.4657 45.9116 25.9212C45.846 26.5285 45.7402 27.3923 45.5826 28.3781C46.0608 27.1596 46.4511 25.9671 46.7373 25.018ZM30.3842 71.9042C33.3835 73.7126 36.8938 75.0283 40.7357 75.6547C53.8178 77.7876 65.7918 71.1209 67.4803 60.7642C68.6215 53.7649 64.0766 47.8519 58.1194 42.4793C55.4281 40.0522 53.3306 37.474 52.2764 35.1125C53.518 37.5888 56.292 40.1881 59.8187 42.4597C66.5628 46.8037 71.9999 51.9082 71.9999 59C71.9999 69.4934 61.2548 78 47.9999 78C41.0378 78 34.7681 75.6532 30.3842 71.9042Z" fill="#C7638F"/>
<path d="M50 58C50 67.9411 49.5523 76 49 76C48.4477 76 48 67.9411 48 58C48 48.0589 48.4477 40 49 40C49.5523 40 50 48.0589 50 58Z" fill="#C54C82"/>
<path d="M66 57.5C66 66.0604 57.5793 73 57.0288 73C56.4783 73 64.0064 66.0604 64.0064 57.5C64.0064 48.9396 56.4783 42 57.0288 42C57.5793 42 66 48.9396 66 57.5Z" fill="#C54C82"/>
<path d="M30 57.5C30 66.0604 38.4207 73 38.9712 73C39.5217 73 31.9936 66.0604 31.9936 57.5C31.9936 48.9396 39.5217 42 38.9712 42C38.4207 42 30 48.9396 30 57.5Z" fill="#C54C82"/>
<path d="M58 58.5C58 68.165 53.2574 76 53.0128 76C52.7681 76 55.1139 68.165 55.1139 58.5C55.1139 48.835 52.7681 41 53.0128 41C53.2574 41 58 48.835 58 58.5Z" fill="#C54C82"/>
<path d="M39 58.5C39 68.165 43.7426 76 43.9872 76C44.2319 76 41.8861 68.165 41.8861 58.5C41.8861 48.835 44.2319 41 43.9872 41C43.7426 41 39 48.835 39 58.5Z" fill="#C54C82"/>
<path d="M65.7797 61.0084C65.3822 61.7757 64.438 62.0754 63.6708 61.6779C62.9035 61.2804 62.6038 60.3363 63.0013 59.569C63.3988 58.8018 64.343 58.5021 65.1102 58.8996C65.8774 59.297 66.1771 60.2412 65.7797 61.0084Z" fill="#A3446E"/>
<path d="M69.0388 65.7163C68.6413 66.4835 67.6971 66.7833 66.9299 66.3858C66.1627 65.9883 65.863 65.0441 66.2604 64.2769C66.6579 63.5097 67.6021 63.2099 68.3693 63.6074C69.1366 64.0049 69.4363 64.9491 69.0388 65.7163Z" fill="#A3446E"/>
<path d="M70.0526 60.1975C69.7545 60.7729 69.0464 60.9977 68.471 60.6996C67.8956 60.4015 67.6708 59.6934 67.9689 59.1179C68.267 58.5425 68.9751 58.3177 69.5505 58.6158C70.126 58.914 70.3508 59.6221 70.0526 60.1975Z" fill="#A3446E"/>
<path d="M65.7748 70.3375C65.3773 71.1047 64.4331 71.4045 63.6659 71.007C62.8987 70.6095 62.5989 69.6653 62.9964 68.8981C63.3939 68.1308 64.3381 67.8311 65.1053 68.2286C65.8726 68.6261 66.1723 69.5703 65.7748 70.3375Z" fill="#A3446E"/>
<path d="M63.4964 65.552C63.0989 66.3192 62.1547 66.619 61.3875 66.2215C60.6202 65.824 60.3205 64.8798 60.718 64.1126C61.1155 63.3454 62.0597 63.0456 62.8269 63.4431C63.5941 63.8406 63.8938 64.7848 63.4964 65.552Z" fill="#A3446E"/>
<path d="M60.3793 73.5496C59.9818 74.3168 59.0376 74.6166 58.2704 74.2191C57.5031 73.8216 57.2034 72.8774 57.6009 72.1102C57.9984 71.343 58.9426 71.0432 59.7098 71.4407C60.477 71.8382 60.7767 72.7824 60.3793 73.5496Z" fill="#A3446E"/>
<path d="M59.0066 68.778C58.6091 69.5452 57.6649 69.845 56.8977 69.4475C56.1305 69.05 55.8307 68.1058 56.2282 67.3386C56.6257 66.5714 57.5699 66.2716 58.3371 66.6691C59.1043 67.0666 59.4041 68.0108 59.0066 68.778Z" fill="#A3446E"/>
<path d="M54.472 75.3302C54.1739 75.9057 53.4658 76.1305 52.8903 75.8323C52.3149 75.5342 52.0901 74.8261 52.3882 74.2507C52.6864 73.6753 53.3945 73.4505 53.9699 73.7486C54.5453 74.0467 54.7701 74.7548 54.472 75.3302Z" fill="#A3446E"/>
<path fill-rule="evenodd" clip-rule="evenodd" d="M33.6676 51.0765C34.4674 51.8383 34.4983 53.1042 33.7365 53.9041C33.1553 54.5143 32.7546 55.1766 32.508 55.8998C32.1516 56.9452 31.0151 57.5038 29.9696 57.1473C28.9241 56.7908 28.3656 55.6543 28.7221 54.6089C29.1643 53.3118 29.8791 52.1544 30.84 51.1454C31.6018 50.3456 32.8677 50.3147 33.6676 51.0765Z" fill="white"/>
</svg>
