<svg width="105" height="135" viewBox="0 0 105 135" fill="none" xmlns="http://www.w3.org/2000/svg">
<path d="M85.6 36.504C79.6349 34.6187 73.3995 33.8147 67.2823 35.352C61.4125 36.8267 55.5235 37.5774 49.4609 37.1747C43.2751 36.7654 37.1355 35.6907 30.9364 35.3827C27.7588 35.2227 24.5547 35.3573 21.4557 36.1253C19.9489 36.496 18.4729 36.9227 16.9683 37.1973C3.96506 42.272 -1.07345 54.7334 1.19066 68.5774C3.92293 85.2787 13.3729 99.7413 24.7557 111.861C28.0917 115.415 45.0312 132.895 50.6161 133.871C51.1469 133.959 51.6875 134.003 52.2317 134C52.7781 134.003 53.3188 133.959 53.8547 133.867C59.4364 132.895 76.374 115.415 79.7099 111.861C91.0912 99.7413 100.543 85.2787 103.275 68.5774C105.648 54.0734 100.024 41.0653 85.6 36.504Z" fill="#E03040"/>
<path d="M85.6 36.5039L85.8 35.8679C81.9588 34.6546 77.9917 33.8759 73.9917 33.8759C71.7036 33.8759 69.4047 34.132 67.1203 34.7053C62.3527 35.904 57.588 36.6146 52.7355 36.6146C51.6636 36.6146 50.5869 36.5813 49.5052 36.5093C43.3672 36.1053 37.2245 35.0279 30.9703 34.7173C30.2011 34.6786 29.4281 34.656 28.6547 34.656C26.1927 34.656 23.7203 34.876 21.2953 35.4773C19.7735 35.8546 18.3093 36.276 16.8484 36.5413L16.7255 36.5773C11.1016 38.7693 6.90053 42.3386 4.12547 46.7946C1.35107 51.252 0 56.5826 0 62.3053C0 64.3866 0.179174 66.5213 0.532294 68.6866C3.2964 85.5733 12.8355 100.14 24.2697 112.319C25.9484 114.105 31.0219 119.368 36.3901 124.321C39.076 126.799 41.8317 129.199 44.2869 131.051C45.514 131.977 46.6656 132.768 47.7047 133.367C48.7473 133.965 49.6688 134.377 50.5016 134.527H50.5052C51.0579 134.621 51.6193 134.667 52.186 134.667H52.2251H52.2317H52.2797C52.8448 134.667 53.4079 134.621 53.9672 134.524H53.9693C54.8016 134.375 55.7213 133.963 56.764 133.365C60.3869 131.275 65.4719 126.811 70.0688 122.457C74.6604 118.107 78.7271 113.881 80.1943 112.319C91.6287 100.14 101.169 85.5733 103.933 68.6866C104.289 66.516 104.468 64.376 104.468 62.2893C104.468 56.2493 102.964 50.6386 99.8656 46.0346C96.7703 41.4293 92.0792 37.8506 85.8 35.8679L85.6 36.5039L85.3989 37.1386C91.4208 39.0466 95.8297 42.428 98.7599 46.7786C101.688 51.128 103.133 56.4653 103.133 62.2893C103.133 64.3013 102.961 66.368 102.618 68.4693C99.9183 84.9853 90.5521 99.3413 79.2235 111.405C77.5667 113.172 72.5021 118.424 67.1713 123.341C64.5079 125.801 61.774 128.176 59.3781 129.987C58.1803 130.891 57.0661 131.653 56.0984 132.209C55.1328 132.769 54.3036 133.116 53.7407 133.209H53.7421C53.2593 133.293 52.7729 133.332 52.2797 133.332H52.2317V134L52.2391 133.332H52.186C51.6927 133.332 51.2047 133.293 50.7287 133.213H50.7303C50.1672 133.117 49.3364 132.771 48.3703 132.212C44.9645 130.256 39.8708 125.811 35.3131 121.491C30.7505 117.164 26.6927 112.949 25.2421 111.405C13.9099 99.3413 4.54733 84.9853 1.84947 68.4693C1.50467 66.372 1.3344 64.3093 1.3344 62.3053C1.3344 56.792 2.6328 51.7146 5.25733 47.5026C7.88493 43.2866 11.8333 39.9186 17.2104 37.8186L16.9683 37.1973L17.0875 37.8547C18.6369 37.5707 20.1265 37.1386 21.6145 36.772H21.6161C23.9079 36.204 26.2729 35.9893 28.6547 35.9893C29.4027 35.9893 30.1531 36.0106 30.9041 36.0479C37.0484 36.3519 43.1828 37.4253 49.4183 37.8399C50.5292 37.9133 51.6349 37.9493 52.7355 37.9493C57.7197 37.9493 62.5948 37.2173 67.4443 35.9987C69.6145 35.4533 71.8027 35.2106 73.9917 35.2106C77.8172 35.2093 81.6531 35.9546 85.3989 37.1386L85.6 36.5039Z" fill="#9F2A2D"/>
<path d="M50.497 133.847C50.486 133.845 50.474 133.843 50.4626 133.84C50.474 133.843 50.4855 133.845 50.497 133.847Z" fill="#862223"/>
<path d="M47.5239 128.044C45.463 128.044 43.4223 127.675 41.4193 127.016C39.4057 125.296 37.3083 123.381 35.313 121.491C30.7505 117.164 26.6926 112.949 25.2421 111.405C13.9098 99.3414 4.54728 84.9854 1.84942 68.4694C1.50462 66.3721 1.33435 64.3094 1.33435 62.3054C1.33435 56.7921 2.63275 51.7147 5.25728 47.5027C7.75782 43.4907 11.4551 40.2468 16.4406 38.1321C17.1426 38.0734 17.8478 38.0441 18.5552 38.0441C18.7426 38.0441 18.9302 38.0454 19.1182 38.0494C19.6963 38.0641 20.113 38.8441 19.6213 39.2654C16.5912 41.8654 14.5401 45.1681 14.5791 49.4774C17.8333 49.9081 20.3317 50.184 22.8557 50.184C26.6369 50.184 30.4765 49.5654 37.0093 47.92C37.5182 47.792 39.1265 46.5801 39.4765 46.5801C39.5281 46.5801 39.5521 46.6054 39.5417 46.6654C39.0739 49.4201 38.3385 53.9534 38.6046 56.7147C43.927 55.7934 51.7317 54.9081 60.6426 46.5347C62.1797 45.0921 64.1723 44.1494 66.3854 44.1494C66.8062 44.1494 67.2343 44.1827 67.6697 44.2547C71.2155 44.836 74.0958 45.6281 77.3478 47.0774C84.5557 50.2827 92.1729 55.5561 94.0551 63.7467C95.7374 71.0694 93.6218 78.4494 90.4374 85.0681C86.3645 93.5387 81.0849 101.109 74.7953 108.075C69.0792 114.404 63.1135 122.155 55.3734 126.115C52.7521 127.456 50.1223 128.044 47.5239 128.044ZM13.0863 44.4667C12.9707 44.4667 12.8489 44.5001 12.7291 44.5774C-0.370357 53.0001 2.91088 68.8974 8.35568 81.5801C9.19368 83.6281 10.1614 85.6801 11.2447 87.7094C11.5093 88.2241 11.7718 88.7347 12.0363 89.2294C17.1145 98.8161 23.9265 107.44 33.5505 112.757C37.1859 114.767 40.7166 115.645 44.1478 115.645C45.9806 115.645 47.7849 115.395 49.5614 114.933C54.7473 114.235 59.9672 111.689 64.963 106.707C68.8026 102.881 72.1093 97.7694 74.9197 93.1627C83.7587 78.6667 89.7942 55.7427 69.9254 47.6147C68.7229 47.1227 67.7021 46.852 66.7505 46.852C65.3682 46.852 64.1322 47.424 62.7005 48.7214C59.5969 51.5387 56.3135 53.7027 52.6379 55.7307C48.9931 57.7401 45.0021 59.5774 40.8182 60.0161C40.5207 60.0481 40.2426 60.0627 39.9827 60.0627C34.875 60.0627 36.8161 54.2641 37.2822 50.8054C37.3411 50.3761 37.0213 49.8787 36.5994 49.8787C36.4843 49.8787 36.3614 49.9161 36.2364 50.0014C32.3084 52.7014 27.7093 54.2134 23.0015 54.8254C22.2598 54.9214 21.5259 54.9681 20.7958 54.9681C19.3395 54.9681 17.9005 54.7814 16.4562 54.4267C16.1302 54.3467 15.8327 54.2521 15.5614 54.1454C15.1645 53.4014 14.651 52.9014 14.0177 52.9014C13.9453 52.9014 13.8713 52.908 13.7964 52.9214C12.226 50.9814 13.2655 47.8641 13.7754 45.3814C13.8693 44.9294 13.5161 44.4667 13.0863 44.4667Z" fill="#BD222D"/>
<path d="M50.1604 133.761C44.1651 132 28.0057 115.323 24.7557 111.861C13.3729 99.7414 3.92293 85.2787 1.19066 68.5774C-1.07345 54.7334 3.96506 42.272 16.9683 37.1974C16.0568 37.5534 15.1969 37.956 14.364 38.384C15.0527 38.2733 15.7453 38.1894 16.4407 38.1321C11.4552 40.2467 7.75786 43.4907 5.25732 47.5027C2.63279 51.7147 1.33439 56.792 1.33439 62.3054C1.33439 64.3094 1.50466 66.372 1.84946 68.4694C4.54733 84.9854 13.9099 99.3414 25.2421 111.405C26.6927 112.949 30.7505 117.164 35.3131 121.491C37.3084 123.381 39.4057 125.296 41.4193 127.016C40.8229 126.82 40.2297 126.599 39.6407 126.353C43.7869 130.003 47.7755 133.06 50.1604 133.761Z" fill="#862223"/>
<path d="M50.5292 133.853C50.5188 133.852 50.5079 133.849 50.4969 133.847C50.5079 133.849 50.5183 133.852 50.5292 133.853ZM50.4625 133.84C50.4541 133.837 50.4459 133.836 50.438 133.835C50.4464 133.836 50.4541 133.837 50.4625 133.84ZM50.3995 133.825C50.3932 133.824 50.3864 133.823 50.3803 133.821C50.3864 133.823 50.3927 133.824 50.3995 133.825ZM50.1615 133.763C50.1609 133.761 50.1609 133.761 50.1604 133.761L50.1615 133.763Z" fill="#862223"/>
<path d="M52.2797 133.332H52.186C51.6926 133.332 51.2046 133.293 50.7286 133.213H50.7302C50.1672 133.117 49.3364 132.771 48.3702 132.212C46.4552 131.112 44.0062 129.225 41.4193 127.016C43.4224 127.675 45.463 128.044 47.524 128.044C50.1224 128.044 52.7521 127.456 55.3734 126.115C63.1136 122.155 69.0792 114.404 74.7953 108.075C81.0849 101.109 86.3645 93.5387 90.4374 85.068C93.6218 78.4494 95.7374 71.0694 94.0552 63.7467C92.1729 55.556 84.5557 50.2827 77.3478 47.0774C74.0958 45.628 71.2156 44.836 67.6697 44.2547C67.2344 44.1827 66.8062 44.1494 66.3854 44.1494C64.1724 44.1494 62.1797 45.092 60.6426 46.5347C51.7317 54.908 43.927 55.7934 38.6046 56.7147C38.3385 53.9534 39.074 49.42 39.5417 46.6654C39.5521 46.6054 39.5281 46.58 39.4765 46.58C39.1265 46.58 37.5182 47.792 37.0093 47.92C30.4765 49.5653 26.6369 50.184 22.8557 50.184C20.3317 50.184 17.8333 49.908 14.5792 49.4774C14.5401 45.168 16.5912 41.8654 19.6213 39.2654C20.113 38.8441 19.6964 38.064 19.1182 38.0494C18.9302 38.0454 18.7426 38.044 18.5552 38.044C17.8478 38.044 17.1426 38.0734 16.4406 38.1321C16.6734 38.0334 16.9093 37.936 17.1473 37.8427C18.6754 37.56 20.1458 37.1347 21.6145 36.772H21.6161C22.3578 36.588 23.1078 36.4414 23.863 36.3267C24.0453 36.3867 24.2478 36.4507 24.4693 36.5173C24.6702 36.5787 24.8849 36.6427 25.1098 36.7067C22.9521 38.032 21.5218 39.8307 20.2306 41.6187C18.9369 43.4133 17.7697 45.2 16.1781 46.6213C16.065 46.724 15.9614 46.8414 15.864 46.992C15.7734 47.144 15.6729 47.3214 15.6661 47.6134C15.6593 47.8107 15.7516 48.08 15.9354 48.2494C16.1182 48.4187 16.3213 48.4854 16.5088 48.516C18.35 48.816 20.263 48.9547 22.203 48.9547C28.0661 48.952 34.1734 47.6947 39.2464 45.76H39.2448C39.9302 45.4987 40.6286 45.2187 41.3338 44.9213C40.0552 46.864 39.214 48.9614 39.2088 51.1454C39.2088 52.0214 39.3489 52.9093 39.651 53.7867C39.7021 53.936 39.8041 54.0627 39.9426 54.1427L40.2276 54.312C40.3297 54.372 40.4473 54.404 40.5661 54.404C40.5802 54.404 40.5942 54.4027 40.6084 54.4027C46.5838 54.012 53.0046 51.9947 57.1688 48.012H57.1702C58.814 46.4267 60.7754 44.2414 62.124 41.8347C66.5573 43.7814 71.9421 44.4 76.7202 44.4027C77.626 44.4027 78.512 44.3787 79.3636 44.3387C82.5885 44.1827 86.1734 43.6987 89.3385 42.5307C90.5969 42.0667 91.7942 41.4907 92.8702 40.7787C95.2578 42.46 97.2145 44.4854 98.7598 46.7787C101.688 51.128 103.133 56.4654 103.133 62.2894C103.133 64.3014 102.961 66.368 102.618 68.4694C99.9182 84.9854 90.5521 99.3414 79.2234 111.405C77.5666 113.172 72.5021 118.424 67.1713 123.341C64.5078 125.801 61.774 128.176 59.3781 129.987C58.1802 130.891 57.0661 131.653 56.0984 132.209C55.1328 132.769 54.3036 133.116 53.7406 133.209H53.7421C53.2593 133.293 52.7729 133.332 52.2797 133.332Z" fill="#A02827"/>
<path d="M52.2907 134C52.2708 134 52.2516 134 52.2317 134C52.2125 134 52.1932 134 52.1735 134C51.6489 134 51.1276 133.956 50.6161 133.871C50.5964 133.867 50.5765 133.863 50.5568 133.859C50.5473 133.857 50.538 133.856 50.5292 133.853C50.5183 133.852 50.5079 133.849 50.4969 133.847C50.4855 133.845 50.474 133.843 50.4625 133.84C50.4541 133.837 50.4464 133.836 50.438 133.835C50.4251 133.831 50.4125 133.828 50.3995 133.825C50.3927 133.824 50.3864 133.823 50.3803 133.821C50.3088 133.804 50.236 133.784 50.1615 133.763L50.1604 133.761C47.7755 133.06 43.7869 130.003 39.6407 126.353C40.2297 126.599 40.8229 126.82 41.4193 127.016C44.0063 129.225 46.4552 131.112 48.3703 132.212C49.3364 132.771 50.1672 133.117 50.7303 133.213H50.7287C51.2047 133.293 51.6927 133.332 52.186 133.332H52.2317H52.2797C52.7729 133.332 53.2593 133.293 53.7421 133.209H53.7407C54.3036 133.116 55.1328 132.769 56.0984 132.209C57.0661 131.653 58.1803 130.891 59.3781 129.987C61.774 128.176 64.5079 125.801 67.1713 123.341C72.5021 118.424 77.5667 113.172 79.2235 111.405C90.5521 99.3413 99.9183 84.9853 102.618 68.4693C102.961 66.368 103.133 64.3013 103.133 62.2893C103.133 56.4653 101.688 51.128 98.7599 46.7787C97.2145 44.4854 95.2579 42.46 92.8703 40.7787C93.0677 40.648 93.2609 40.5133 93.45 40.3733C100.409 45.376 103.789 53.2827 103.801 62.24C103.803 64.304 103.627 66.424 103.275 68.5773C100.543 85.2787 91.0912 99.7413 79.7099 111.861C76.374 115.415 59.4364 132.895 53.8547 133.867C53.338 133.956 52.8167 134 52.2907 134ZM14.364 38.384C15.1969 37.956 16.0568 37.5533 16.9683 37.1973C18.4729 36.9227 19.9489 36.496 21.4557 36.1253C21.8625 36.024 22.2708 35.9347 22.6807 35.8547C22.8027 35.9094 22.9287 35.9667 23.0599 36.0267H23.0579C23.2531 36.1147 23.524 36.2147 23.8631 36.3267C23.1079 36.4414 22.3579 36.588 21.6161 36.772H21.6145C20.1459 37.1347 18.6755 37.56 17.1473 37.8426C16.9093 37.936 16.6735 38.0334 16.4407 38.132C15.7453 38.1894 15.0527 38.2733 14.364 38.384Z" fill="#721D21"/>
<path d="M52.6855 68.924C52.6855 68.924 55.4979 61.3094 52.187 61.3721C48.8667 61.4334 51.9016 71.4987 52.6855 68.924Z" fill="#E9D045"/>
<path d="M52.6855 89.7227C52.6855 89.7227 55.4979 82.1067 52.187 82.168C48.8667 82.2307 51.9016 92.2973 52.6855 89.7227Z" fill="#E9D045"/>
<path d="M52.6855 110.519C52.6855 110.519 55.4979 102.903 52.187 102.967C48.8667 103.031 51.9016 113.093 52.6855 110.519Z" fill="#E9D045"/>
<path d="M52.6855 131.316C52.6855 131.316 55.4979 123.7 52.187 123.763C48.8667 123.825 51.9016 133.891 52.6855 131.316Z" fill="#E9D045"/>
<path d="M88.7183 60.2401C88.7183 60.2401 93.9927 54.0681 90.864 52.9814C87.7287 51.8894 87.0907 62.3841 88.7183 60.2401Z" fill="#E9D045"/>
<path d="M93.4188 77.8174C93.4188 77.8174 98.6906 71.6454 95.5656 70.5587C92.4292 69.4694 91.7921 79.9641 93.4188 77.8174Z" fill="#E9D045"/>
<path d="M83.9631 94.6441C83.9631 94.6441 89.2375 88.4721 86.1099 87.3841C82.9719 86.2961 82.3364 96.7894 83.9631 94.6441Z" fill="#E9D045"/>
<path d="M74.1203 111.143C74.1203 111.143 79.3954 104.972 76.2662 103.884C73.1307 102.795 72.4943 113.291 74.1203 111.143Z" fill="#E9D045"/>
<path d="M73.0031 62.4294C73.0031 62.4294 77.2913 55.5374 74.0361 54.9321C70.7703 54.3241 71.7183 64.7948 73.0031 62.4294Z" fill="#E9D045"/>
<path d="M71.2833 81.8187C71.2833 81.8187 75.5697 74.9253 72.3156 74.3187C69.05 73.712 69.9978 84.1853 71.2833 81.8187Z" fill="#E9D045"/>
<path d="M66.024 100.681C66.024 100.681 70.313 93.788 67.0568 93.1827C63.7921 92.576 64.739 103.045 66.024 100.681Z" fill="#E9D045"/>
<path d="M61.0958 121.319C61.0958 121.319 65.3833 114.425 62.1297 113.821C58.8639 113.213 59.8103 123.687 61.0958 121.319Z" fill="#E9D045"/>
<path d="M15.7136 60.2401C15.7136 60.2401 10.4396 54.0681 13.5688 52.9815C15.0672 52.4588 15.9953 54.5868 16.3776 56.7148C16.7937 59.0375 16.562 61.3574 15.7136 60.2401Z" fill="#E9D045"/>
<path d="M11.0146 77.8173C11.0146 77.8173 5.74018 71.6453 8.86778 70.5586C10.3662 70.036 11.2943 72.164 11.6766 74.292C12.0949 76.6146 11.8626 78.9373 11.0146 77.8173Z" fill="#E9D045"/>
<path d="M20.4693 94.644C20.4693 94.644 15.1953 88.4721 18.3229 87.3827C19.8208 86.8627 20.7494 88.9907 21.1317 91.1187C21.5478 93.4414 21.3156 95.7614 20.4693 94.644Z" fill="#E9D045"/>
<path d="M30.312 111.143C30.312 111.143 25.037 104.972 28.1646 103.884C31.3016 102.795 31.937 113.291 30.312 111.143Z" fill="#E9D045"/>
<path d="M31.4292 62.4294C31.4292 62.4294 27.1412 55.5374 30.3964 54.9321C33.662 54.3241 32.714 64.7948 31.4292 62.4294Z" fill="#E9D045"/>
<path d="M33.149 81.8187C33.149 81.8187 28.8615 74.9253 32.1167 74.3187C35.3834 73.712 34.4355 84.1853 33.149 81.8187Z" fill="#E9D045"/>
<path d="M38.4084 100.681C38.4084 100.681 34.1203 93.788 37.3745 93.1827C40.6385 92.576 39.6932 103.045 38.4084 100.681Z" fill="#E9D045"/>
<path d="M43.3364 121.319C43.3364 121.319 39.0489 114.425 42.3027 113.821C45.5672 113.213 44.6193 123.687 43.3364 121.319Z" fill="#E9D045"/>
<path d="M95.6729 35.8361C91.0011 37.6921 84.7677 34.0868 80.6448 32.5188C80.4317 32.4388 80.2251 32.3814 80.0151 32.3081C80.1651 32.2414 80.3208 32.1841 80.4656 32.1094C83.4912 30.3801 85.5593 27.7668 85.4281 24.4468C83.6208 26.2494 78.7355 25.0908 76.6656 24.8961C75.2307 24.7615 73.6027 24.8467 72.038 25.0427C72.5073 21.4641 71.4541 17.4574 68.6265 14.7188C68.5484 15.4241 68.3625 16.1094 67.9151 16.7054C67.2448 17.6001 66.3505 18.2028 65.4016 18.7628C64.5417 19.5348 63.7021 20.1774 63.1921 20.5641C62.0469 21.4308 61.1323 22.2988 60.4792 23.2281C60.9636 21.6174 61.2432 19.9547 61.436 18.3067C61.5948 16.9147 61.4807 15.7787 61.0573 14.5094C60.2193 12.8934 59.0729 11.3308 57.4896 10.3134C57.3084 12.2174 53.1036 14.5521 51.6536 15.6134C50.2407 16.6548 48.7869 17.8028 47.8177 19.1774C47.3245 19.8761 46.5959 21.1894 46.2203 22.5201C45.8364 22.1787 45.4339 21.8388 44.9885 21.4988C43.4339 20.3121 39.3063 17.1135 38.864 14.4268L38.7448 14.5174C35.3369 17.7201 34.0557 22.4734 34.5948 26.7134C32.7625 26.4774 30.8547 26.3708 29.1719 26.5214C26.7437 26.7428 16.6369 27.6814 12.8896 26.7641C12.8131 28.5428 16.1781 31.9494 17.6369 32.7734C20.0547 34.1414 20.7751 34.2494 23.336 35.4214C23.8052 35.6361 25.2421 36.0814 26.8188 36.4707C26.3375 36.7414 25.8803 37.0147 25.4588 37.2734C21.3844 39.7761 19.976 44.1187 16.6235 47.1187C16.3948 47.3227 16.1079 47.7761 16.6145 47.8587C23.8584 49.0361 32.3593 47.6761 39.0093 45.1374C40.4459 44.5894 41.9427 43.9574 43.4339 43.2481C40.7464 46.3934 39.0588 50.0134 40.2807 53.5694L40.5656 53.7374C46.4251 53.3601 52.7197 51.3574 56.7079 47.5308C58.4464 45.8588 60.5453 43.4881 61.8317 40.9681C67.0193 43.4374 73.8604 43.9361 79.3307 43.6734C85.6921 43.3654 93.4495 41.7441 96.1115 36.2361C96.2547 35.9454 96.0703 35.6788 95.6729 35.8361Z" fill="#63C054"/>
<path d="M95.6729 35.8361L95.4271 35.2161C94.6016 35.5441 93.7104 35.6867 92.7672 35.6867C90.8407 35.6907 88.7027 35.0761 86.636 34.2854C84.5677 33.4974 82.5797 32.5427 80.8817 31.8947H80.8803C80.6297 31.8001 80.4161 31.7414 80.2339 31.6787L80.0151 32.3081L80.2833 32.9187C80.4131 32.8614 80.5803 32.8001 80.7693 32.7027L80.7969 32.6881C82.3292 31.8121 83.6479 30.7081 84.5932 29.3747C85.5391 28.0454 86.1021 26.4774 86.1 24.7441L86.0932 24.42C86.0833 24.1547 85.9177 23.9227 85.6719 23.8267C85.4245 23.7281 85.1448 23.7867 84.9568 23.9747C84.6891 24.2427 84.2864 24.4507 83.7588 24.5827C83.2369 24.7187 82.6021 24.7747 81.9297 24.7747C80.0817 24.7761 77.988 24.3534 76.7287 24.2321C76.2255 24.1841 75.7031 24.1641 75.1745 24.1641C74.1145 24.1641 73.0193 24.2481 71.9541 24.3827L72.038 25.0427L72.6984 25.1294C72.7735 24.5548 72.8109 23.9707 72.8109 23.3827C72.8109 20.1161 71.6369 16.7094 69.0912 14.24C68.9068 14.0614 68.6421 14.0054 68.4016 14.0907C68.1609 14.1787 67.9937 14.3907 67.9645 14.6441C67.8912 15.2854 67.7328 15.8387 67.3828 16.304C66.7973 17.084 65.9921 17.6427 65.0625 18.1881L64.9563 18.2667C64.1188 19.0187 63.2964 19.6481 62.7896 20.0334C61.6104 20.9254 60.6427 21.8361 59.9328 22.8467L60.4792 23.2281L61.1172 23.4214C61.6188 21.7561 61.9021 20.0534 62.0984 18.384C62.1459 17.9627 62.1713 17.5587 62.1713 17.1641C62.1713 16.1814 62.0115 15.2601 61.6907 14.2974L61.6495 14.2027C60.7776 12.5241 59.5729 10.8614 57.8495 9.75338C57.6531 9.62671 57.4057 9.61337 57.1973 9.71471C56.9896 9.81471 56.8479 10.0201 56.8255 10.2494C56.8099 10.4921 56.6057 10.9067 56.2041 11.356C55.6125 12.0334 54.6516 12.7721 53.7099 13.4241C52.7645 14.0814 51.8427 14.6494 51.2609 15.076H51.2593C49.8328 16.128 48.3245 17.3054 47.2713 18.7921V18.7934C46.7375 19.5561 45.9864 20.9014 45.5787 22.34L46.2203 22.52L46.664 22.0227C46.2713 21.6734 45.8568 21.3214 45.3927 20.968V20.9694C44.6213 20.3814 43.224 19.3001 41.9803 18.0547C40.7307 16.8187 39.6781 15.3827 39.5213 14.32C39.4839 14.088 39.3265 13.8934 39.1084 13.8081C38.8917 13.7214 38.6421 13.7561 38.4584 13.8988L38.3385 13.9907L38.2891 14.0334C35.2245 16.9134 33.8099 20.9547 33.8099 24.8227C33.8099 25.488 33.8511 26.1481 33.9344 26.7988L34.5948 26.7134L34.6803 26.0521C33.4088 25.8894 32.0984 25.7854 30.8375 25.7854C30.2484 25.7854 29.6703 25.8067 29.1104 25.8587C27.4552 26.008 22.2203 26.4934 17.9151 26.4907C15.9255 26.4947 14.1235 26.3814 13.0484 26.1161C12.8536 26.0694 12.6489 26.1108 12.4907 26.2321C12.3303 26.3508 12.2328 26.5361 12.2245 26.7361L12.2224 26.8254C12.2292 27.4774 12.4907 28.0947 12.8505 28.7281C13.3948 29.6734 14.2052 30.6427 15.026 31.476C15.8536 32.308 16.6677 32.9881 17.3079 33.3547C18.5344 34.0467 19.3516 34.4334 20.1693 34.7827C20.9864 35.1334 21.7917 35.4481 23.0599 36.0267H23.0579C23.3584 36.1627 23.836 36.3254 24.4693 36.5174C25.0973 36.7094 25.8599 36.9187 26.6604 37.1161L26.8188 36.4707L26.4912 35.8907C26.0016 36.1667 25.536 36.4427 25.1088 36.7054H25.1109C22.9521 38.0307 21.5224 39.8307 20.2307 41.6187C18.9369 43.4134 17.7697 45.2 16.1781 46.6214C16.0651 46.724 15.9615 46.8414 15.864 46.992C15.7735 47.144 15.6729 47.3214 15.6661 47.6134C15.6593 47.8107 15.7516 48.0801 15.9355 48.2494C16.1183 48.4187 16.3213 48.4854 16.5088 48.5161C18.35 48.8161 20.2631 48.9547 22.2031 48.9547C28.0661 48.952 34.1735 47.6947 39.2464 45.76H39.2448C40.6984 45.2067 42.212 44.5694 43.7203 43.8481L43.4339 43.2481L42.9271 42.8147C40.7989 45.3107 39.2156 48.1467 39.2088 51.1454C39.2088 52.0214 39.3489 52.9094 39.6511 53.7867C39.7021 53.936 39.8041 54.0627 39.9427 54.1427L40.2276 54.3121C40.3421 54.3787 40.4751 54.4107 40.6084 54.4027C46.5839 54.0121 53.0047 51.9947 57.1688 48.0121H57.1703C58.9417 46.3041 61.0812 43.9001 62.426 41.2721L61.8317 40.968L61.5453 41.5707C66.0828 43.7254 71.7323 44.4001 76.7203 44.4027C77.626 44.4027 78.512 44.3787 79.3636 44.3387C82.5885 44.1827 86.1735 43.6987 89.3385 42.5307C92.4973 41.3654 95.2755 39.4947 96.712 36.5267L96.7104 36.5294C96.7803 36.3854 96.8265 36.2227 96.8265 36.0454C96.8281 35.828 96.7479 35.576 96.562 35.392C96.3776 35.204 96.1145 35.1187 95.8896 35.1214C95.724 35.1214 95.5703 35.16 95.4255 35.2174L95.4271 35.2161L95.6729 35.8361L95.9203 36.4547L95.9271 36.4507L95.8896 36.2774V36.4547L95.9271 36.4507L95.8896 36.2774V36.4547V36.0601L95.6183 36.3334L95.8896 36.4547V36.0601L95.6183 36.3334L95.9047 36.0454H95.4921L95.6183 36.3334L95.9047 36.0454H95.4921H95.7208L95.5125 35.9454L95.4921 36.0454H95.7208L95.5125 35.9454L95.5109 35.9467C94.2875 38.4854 91.8541 40.1801 88.8781 41.2801C85.9088 42.3774 82.4364 42.8574 79.2984 43.0067H79.3005C78.4677 43.0467 77.6041 43.0694 76.7203 43.0694C71.8552 43.0721 66.3609 42.3894 62.1172 40.3667C61.7927 40.2121 61.4005 40.3454 61.238 40.6667C60.0093 43.0774 57.9516 45.412 56.2453 47.052V47.0494C52.4349 50.7187 46.2667 52.7081 40.5229 53.0721L40.5656 53.7374L40.9031 53.1614L40.6183 52.9947L40.2807 53.5694L40.912 53.3534C40.6579 52.616 40.5432 51.8827 40.5417 51.1454C40.5349 48.6427 41.9136 46.0481 43.9407 43.6801C44.1453 43.4427 44.1541 43.0907 43.9631 42.8414C43.7719 42.5934 43.4307 42.5107 43.1473 42.6454C41.6745 43.3481 40.1932 43.9734 38.7719 44.5147H38.7703C33.8511 46.3934 27.8751 47.6214 22.2031 47.62C20.326 47.62 18.4833 47.4867 16.7224 47.2001H16.7203L16.6265 47.5414L16.8896 47.3174L16.7203 47.2001L16.6265 47.5414L16.8896 47.3174L16.5412 47.6134H16.9984L16.8896 47.3174L16.5412 47.6134H16.9984H16.7104L16.9833 47.7147L16.9984 47.6134H16.7104L16.9833 47.7147L16.9849 47.7134L17.0688 47.6147H17.0672C18.8281 46.0361 20.0427 44.1521 21.3104 42.4001C22.5803 40.6401 23.8907 39.0174 25.8088 37.8427V37.84C26.2235 37.5854 26.674 37.3187 27.1484 37.0494C27.3855 36.9161 27.5167 36.6507 27.4807 36.3801C27.4432 36.1081 27.2453 35.8881 26.9792 35.8241C26.2031 35.6307 25.4588 35.4241 24.8568 35.2414C24.2579 35.0601 23.7833 34.8934 23.614 34.8147C22.3177 34.2227 21.4828 33.8974 20.6964 33.5574C19.9084 33.2187 19.1573 32.8667 17.9645 32.192C17.3688 31.864 16.1812 30.8401 15.2255 29.7307C14.7427 29.1734 14.3079 28.5907 14.0057 28.0641C13.7005 27.5427 13.5484 27.0694 13.5552 26.8254V26.7934L12.8896 26.7641L12.7312 27.412C14.0281 27.7254 15.8724 27.8227 17.9151 27.8254C22.3104 27.824 27.5697 27.3361 29.2317 27.1854C29.7437 27.1401 30.2828 27.1174 30.8375 27.1174C32.0251 27.1174 33.2828 27.2161 34.5115 27.3747C34.7161 27.4001 34.9208 27.3307 35.0677 27.1854C35.2125 27.0387 35.2823 26.8348 35.2568 26.6294C35.1817 26.0361 35.1427 25.432 35.1427 24.8227C35.1427 21.272 36.4479 17.588 39.2021 15.004L38.7448 14.5174L39.1527 15.0467L39.2703 14.956L38.864 14.4268L38.2057 14.5347C38.4921 16.1574 39.7224 17.6641 41.0364 18.9974C42.3573 20.3187 43.8011 21.4308 44.5839 22.0294H44.586C45.0125 22.3534 45.4016 22.6841 45.7787 23.0187C45.9489 23.1721 46.188 23.2254 46.4084 23.1601C46.6281 23.0947 46.8005 22.9214 46.862 22.7014C47.2047 21.476 47.9131 20.1948 48.362 19.5601V19.5614C49.2489 18.2974 50.6469 17.18 52.0495 16.1507H52.0479C52.7235 15.6547 54.1599 14.7907 55.45 13.8094C56.0984 13.316 56.7145 12.7934 57.2063 12.2361C57.6891 11.6787 58.076 11.0854 58.1531 10.376L57.4896 10.3134L57.1292 10.8747C58.5729 11.7974 59.6615 13.2614 60.4672 14.8161L61.0573 14.5094L60.426 14.7214C60.7079 15.5707 60.8369 16.3241 60.8369 17.1641C60.8369 17.5027 60.8167 17.8534 60.774 18.2307C60.5828 19.8547 60.3099 21.4801 59.8407 23.0361C59.7453 23.3494 59.8917 23.6841 60.1869 23.8294C60.4823 23.9721 60.8355 23.8814 61.0235 23.612C61.6203 22.7627 62.4823 21.9361 63.5948 21.0961C64.1084 20.7054 64.9631 20.0521 65.8473 19.2601L65.4016 18.7628L65.7396 19.3361C66.7104 18.7641 67.6901 18.1134 68.4495 17.1054C68.9937 16.3787 69.2036 15.5601 69.2891 14.7934L68.6265 14.7187L68.1625 15.1974C70.4099 17.3721 71.4781 20.4281 71.4781 23.3827C71.4781 23.9134 71.4437 24.4401 71.376 24.9547C71.3484 25.1614 71.4188 25.3667 71.5651 25.5134C71.7104 25.6601 71.9151 25.7307 72.1197 25.7054C73.1401 25.5761 74.1864 25.4961 75.1745 25.4974C75.6693 25.4961 76.1484 25.5161 76.6041 25.5601C77.7317 25.6614 79.9041 26.1054 81.9297 26.1067C82.6755 26.1067 83.4093 26.048 84.088 25.876C84.7656 25.7027 85.4021 25.4134 85.8989 24.9174L85.4281 24.4467L84.7625 24.4721L84.7677 24.7441C84.7656 26.1894 84.312 27.4654 83.5063 28.604C82.7011 29.74 81.5355 30.7294 80.1349 31.5307L80.4656 32.1094L80.1604 31.5161C80.0615 31.5681 79.9197 31.6227 79.7473 31.6974C79.4964 31.8081 79.3375 32.0627 79.3479 32.3361C79.3599 32.6094 79.5391 32.8494 79.7969 32.9387C80.036 33.0201 80.2339 33.0747 80.4093 33.1414H80.4079C82.0235 33.7547 84.0287 34.7174 86.1615 35.5321C88.2948 36.3441 90.5625 37.0174 92.7672 37.0214C93.8453 37.0214 94.9099 36.8561 95.9188 36.4547H95.9203L95.6729 35.8361Z" fill="#1A693A"/>
<path d="M40.8156 53.0521C40.6287 52.4161 40.5432 51.7815 40.5417 51.1455C40.5349 48.6428 41.9136 46.0482 43.9407 43.6802C44.1453 43.4428 44.1541 43.0908 43.9631 42.8415C43.8333 42.6735 43.6355 42.5815 43.4328 42.5815C43.3364 42.5815 43.2385 42.6028 43.1473 42.6455C41.6745 43.3482 40.1932 43.9735 38.7719 44.5148H38.7703C33.8547 46.3908 27.8833 47.6201 22.2151 47.6201C22.2109 47.6201 22.2073 47.6201 22.2031 47.6201C20.5672 47.6201 18.9568 47.5188 17.4036 47.3028C18.9864 45.7921 20.1255 44.0388 21.3104 42.4001C22.5803 40.6401 23.8907 39.0174 25.8088 37.8428V37.8401C26.2235 37.5854 26.674 37.3188 27.1484 37.0495C27.3855 36.9162 27.5167 36.6508 27.4807 36.3802C27.4432 36.1082 27.2453 35.8882 26.9792 35.8242C26.2031 35.6308 25.4588 35.4241 24.8568 35.2415C24.2579 35.0601 23.7833 34.8935 23.614 34.8148C22.3177 34.2228 21.4828 33.8975 20.6964 33.5575C19.9084 33.2188 19.1573 32.8668 17.9645 32.1921C17.3688 31.8641 16.1812 30.8401 15.2255 29.7308C14.7427 29.1735 14.3079 28.5908 14.0057 28.0641C13.912 27.9055 13.8328 27.7494 13.7688 27.6041C14.936 27.7668 16.3688 27.8228 17.9151 27.8255C22.3104 27.8241 27.5697 27.3362 29.2317 27.1855C29.7437 27.1402 30.2828 27.1175 30.8375 27.1175C32.0251 27.1175 33.2828 27.2161 34.5115 27.3748C34.5391 27.3788 34.5672 27.3802 34.5948 27.3802C34.7703 27.3802 34.9407 27.3108 35.0677 27.1855C35.2125 27.0388 35.2823 26.8348 35.2568 26.6295C35.1817 26.0362 35.1427 25.4321 35.1427 24.8228C35.1427 21.5628 36.2427 18.1908 38.5536 15.6615C39.076 16.8575 40.0317 17.9788 41.0364 18.9975C42.3573 20.3188 43.8011 21.4308 44.5839 22.0295H44.586C45.0125 22.3535 45.4016 22.6842 45.7787 23.0188C45.9011 23.1295 46.0588 23.1882 46.2197 23.1882C46.2828 23.1882 46.3464 23.1788 46.4084 23.1602C46.6281 23.0948 46.8005 22.9214 46.862 22.7014C47.2047 21.4761 47.9131 20.1948 48.362 19.5602V19.5615C49.2489 18.2975 50.6469 17.1801 52.0495 16.1508H52.0479C52.7235 15.6548 54.1599 14.7908 55.45 13.8095C56.0984 13.3161 56.7145 12.7935 57.2063 12.2361C57.4432 11.9615 57.6573 11.6802 57.8229 11.3802C58.6115 12.0282 59.2792 12.8415 59.8407 13.7255C58.6781 15.1095 57.5683 16.5388 56.5109 18.0095C56.3869 17.7815 56.1136 17.6695 55.8557 17.6695C55.8005 17.6695 55.7464 17.6748 55.6943 17.6841C53.2541 18.1561 51.3688 20.3935 49.8208 22.1775C48.5479 23.6482 47.236 25.3494 46.6812 27.2401C43.8995 25.6121 41.5807 22.9255 39.7224 20.4215C39.5593 20.2042 39.3099 20.0868 39.0697 20.0868C38.788 20.0868 38.5197 20.2482 38.4203 20.5935C37.4751 23.8828 37.9921 26.7241 38.9615 29.8068C37.7312 29.3561 36.4771 29.0322 35.1973 28.8322C33.5021 28.3935 32.0573 28.1242 31.5964 28.1242C31.5079 28.1242 31.4552 28.1348 31.4448 28.1548C30.4307 28.0282 29.4027 27.9734 28.3688 27.9734C25.5703 27.9734 22.7355 28.3748 20.0667 28.8335C19.524 28.9295 19.4031 29.6762 19.7527 30.0268C20.0495 30.3215 20.362 30.5975 20.686 30.8641C23.3328 33.6148 26.8464 35.3695 30.5984 36.2855C29.5645 36.7095 28.5391 37.1802 27.5303 37.7468C27.3021 37.8762 23.1948 41.3828 20.9355 44.1135C20.7645 44.1935 20.6401 44.3495 20.5869 44.5455C20.4407 44.7335 20.3021 44.9215 20.1776 45.1015C19.9317 45.4561 20.1656 46.0708 20.6041 46.1468C21.624 46.3228 22.6453 46.4068 23.6636 46.4068C26.0625 46.4068 28.4421 45.9428 30.7281 45.1308C31.3869 44.9628 32.0355 44.7868 32.6631 44.6268C36.8812 43.5415 42.1145 42.1281 46.0344 39.7721C46.0104 40.4015 43.688 44.9001 43.0599 46.6588C42.5396 47.8188 42.2224 48.9628 42.2531 49.9802C42.2276 50.1695 42.1984 50.3602 42.1797 50.5482C42.1593 50.7722 42.2839 50.9815 42.4645 51.1175C42.4751 51.1441 42.6265 51.1655 42.8855 51.1655C44.2901 51.1655 48.8448 50.5482 50.9932 46.9122C52.1229 44.9948 55.0917 38.8255 52.7713 36.8548C51.5615 35.8255 49.5224 36.0841 48.5276 34.9481C47.7459 34.0548 48.2645 32.4948 48.9541 31.6788C48.9631 31.6681 48.9719 31.6588 48.9807 31.6481C48.9584 31.8415 48.9459 32.0374 48.9453 32.2348C48.9453 32.7588 49.0323 33.2948 49.2391 33.8135V33.8148C49.5255 34.5441 49.9984 35.1122 50.5751 35.4828C51.1473 35.8508 51.8109 36.0215 52.4812 36.0215C52.4849 36.0215 52.488 36.0215 52.4912 36.0215C53.0495 36.0215 53.6156 35.9068 54.1584 35.6921V35.6908C55.5765 35.1282 56.4552 34.0361 57.1104 32.9094C57.7677 31.7774 58.2469 30.5761 58.8391 29.6361C59.9021 27.9401 60.974 26.2522 62.0864 24.5988C63.3521 22.7162 64.6609 20.8375 66.1109 19.1135C66.9568 18.5935 67.7869 17.9841 68.4495 17.1055C68.6817 16.7948 68.8531 16.4681 68.9803 16.1361C68.9875 16.1295 68.9953 16.1228 69.0027 16.1162C70.6771 18.1895 71.4781 20.8242 71.4781 23.3828C71.4781 23.9135 71.4437 24.4402 71.376 24.9548C71.3484 25.1615 71.4188 25.3668 71.5651 25.5135C71.6907 25.6402 71.8604 25.7094 72.0364 25.7094C72.064 25.7094 72.0921 25.7081 72.1197 25.7055C73.1297 25.5788 74.1645 25.4975 75.1432 25.4975C75.1536 25.4975 75.164 25.4975 75.1745 25.4975C75.1932 25.4975 75.2125 25.4975 75.2312 25.4975C75.7057 25.4975 76.1661 25.5188 76.6041 25.5602C77.7317 25.6615 79.9041 26.1054 81.9297 26.1068C82.6755 26.1068 83.4093 26.0481 84.088 25.8761C84.2973 25.8214 84.5027 25.7575 84.7011 25.6802C84.5473 26.7482 84.1333 27.7174 83.5063 28.6041C82.7031 29.7374 81.5412 30.7255 80.1448 31.5242C80.0469 31.5735 79.9109 31.6268 79.7473 31.6975C79.4964 31.8081 79.3375 32.0628 79.3479 32.3361C79.3599 32.6095 79.5391 32.8495 79.7969 32.9388C80.036 33.0201 80.2339 33.0748 80.4093 33.1415H80.4079C82.0235 33.7548 84.0287 34.7175 86.1615 35.5322C88.2948 36.3442 90.5625 37.0175 92.7672 37.0215C93.5495 37.0215 94.3251 36.9335 95.0771 36.7335C93.7599 38.8415 91.5355 40.2975 88.8781 41.2802C85.9088 42.3775 82.4364 42.8575 79.2984 43.0068H79.3005C78.4677 43.0468 77.6041 43.0695 76.7203 43.0695C76.7084 43.0695 76.6959 43.0695 76.6839 43.0695C71.8281 43.0695 66.3505 42.3855 62.1172 40.3668C62.0251 40.3241 61.9281 40.3028 61.8317 40.3028C61.5891 40.3028 61.3541 40.4361 61.238 40.6668C60.0093 43.0775 57.9516 45.4121 56.2453 47.0521V47.0495C52.4995 50.6562 46.4751 52.6401 40.8156 53.0521ZM73.7765 26.2882C69.0573 26.2882 64.3792 28.0041 60.3459 30.6148C59.8683 30.9228 59.8729 31.7895 60.5161 31.9162C62.1459 32.2308 63.7177 32.6788 65.2672 33.1948C63.4088 33.5375 61.612 34.0335 59.9448 35.1335C59.4328 35.4708 59.5011 36.2535 60.1156 36.4361C66.1151 38.2108 71.3281 41.3215 77.7355 41.3948C78.6292 41.4055 79.5953 41.4321 80.5896 41.4321C83.8552 41.4321 87.4251 41.1362 89.7364 38.9655C90.064 38.6562 89.9921 38.0588 89.5932 37.8481C84.8188 35.3015 79.7593 33.3668 74.4219 32.6855C77 31.8682 79.336 30.3828 80.6057 28.4734C80.8803 28.0628 80.5869 27.5801 80.1807 27.4281C78.0751 26.6428 75.9219 26.2882 73.7765 26.2882Z" fill="#299D42"/>
<path d="M40.5656 53.7374L40.2807 53.5694C39.0588 50.0134 40.7464 46.3934 43.4339 43.2481C41.9427 43.9574 40.4459 44.5894 39.0093 45.1374C34.012 47.0454 27.9697 48.2867 22.2011 48.2867C20.2932 48.2867 18.4151 48.1507 16.6145 47.8587C16.1079 47.7761 16.3948 47.3227 16.6235 47.1187C19.976 44.1187 21.3844 39.7761 25.4588 37.2734C25.8803 37.0147 26.3375 36.7414 26.8188 36.4707C25.2421 36.0814 23.8052 35.6361 23.336 35.4214C20.7751 34.2494 20.0547 34.1414 17.6369 32.7734C16.1781 31.9494 12.8131 28.5428 12.8896 26.7641C14.076 27.0548 15.8984 27.1587 17.9136 27.1587C22.2651 27.1587 27.5125 26.6721 29.1719 26.5214C29.7079 26.4734 30.2661 26.4521 30.838 26.4521C32.062 26.4521 33.3459 26.5521 34.5948 26.7134C34.0557 22.4734 35.3369 17.7201 38.7448 14.5174L38.864 14.4268C39.3063 17.1135 43.4339 20.3121 44.9885 21.4988C45.4339 21.8388 45.8364 22.1787 46.2203 22.5201C46.5959 21.1894 47.3245 19.8761 47.8177 19.1774C48.7869 17.8028 50.2407 16.6548 51.6536 15.6134C53.1036 14.5521 57.3084 12.2174 57.4896 10.3134C58.636 11.0494 59.5536 12.0721 60.2907 13.1948C60.1401 13.3708 59.9896 13.5481 59.8407 13.7254C59.2792 12.8414 58.6115 12.0281 57.8229 11.3801C57.6573 11.6801 57.4432 11.9614 57.2063 12.2361C56.7145 12.7934 56.0984 13.3161 55.45 13.8094C54.1599 14.7907 52.7235 15.6547 52.0479 16.1507H52.0495C50.6469 17.1801 49.2489 18.2974 48.362 19.5614V19.5601C47.9131 20.1948 47.2047 21.4761 46.862 22.7014C46.8005 22.9214 46.6281 23.0948 46.4084 23.1601C46.3464 23.1788 46.2828 23.1881 46.2197 23.1881C46.0588 23.1881 45.9011 23.1294 45.7787 23.0188C45.4016 22.6841 45.0125 22.3535 44.586 22.0295H44.5839C43.8011 21.4308 42.3573 20.3188 41.0364 18.9974C40.0317 17.9788 39.076 16.8574 38.5536 15.6614C36.2427 18.1908 35.1427 21.5627 35.1427 24.8227C35.1427 25.4321 35.1817 26.0361 35.2568 26.6295C35.2823 26.8348 35.2125 27.0388 35.0677 27.1854C34.9407 27.3108 34.7703 27.3801 34.5948 27.3801C34.5672 27.3801 34.5391 27.3788 34.5115 27.3748C33.2828 27.2161 32.0251 27.1174 30.8375 27.1174C30.2828 27.1174 29.7437 27.1401 29.2317 27.1854C27.5697 27.3361 22.3104 27.8241 17.9151 27.8254C16.3688 27.8227 14.936 27.7667 13.7688 27.6041C13.8328 27.7494 13.912 27.9054 14.0057 28.0641C14.3079 28.5908 14.7427 29.1734 15.2255 29.7308C16.1812 30.8401 17.3688 31.8641 17.9645 32.1921C19.1573 32.8667 19.9084 33.2188 20.6964 33.5574C21.4828 33.8974 22.3177 34.2227 23.614 34.8147C23.7833 34.8934 24.2579 35.0601 24.8568 35.2414C25.4588 35.4241 26.2031 35.6308 26.9792 35.8241C27.2453 35.8881 27.4432 36.1081 27.4807 36.3801C27.5167 36.6508 27.3855 36.9161 27.1484 37.0494C26.674 37.3188 26.2235 37.5854 25.8088 37.8401V37.8427C23.8907 39.0174 22.5803 40.6401 21.3104 42.4001C20.1255 44.0388 18.9864 45.7921 17.4036 47.3028C18.9568 47.5188 20.5672 47.6201 22.2031 47.6201C22.2073 47.6201 22.2109 47.6201 22.2151 47.6201C27.8833 47.6201 33.8547 46.3908 38.7703 44.5148H38.7719C40.1932 43.9734 41.6745 43.3481 43.1473 42.6454C43.2385 42.6028 43.3364 42.5814 43.4328 42.5814C43.6355 42.5814 43.8333 42.6734 43.9631 42.8414C44.1541 43.0908 44.1453 43.4428 43.9407 43.6801C41.9136 46.0481 40.5349 48.6428 40.5417 51.1454C40.5432 51.7814 40.6287 52.4161 40.8156 53.0521C46.4751 52.6401 52.4995 50.6561 56.2453 47.0494V47.0521C57.9516 45.4121 60.0093 43.0774 61.238 40.6668C61.3541 40.4361 61.5891 40.3028 61.8317 40.3028C61.9281 40.3028 62.0251 40.3241 62.1172 40.3668C66.3505 42.3854 71.8281 43.0694 76.6839 43.0694C76.6959 43.0694 76.7084 43.0694 76.7203 43.0694C77.6041 43.0694 78.4677 43.0468 79.3005 43.0068H79.2984C82.4364 42.8574 85.9088 42.3774 88.8781 41.2801C91.5355 40.2974 93.7599 38.8414 95.0771 36.7334C94.3251 36.9334 93.5495 37.0214 92.7672 37.0214C90.5625 37.0174 88.2948 36.3441 86.1615 35.5321C84.0287 34.7175 82.0235 33.7548 80.4079 33.1414H80.4093C80.2339 33.0748 80.036 33.0201 79.7969 32.9388C79.5391 32.8494 79.3599 32.6094 79.3479 32.3361C79.3375 32.0628 79.4964 31.8081 79.7473 31.6974C79.9109 31.6268 80.0469 31.5734 80.1448 31.5241C81.5412 30.7254 82.7031 29.7374 83.5063 28.6041C84.1333 27.7174 84.5473 26.7481 84.7011 25.6801C84.5027 25.7574 84.2973 25.8214 84.088 25.8761C83.4093 26.0481 82.6755 26.1067 81.9297 26.1067C79.9041 26.1054 77.7317 25.6615 76.6041 25.5601C76.1661 25.5188 75.7057 25.4974 75.2312 25.4974C75.2125 25.4974 75.1932 25.4974 75.1745 25.4974C75.164 25.4974 75.1536 25.4974 75.1432 25.4974C74.1645 25.4974 73.1297 25.5788 72.1197 25.7054C72.0921 25.7081 72.064 25.7094 72.0364 25.7094C71.8604 25.7094 71.6907 25.6401 71.5651 25.5134C71.4188 25.3668 71.3484 25.1614 71.376 24.9548C71.4437 24.4401 71.4781 23.9134 71.4781 23.3828C71.4781 20.8241 70.6771 18.1894 69.0027 16.1161C69.1708 15.9694 69.3412 15.8268 69.5136 15.6881C71.6713 18.3534 72.4541 21.8667 72.038 25.0427C73.0803 24.9121 74.1505 24.8308 75.1735 24.8308C75.686 24.8308 76.1864 24.8508 76.6656 24.8961C77.8604 25.0081 79.9927 25.4414 81.9303 25.4414C83.3489 25.4414 84.664 25.2094 85.4281 24.4468C85.5593 27.7668 83.4912 30.3801 80.4656 32.1094C80.3208 32.1841 80.1651 32.2414 80.0151 32.3081C80.2251 32.3814 80.4317 32.4388 80.6448 32.5188C83.9579 33.7788 88.6333 36.3548 92.7667 36.3548C93.7771 36.3548 94.7552 36.2001 95.6729 35.8361C95.7547 35.8028 95.8271 35.7881 95.8901 35.7881C96.1323 35.7881 96.2255 36.0054 96.1115 36.2361C93.4495 41.7441 85.6921 43.3654 79.3307 43.6734C78.4891 43.7134 77.6156 43.7361 76.7197 43.7361C71.7948 43.7361 66.2213 43.0574 61.8317 40.9681C60.5453 43.4881 58.4464 45.8588 56.7079 47.5308C52.7197 51.3574 46.4251 53.3601 40.5656 53.7374ZM66.1109 19.1134C66.9401 18.1281 67.8151 17.1934 68.7547 16.3361C68.8297 16.2694 68.9047 16.2028 68.9803 16.1361C68.8531 16.4681 68.6817 16.7948 68.4495 17.1054C67.7869 17.9841 66.9568 18.5934 66.1109 19.1134Z" fill="#16522A"/>
<path d="M75.6522 0.670734C72.8418 0.892067 72.4136 2.86676 72.4136 2.86676C63.8746 9.10943 57.1006 17.0948 52.0714 26.3494C50.9694 28.3801 48.8995 31.1414 49.8584 33.5694C50.5443 35.3001 52.3074 35.7094 53.9131 35.0707C56.3579 34.0987 57.0047 31.3121 58.2746 29.2828C59.3375 27.5828 60.414 25.8908 61.5334 24.2268C63.5298 21.2601 65.6511 18.2627 68.3063 15.8427C71.3006 13.1161 74.9662 11.7361 79.0052 11.7108C79.1246 11.7094 79.4844 11.7734 79.8615 11.8388C80.3323 11.9188 80.8307 12.0001 80.923 11.9548C85.0459 9.87212 78.4626 0.452067 75.6522 0.670734Z" fill="#63C054"/>
<path d="M75.6521 0.670636L75.5989 0.00663875C74.0412 0.122639 73.036 0.768009 72.4781 1.41068C71.915 2.05468 71.7786 2.65469 71.7614 2.72669L72.4136 2.86666L72.0193 2.32799C63.3969 8.63199 56.5557 16.6973 51.4864 26.0307C51.0526 26.8307 50.4302 27.7987 49.9062 28.8467C49.386 29.8933 48.9489 31.0333 48.9453 32.2346C48.9453 32.7586 49.0322 33.2947 49.239 33.8133V33.8146C49.5254 34.544 49.9984 35.112 50.575 35.4827C51.15 35.852 51.8172 36.0227 52.4912 36.0214C53.0494 36.0214 53.6156 35.9067 54.1584 35.692V35.6907C55.5765 35.128 56.4552 34.036 57.1104 32.9093C57.7677 31.7773 58.2469 30.576 58.839 29.636C59.9021 27.94 60.974 26.252 62.0864 24.5987C64.076 21.64 66.1713 18.6893 68.7546 16.336C71.6333 13.7187 75.1197 12.4067 79.0098 12.3773L79.0562 12.376L79.0068 11.7333V12.3773L79.0562 12.376L79.0068 11.7333V12.3773C79.1021 12.384 79.4693 12.448 79.8188 12.5093C80.186 12.5693 80.524 12.6307 80.8188 12.636L80.9672 12.6253C81.027 12.616 81.0989 12.6093 81.2234 12.5493C81.8036 12.2587 82.2505 11.816 82.5234 11.296C82.8 10.7734 82.9109 10.1907 82.9109 9.59336C82.8937 7.59869 81.7541 5.316 80.3562 3.43333C79.6536 2.496 78.8802 1.66935 78.1093 1.05469C77.3328 0.446686 76.5765 0.0146648 75.7489 -1.87866e-06L75.5973 0.00663875H75.5989L75.6521 0.670636L75.7068 1.33333H75.7489C76.024 1.31866 76.6312 1.56933 77.2781 2.09733C78.2609 2.87466 79.3666 4.18532 80.1958 5.58932C81.0338 6.98932 81.5849 8.49869 81.5781 9.59336C81.5781 10.028 81.4964 10.388 81.3464 10.672C81.1942 10.9533 80.9792 11.176 80.6208 11.3587L80.8666 11.844L80.7969 11.3053L80.6208 11.3587L80.8666 11.844L80.7969 11.3053L80.8188 11.4747V11.3013L80.7969 11.3053L80.8188 11.4747V11.3013C80.7473 11.3066 80.3344 11.2466 79.9745 11.1813C79.788 11.1506 79.6041 11.1187 79.4453 11.0934C79.2781 11.0667 79.1672 11.0466 79.0068 11.0426L78.9557 11.0467L79.0052 11.7107L79.0016 11.0426C74.814 11.0666 70.9697 12.512 67.8573 15.3506C65.1306 17.836 62.9822 20.8787 60.9806 23.8547C59.8541 25.528 58.7745 27.2267 57.7093 28.928C57.0317 30.016 56.5526 31.2253 55.9588 32.236C55.3614 33.2547 54.6942 34.0427 53.665 34.452H53.6672C53.2677 34.6107 52.865 34.688 52.4912 34.688C52.039 34.688 51.6328 34.576 51.2953 34.36C50.9588 34.1414 50.6754 33.8187 50.4781 33.324H50.4797C50.3396 32.972 50.2781 32.612 50.2781 32.2346C50.275 31.3733 50.6161 30.404 51.0989 29.4413C51.5802 28.4773 52.1874 27.532 52.6584 26.6667C57.6426 17.492 64.3505 9.588 72.8073 3.40534C72.9369 3.30934 73.0306 3.16667 73.065 3.00801L72.9234 2.97734L73.0636 3.01465L73.065 3.00801L72.9234 2.97734L73.0636 3.01465C73.0718 2.97731 73.1844 2.59335 73.5494 2.21601C73.9182 1.83868 74.5292 1.43333 75.7046 1.336L75.7068 1.33333L75.6521 0.670636Z" fill="#1A693A"/>
<path d="M52.4912 34.6881C52.039 34.6881 51.6328 34.5761 51.2953 34.3601C50.9588 34.1414 50.6754 33.8188 50.4781 33.3241H50.4797C50.3396 32.9721 50.2781 32.6121 50.2781 32.2347C50.277 31.9147 50.3234 31.5788 50.4073 31.2334C50.4593 31.2708 50.5136 31.3067 50.5697 31.3427C50.8136 31.4934 51.062 31.5601 51.312 31.5601C52.9202 31.5588 54.5797 28.8094 55.1926 27.8761C57.114 24.9481 58.6614 21.8654 60.6718 18.9787C63.7942 14.4947 68.0822 8.47876 74.0989 8.26676C74.4901 8.25342 74.8057 7.95341 74.8109 7.55608C74.836 5.71208 74.1541 4.19478 73.0917 2.92678C73.1442 2.78545 73.276 2.49877 73.5494 2.21611C73.9182 1.83877 74.5292 1.43343 75.7046 1.33609L75.7068 1.33342H75.7489C75.7573 1.33342 75.765 1.33342 75.774 1.33342C76.0588 1.33342 76.65 1.58542 77.2781 2.09742C78.2609 2.87476 79.3666 4.18541 80.1958 5.58941C81.0338 6.98941 81.5849 8.49878 81.5781 9.59345C81.5781 10.0281 81.4964 10.3881 81.3464 10.6721C81.2114 10.9214 81.026 11.1268 80.7354 11.2961C80.5802 11.2815 80.2604 11.2334 79.9745 11.1814C79.788 11.1507 79.6041 11.1188 79.4453 11.0935C79.2781 11.0668 79.1672 11.0467 79.0068 11.0427L79.0016 11.0441V11.0427C74.814 11.0667 70.9697 12.5121 67.8573 15.3507C65.1306 17.8361 62.9822 20.8788 60.9806 23.8548C59.8541 25.5281 58.7745 27.2268 57.7093 28.9281C57.0317 30.0161 56.5526 31.2254 55.9588 32.2361C55.3614 33.2548 54.6942 34.0428 53.665 34.4521H53.6672C53.2677 34.6108 52.865 34.6881 52.4912 34.6881Z" fill="#299D42"/>
<path d="M52.4902 35.3547C51.3656 35.3547 50.3432 34.7921 49.8584 33.5694C49.4948 32.6441 49.5698 31.6707 49.862 30.7094C50.014 30.9027 50.1932 31.0787 50.4074 31.2334C50.3235 31.5787 50.2771 31.9147 50.2782 32.2347C50.2782 32.612 50.3396 32.9721 50.4798 33.3241H50.4782C50.6755 33.8187 50.9588 34.1414 51.2954 34.3601C51.6328 34.5761 52.0391 34.6881 52.4912 34.6881C52.8651 34.6881 53.2678 34.6107 53.6672 34.4521H53.6651C54.6943 34.0427 55.3615 33.2547 55.9588 32.2361C56.5527 31.2254 57.0318 30.016 57.7094 28.928C58.7746 27.2267 59.8542 25.5281 60.9807 23.8547C62.9823 20.8787 65.1307 17.836 67.8574 15.3507C70.9698 12.512 74.814 11.0667 79.0016 11.0427V11.0441L79.0068 11.0427C79.1672 11.0467 79.2782 11.0667 79.4454 11.0934C79.6042 11.1187 79.788 11.1507 79.9746 11.1814C80.2604 11.2334 80.5803 11.2814 80.7355 11.2961C81.026 11.1267 81.2115 10.9214 81.3464 10.6721C81.4964 10.3881 81.5782 10.0281 81.5782 9.59341C81.585 8.49874 81.0339 6.98937 80.1959 5.58937C79.3667 4.18537 78.261 2.87471 77.2782 2.09738C76.65 1.58538 76.0588 1.33338 75.774 1.33338C75.7651 1.33338 75.7574 1.33338 75.749 1.33338H75.7068L75.7047 1.33605C74.5292 1.43339 73.9183 1.83873 73.5495 2.21607C73.276 2.49873 73.1443 2.78541 73.0918 2.92674C72.937 2.74274 72.7746 2.56274 72.6042 2.38807C72.9271 1.78941 73.736 0.822689 75.6522 0.670689C75.6844 0.668022 75.7167 0.666718 75.75 0.666718C78.612 0.666718 84.9984 9.89474 80.923 11.9547C80.9047 11.9641 80.8698 11.968 80.8224 11.968C80.6323 11.968 80.238 11.9027 79.8615 11.8387C79.4896 11.7747 79.1339 11.7107 79.0099 11.7107C79.0084 11.7107 79.0068 11.7107 79.0052 11.7107C74.9662 11.7361 71.3006 13.116 68.3063 15.8427C65.6511 18.2627 63.5298 21.2601 61.5334 24.2267C60.414 25.8907 59.3375 27.5827 58.2746 29.2827C57.0047 31.3121 56.3579 34.0987 53.9131 35.0707C53.4418 35.2587 52.9574 35.3547 52.4902 35.3547Z" fill="#16522A"/>
<path d="M52.9453 26.8628C56.0797 20.1175 60.5093 14.1148 66.5994 9.73076L66.4973 9.86677C64.9734 11.7521 63.3046 13.4975 61.8609 15.4548C58.9297 19.4335 56.5182 23.4508 52.9453 26.8628Z" fill="#B5DC64"/>
<path d="M21.889 44.4241C22.7338 43.4307 23.6806 42.5227 24.5645 41.5667C25.2265 40.8467 25.7745 40.0574 26.5614 39.4667C27.6994 38.6094 29.9469 37.0881 31.5932 37.0614C30.4688 37.8881 29.3921 38.7721 28.3292 39.6934C26.5338 41.2534 24.3516 43.8787 21.889 44.4241Z" fill="#B5DC64"/>
<path d="M32.4484 29.9054C30.5245 29.5347 28.5817 29.34 26.6354 29.34C25.327 29.34 24.0166 29.428 22.7098 29.6094C24.4969 29.0214 26.5677 28.5827 28.5896 28.5827C29.3978 28.5827 30.1989 28.6534 30.9702 28.812C31.4484 28.9454 31.9208 29.1067 32.3802 29.3307C32.6344 29.4547 32.5948 29.6881 32.4484 29.9054Z" fill="#B5DC64"/>
<path d="M41.2745 25.0654C40.8978 25.0654 40.525 25.0214 40.163 24.8988C40.0806 24.7574 39.9906 24.6187 39.9202 24.4747C39.7806 23.8161 39.9817 23.0334 40.2396 22.4387C40.5417 22.6281 40.7734 22.9374 40.9682 23.2334C41.226 23.6227 41.5536 23.952 41.888 24.2787C42.0926 24.476 42.0297 24.7694 41.8437 25.0361C41.6536 25.0547 41.4636 25.0654 41.2745 25.0654Z" fill="#B5DC64"/>
<path d="M44.6317 47.1281C44.5103 46.9761 44.4765 46.7561 44.5259 46.5347C44.7135 45.6921 45.1161 44.8174 45.565 44.0827C45.9661 43.4187 46.5343 42.86 46.8702 42.1574L47.0478 41.9721C46.915 43.3041 46.8041 44.5307 45.9062 45.6934C45.5057 46.2054 45.0583 46.6587 44.6317 47.1281Z" fill="#B5DC64"/>
<path d="M24.0657 94.1C23.4703 94.1 22.6714 93.6587 21.6454 92.6813C21.5271 92.5693 21.4099 92.456 21.2927 92.34C21.2594 91.9466 21.2058 91.532 21.1318 91.1186C20.7891 89.2106 20.0079 87.304 18.7703 87.304C18.6271 87.304 18.4782 87.3293 18.323 87.3827C17.9386 87.5173 17.6807 87.728 17.5251 87.9946C15.2569 84.9813 13.2137 81.524 11.5479 78.0546C11.9391 77.736 11.9865 76.0146 11.6766 74.292C11.3339 72.3853 10.5531 70.4787 9.31619 70.4787C9.17299 70.4787 9.02353 70.504 8.86779 70.5586C8.76459 70.5946 8.67033 70.636 8.58499 70.6827C7.03126 65.8227 6.55793 61.6306 7.66673 59.536C8.82819 57.336 9.84899 56.6893 10.6479 56.6893C11.7839 56.6893 12.4698 57.996 12.4698 57.996C20.3361 64.8933 28.9137 94.1026 24.0657 94.1Z" fill="#EF7368"/>
<path d="M11.5479 78.0547C10.3448 75.5494 9.33749 73.0374 8.58496 70.6827C8.67029 70.636 8.76456 70.5947 8.86776 70.5587C9.02349 70.504 9.17296 70.4787 9.31616 70.4787C10.5531 70.4787 11.3339 72.3854 11.6766 74.292C11.9864 76.0147 11.9391 77.736 11.5479 78.0547Z" fill="#F3ED9F"/>
<path d="M21.2926 92.34C19.9885 91.0586 18.725 89.5893 17.525 87.9946C17.6806 87.728 17.9385 87.5173 18.3229 87.3826C18.4781 87.3293 18.627 87.304 18.7702 87.304C20.0078 87.304 20.789 89.2106 21.1317 91.1186C21.2057 91.5319 21.2593 91.9466 21.2926 92.34Z" fill="#F3ED9F"/>
</svg>
