<svg width="85" height="134" viewBox="0 0 85 134" fill="none" xmlns="http://www.w3.org/2000/svg">
<path d="M0.666626 125.961C0.666626 125.961 41.1536 147.491 84.8568 116.965L66.7084 116.535C34.763 136.372 0.666626 125.961 0.666626 125.961Z" fill="#427F34"/>
<path d="M63.0182 101.413L38.5827 1.28536L5.50781 110.048C11.9817 112.189 34.2297 117.467 63.0182 101.413Z" fill="#ED5459"/>
<path d="M5.50781 110.048L9.08795 98.268C9.08848 98.2694 9.08901 98.2694 9.08954 98.2694L5.50781 110.048Z" fill="#ED5459"/>
<path d="M23.0229 112.615C23.0114 112.615 23.0015 112.615 22.9901 112.615C14.8983 112.609 8.95515 111.147 5.90515 110.176C5.87701 110.168 5.84888 110.159 5.82128 110.149C5.71301 110.115 5.60875 110.081 5.50781 110.048L9.08954 98.2694C10.6421 99.5854 12.6921 100.385 15.3791 100.385C15.6005 100.385 15.8265 100.38 16.0567 100.369C19.6297 100.199 20.2593 96.0654 23.1619 94.8014C24.0109 94.4307 24.763 94.2707 25.4437 94.2707C28.4327 94.2707 30.0478 97.352 32.4551 99.1974C33.4322 99.9454 34.7895 100.319 36.1645 100.319C38.0854 100.319 40.0406 99.588 41.0401 98.128C43.0614 95.176 40.5385 89.504 45.9245 89.504C45.9854 89.504 46.0483 89.5054 46.1114 89.5067C47.751 89.5427 49.1041 90.196 50.5593 90.196C51.1849 90.196 51.8297 90.076 52.5239 89.7334C53.5614 89.2227 54.4431 87.9547 55.0917 87.0427C56.4926 85.0693 57.3187 82.7214 57.8786 80.3547L63.0182 101.413C62.8406 101.512 62.6614 101.612 62.4843 101.709C62.4702 101.716 62.4583 101.723 62.4447 101.731C62.1833 101.875 61.9254 102.015 61.6655 102.155C46.5677 110.283 33.3317 112.568 23.3265 112.613C23.225 112.615 23.1239 112.615 23.0229 112.615Z" fill="#E82B31"/>
<path d="M65.6698 112.288L63.0183 101.413C34.2298 117.467 11.9818 112.189 5.50789 110.048L1.98962 121.607C8.38496 123.548 32.5932 128.94 65.6698 112.288Z" fill="#F6F3C8"/>
<path d="M59.3287 111.631C54.9927 113.22 51.0255 115.683 46.5839 116.976C42.287 118.224 37.9974 118.705 33.5318 118.608C30.7011 118.547 27.512 118.999 24.2407 119.449C16.6355 120.501 8.59482 121.551 3.64789 116.155L1.98962 121.607C8.38496 123.548 32.5932 128.94 65.6698 112.288L65.0776 109.86C63.1698 110.415 61.2418 110.932 59.3287 111.631Z" fill="#D4E398"/>
<path d="M66.7088 116.535L65.6698 112.288C32.5932 128.94 8.38497 123.548 1.98964 121.607L0.667236 125.961C0.667236 125.961 34.7636 136.372 66.7088 116.535Z" fill="#70BB6F"/>
<path d="M63.088 101.375L63.0183 101.413L65.6698 112.288L65.714 112.265C73.9031 113.421 80.0443 113.129 83.4896 112.751L79.8516 101.523C75.9167 102.163 69.661 102.704 63.088 101.375Z" fill="#DFD5A0"/>
<path d="M76.9535 113.085C73.8526 113.085 70.0734 112.881 65.7139 112.265L65.6697 112.288L65.1306 110.079C65.6469 110.048 66.162 110.035 66.677 110.035C68.065 110.035 69.4535 110.128 70.8587 110.209C71.2286 110.232 71.5973 110.243 71.965 110.243C73.9885 110.243 75.9822 109.924 77.9587 109.463C79.3395 109.14 80.689 108.709 82.0234 108.228L83.4895 112.751C81.8781 112.928 79.6775 113.085 76.9535 113.085Z" fill="#BAC263"/>
<path d="M63.088 101.375C69.6609 102.704 75.9166 102.163 79.8516 101.523L46.939 1.42293e-05L38.5828 1.28533L63.0182 101.413L63.088 101.375Z" fill="#DE3F49"/>
<path d="M71.6255 102.193C71.5839 102.193 71.5421 102.193 71.5005 102.193C69.0855 102.188 66.4667 102 63.7833 101.508C63.7792 101.507 63.7745 101.507 63.7703 101.505C63.6344 101.481 63.4984 101.455 63.3625 101.428C63.2708 101.411 63.1797 101.392 63.088 101.375L63.0183 101.413L58.1921 80.1334C58.3885 80.992 59.3339 82.048 59.6203 83.0027C59.9792 84.188 60.1255 85.4267 60.4688 86.612C61.088 88.748 62.4771 91.1307 65.0177 91.1494C65.0255 91.1494 65.0333 91.1494 65.0412 91.1494C67.0875 91.1494 67.9817 89.3547 68.8131 87.74C69.3901 86.616 70.1771 86.2547 71.0615 86.2547C72.3672 86.2547 73.8849 87.044 75.2495 87.3347L79.8516 101.523C79.7631 101.537 79.6729 101.551 79.5823 101.565C79.5084 101.577 79.4333 101.589 79.3584 101.6C79.1693 101.629 78.976 101.657 78.7781 101.685C76.7969 101.965 74.3656 102.191 71.6755 102.193C71.6588 102.193 71.6421 102.193 71.6255 102.193Z" fill="#C92A2C"/>
<path d="M65.7136 112.265L65.6693 112.288L66.7084 116.535L84.8568 116.965L83.4896 112.751C80.0442 113.131 73.9036 113.421 65.7136 112.265Z" fill="#59A156"/>
<path d="M42.7813 46.856C42.7813 46.856 40.2422 60.9387 44.3985 60.016C48.5547 59.0907 42.7813 46.856 42.7813 46.856Z" fill="#3F4547"/>
<path d="M38.9973 72.9361C38.9973 72.9361 37.2812 82.4614 40.0921 81.8374C42.9011 81.2121 38.9973 72.9361 38.9973 72.9361Z" fill="#3F4547"/>
<path d="M26.8178 56.504C26.8178 56.504 21.7214 69.876 25.9766 69.736C30.2318 69.596 26.8178 56.504 26.8178 56.504Z" fill="#3F4547"/>
<path d="M34.3776 36.452C34.3776 36.452 29.2823 49.8227 33.5364 49.684C37.7917 49.5427 34.3776 36.452 34.3776 36.452Z" fill="#3F4547"/>
</svg>
