<svg width="96" height="96" viewBox="0 0 96 96" fill="none" xmlns="http://www.w3.org/2000/svg">
<path d="M55.5557 36.5481C63.1963 47.1412 78.3025 54.8385 76.5901 56.0736C74.8778 57.3087 55.4378 50.9425 47.7972 40.3494C40.1566 29.7563 40.2699 24.5272 43.4223 22.2534C46.5746 19.9797 47.9151 25.955 55.5557 36.5481Z" fill="#E6AF00"/>
<path fill-rule="evenodd" clip-rule="evenodd" d="M74.4716 56.087C68.8607 55.1238 54.1939 49.2179 47.7972 40.3494C40.1566 29.7563 40.2699 24.5272 43.4223 22.2534C45.5124 20.7459 46.8059 22.8646 49.6672 27.5511C51.1216 29.933 52.9809 32.9784 55.5557 36.5481C60.015 42.7306 67.0172 47.9266 71.7348 51.4273C73.2108 52.5226 74.4631 53.4519 75.344 54.1935C75.4145 54.253 75.4827 54.3112 75.5485 54.3682C76.533 55.2219 76.9654 55.8029 76.5901 56.0736C76.3361 56.2568 75.692 56.2727 74.7542 56.1324C74.6627 56.1188 74.5685 56.1036 74.4716 56.087ZM74.9125 56.5447C74.912 56.5446 74.9061 56.5369 74.8969 56.5218C74.9085 56.5372 74.9131 56.5447 74.9125 56.5447ZM75.9496 54.2183C75.9503 54.2188 75.9398 54.2208 75.9159 54.2227C75.9371 54.2188 75.949 54.2178 75.9496 54.2183ZM78.5469 56.7115C78.3607 57.1561 78.0617 57.4782 77.7601 57.6957C77.1945 58.1036 76.5602 58.1846 76.2244 58.2108C75.8174 58.2426 75.383 58.2211 74.9604 58.1755C74.1078 58.0836 73.0681 57.8674 71.9225 57.5584C69.6183 56.937 66.6844 55.8854 63.584 54.4654C57.4459 51.6543 50.2986 47.2362 46.1752 41.5194C42.2968 36.1424 40.2079 31.8961 39.595 28.5411C39.2835 26.8364 39.3376 25.2781 39.8097 23.9017C40.289 22.5041 41.1562 21.422 42.2523 20.6314C42.8332 20.2124 43.5324 19.8666 44.3464 19.7893C45.191 19.7091 45.9492 19.9377 46.5896 20.3154C47.723 20.9838 48.6477 22.2293 49.4715 23.4686C50.0919 24.402 50.7337 25.4545 51.4582 26.6426C52.8864 28.9849 54.6361 31.8543 57.1778 35.3781C60.8048 40.4068 66.2714 44.8238 70.7836 48.2226C71.5005 48.7626 72.2029 49.2839 72.8703 49.7792C74.2438 50.7985 75.469 51.7078 76.3679 52.4443C77.0176 52.9766 77.6651 53.5506 78.0868 54.1084C78.2808 54.3651 78.6071 54.8458 78.6992 55.4793C78.751 55.8352 78.7324 56.2686 78.5469 56.7115Z" fill="#C0780C"/>
<path d="M39.6225 39.3789C34.7073 48.6415 20.2578 58.1349 19.2058 57.5767C18.1539 57.0184 24.1441 53.9391 30.2349 38.5703C35.1501 29.3078 40.6656 24.2673 42.6022 25.295C44.5389 26.3226 44.5377 30.1164 39.6225 39.3789Z" fill="#8CC900"/>
<path fill-rule="evenodd" clip-rule="evenodd" d="M28.4164 37.7306L28.4682 37.6328C30.9922 32.8764 33.7055 29.1337 36.1045 26.6766C37.2947 25.4576 38.4777 24.4824 39.5859 23.8776C40.5585 23.3468 42.1009 22.7648 43.5398 23.5283C45.6891 24.6689 46.07 27.0866 45.6546 29.5778C45.2279 32.1369 43.8757 35.6307 41.3892 40.3164C38.7342 45.3197 33.6286 50.2169 29.2093 53.7267C26.9744 55.5018 24.8466 56.9758 23.1844 57.9822C22.3598 58.4814 21.6091 58.8904 20.9948 59.163C20.6947 59.2961 20.3639 59.4254 20.0387 59.5065C19.8771 59.5469 19.6568 59.5908 19.4072 59.5988C19.1882 59.6059 18.7409 59.5941 18.2684 59.3433C17.8411 59.1166 17.3068 58.6521 17.1354 57.8662C16.9896 57.198 17.194 56.6552 17.3024 56.4132C17.5105 55.9479 17.8748 55.512 18.0958 55.2482C18.2549 55.0583 18.4282 54.858 18.6177 54.639C19.1102 54.0699 19.7117 53.3746 20.4577 52.4067C22.4732 49.7911 25.4001 45.3415 28.3756 37.8334L28.4164 37.7306ZM21.4898 54.3287C23.6259 51.672 26.9155 46.9462 30.2349 38.5703C35.1501 29.3078 40.6657 24.2673 42.6023 25.295C44.5389 26.3226 44.5378 30.1164 39.6226 39.3789C36.1071 46.0036 27.7146 52.7464 22.8347 55.8454C22.154 56.2777 21.5416 56.6391 21.0204 56.9194C20.0537 57.4391 19.4005 57.6799 19.2059 57.5766C18.8901 57.4091 19.2089 57.0143 19.9745 56.1281C20.0143 56.0821 20.0552 56.0348 20.0974 55.9861C20.1355 55.942 20.1746 55.8967 20.2147 55.8504C20.5699 55.4394 20.9995 54.9386 21.4898 54.3287Z" fill="#628D01"/>
<path d="M58.3215 39.2693C62.8985 52.9144 63.4744 74.126 61.1929 74.8913C58.9113 75.6566 52.6512 54.5316 46.0987 43.6498C39.1255 33.6708 40.4763 25.2226 44.6765 23.8137C48.8767 22.4049 53.7446 25.6242 58.3215 39.2693Z" fill="#8CC900"/>
<path fill-rule="evenodd" clip-rule="evenodd" d="M63.3036 75.5412C63.0798 75.9155 62.63 76.5188 61.8289 76.7875C60.8698 77.1092 60.0542 76.7468 59.6089 76.4495C59.1701 76.1566 58.8258 75.765 58.5698 75.4305C58.0444 74.744 57.5175 73.7949 57.0005 72.7494C55.952 70.6288 54.7222 67.647 53.3955 64.3934C53.269 64.0833 53.1416 63.7704 53.0132 63.4553C50.4153 57.0788 47.4356 49.7648 44.4195 44.7383C40.7872 39.5207 39.2077 34.5452 39.1976 30.523C39.1877 26.6076 40.7452 23.0229 44.0405 21.9176C45.4367 21.4493 46.9411 21.3546 48.4821 21.7912C50.0055 22.2228 51.4389 23.1373 52.7781 24.4883C55.4154 27.1486 57.8962 31.7121 60.2177 38.6333C62.5812 45.6796 63.8883 54.5824 64.3255 61.7892C64.5444 65.3976 64.5496 68.651 64.3433 71.0899C64.2412 72.2972 64.0808 73.3883 63.8358 74.2485C63.7146 74.6739 63.5484 75.1318 63.3036 75.5412ZM46.0987 43.6498C49.2101 48.8169 52.2555 56.2934 54.8404 62.6393C57.6992 69.6578 59.9947 75.2932 61.1929 74.8913C63.4744 74.126 62.8985 52.9144 58.3216 39.2693C53.7446 25.6242 48.8767 22.4049 44.6765 23.8137C40.4763 25.2226 39.1255 33.6708 46.0987 43.6498Z" fill="#628D01"/>
<path fill-rule="evenodd" clip-rule="evenodd" d="M59.9544 73.9263C61.7172 73.2562 59.0478 52.5605 53.9338 39.1075C50.3657 29.7211 47.2106 25.2773 44.5269 23.8675C44.5765 23.8485 44.6264 23.8306 44.6768 23.8137C48.877 22.4049 53.7449 25.6242 58.3218 39.2693C62.8988 52.9144 63.4747 74.126 61.1932 74.8913C60.8602 75.003 60.4424 74.6484 59.9514 73.9274C59.9524 73.927 59.9534 73.9267 59.9544 73.9263Z" fill="#7AAA0D"/>
<path d="M46.2589 44.8781C42.3305 57.5109 28.5561 73.6317 26.1013 72.8683C23.6464 72.105 28.1013 60.3683 31.4762 41.8683C35.4046 29.2356 38.7408 24.2576 43.26 25.6629C47.7793 27.0683 50.1873 32.2454 46.2589 44.8781Z" fill="#FEC200"/>
<path fill-rule="evenodd" clip-rule="evenodd" d="M29.5305 41.3902L29.5665 41.2745C31.5346 34.9455 33.4268 30.2704 35.5187 27.3394C36.5769 25.8569 37.7866 24.675 39.226 24.01C40.7262 23.317 42.2965 23.2688 43.854 23.7531C46.8167 24.6745 49.0531 26.8967 49.88 30.6274C50.6675 34.1802 50.1715 39.0315 48.1687 45.472C46.1039 52.1121 41.5193 59.5178 37.2128 65.1162C35.0493 67.9288 32.9038 70.3532 31.1064 72.0484C30.2151 72.889 29.3548 73.6024 28.5817 74.0923C28.1977 74.3357 27.7703 74.5657 27.3239 74.7152C26.9134 74.8526 26.2401 75.006 25.5074 74.7781C24.2604 74.3904 23.7403 73.3343 23.5477 72.5568C23.3616 71.8055 23.3698 70.951 23.4379 70.1374C23.5767 68.4771 24.0429 66.2258 24.6535 63.5713C24.9395 62.3278 25.2623 60.9747 25.6102 59.5161C26.7736 54.6392 28.2182 48.5837 29.5088 41.5094L29.5305 41.3902ZM26.1013 72.8683C28.5562 73.6317 42.3306 57.5109 46.2589 44.8781C50.1873 32.2454 47.7794 27.0683 43.2601 25.6629C38.7408 24.2576 35.4047 29.2356 31.4763 41.8683C30.1749 49.0017 28.713 55.1294 27.5486 60.0103C25.6932 67.7878 24.593 72.3993 26.1013 72.8683Z" fill="#AD0505"/>
<path fill-rule="evenodd" clip-rule="evenodd" d="M26.0433 71.0263C28.5741 71.4778 40.2319 53.7659 42.5552 40.742C43.9176 33.1045 43.4376 28.2826 41.8679 25.4328C42.3202 25.4375 42.7836 25.5148 43.2601 25.6629C47.7794 27.0683 50.1873 32.2454 46.2589 44.8782C42.3306 57.5109 28.5562 73.6317 26.1013 72.8684C25.5143 72.6858 25.3224 71.8759 25.4163 70.4961C25.5699 70.7999 25.776 70.9786 26.0433 71.0263Z" fill="#DA9308"/>
<path d="M54.8514 45.6183C54.8514 65.7501 46.4529 83.1183 44.8514 83.1183C43.2498 83.1183 34.8514 61.9107 34.8514 45.6183C34.8514 29.3259 39.3285 24.1183 44.8514 24.1183C50.3742 24.1183 54.8514 29.3259 54.8514 45.6183Z" fill="#FA2D11"/>
<path fill-rule="evenodd" clip-rule="evenodd" d="M46.5521 84.4169C46.3544 84.5917 45.7407 85.1183 44.8514 85.1183C44.2643 85.1183 43.8256 84.885 43.5962 84.7368C43.3487 84.5768 43.155 84.3921 43.0167 84.2447C42.7391 83.9489 42.4874 83.5892 42.2666 83.2364C41.8149 82.5149 41.3129 81.5305 40.7904 80.3731C39.7376 78.0413 38.5104 74.8034 37.3423 71.0761C35.0141 63.6468 32.8514 54.0526 32.8514 45.6183C32.8514 37.3522 33.9764 31.5794 36.022 27.8056C37.0602 25.8903 38.3597 24.4462 39.904 23.4874C41.4544 22.5248 43.1444 22.1183 44.8514 22.1183C46.5584 22.1183 48.2483 22.5248 49.7988 23.4874C51.343 24.4462 52.6425 25.8903 53.6807 27.8056C55.7264 31.5794 56.8514 37.3522 56.8514 45.6183C56.8514 55.9473 54.7 65.54 52.3482 72.5536C51.1721 76.0609 49.9334 78.9608 48.8631 81.0143C48.3321 82.0332 47.8168 82.8936 47.345 83.5272C47.1134 83.8382 46.8473 84.1561 46.5521 84.4169ZM44.8514 83.1183C46.4529 83.1183 54.8514 65.7501 54.8514 45.6183C54.8514 29.3259 50.3742 24.1183 44.8514 24.1183C39.3285 24.1183 34.8514 29.3259 34.8514 45.6183C34.8514 61.9107 43.2498 83.1183 44.8514 83.1183Z" fill="#AD0505"/>
<path fill-rule="evenodd" clip-rule="evenodd" d="M44.8515 83.1183C46.4531 83.1183 54.8515 65.7501 54.8515 45.6183C54.8515 29.3259 50.3743 24.1183 44.8515 24.1183C44.2932 24.1183 43.7456 24.1716 43.2122 24.2841C43.6352 24.2695 44.062 24.2903 44.4912 24.3437C49.9718 25.0251 53.7723 30.7453 51.7621 46.9132C50.1786 59.6505 45.3457 70.8519 41.6387 77.247C43.0815 80.8583 44.3287 83.1183 44.8515 83.1183Z" fill="#CC2009"/>
<path d="M39.9823 32.1599C41.7115 32.1162 43.3133 40.0034 43.56 49.7764C43.8067 59.5495 42.6049 67.5074 40.8757 67.5511C39.1465 67.5947 37.5447 59.7075 37.298 49.9345C37.0513 40.1615 38.2531 32.2035 39.9823 32.1599Z" fill="#FF553E"/>
<path fill-rule="evenodd" clip-rule="evenodd" d="M39.6231 41.5281C40.1734 41.5746 40.5818 42.0584 40.5353 42.6088C40.3546 44.7476 40.4966 52.5539 40.8718 56.533C40.9237 57.0829 40.52 57.5706 39.9701 57.6225C39.4203 57.6744 38.9325 57.2707 38.8807 56.7208C38.4989 52.6733 38.3482 44.739 38.5424 42.4403C38.5889 41.89 39.0728 41.4816 39.6231 41.5281Z" fill="white"/>
<path fill-rule="evenodd" clip-rule="evenodd" d="M49.329 13.8467L49.3269 13.8508L49.3183 13.8679L49.2827 13.939C49.2513 14.002 49.2053 14.0952 49.1485 14.2124C49.0345 14.4474 48.878 14.7771 48.7082 15.1545C48.3599 15.9288 47.989 16.8315 47.7961 17.522C47.5487 18.4074 47.3968 19.6496 47.3102 20.7373C47.268 21.2674 47.243 21.7365 47.2286 22.0725C47.2214 22.2402 47.2169 22.3739 47.2142 22.4647C47.2129 22.51 47.212 22.5446 47.2115 22.5672L47.2109 22.592L47.2108 22.5974C47.2108 22.5973 47.2108 22.5974 47.2108 22.5974C47.1951 23.4255 46.5111 24.0851 45.6829 24.0696C44.8546 24.054 44.1958 23.37 44.2113 22.5417L45.711 22.5698C44.2113 22.5417 44.2113 22.5418 44.2113 22.5417L44.2114 22.5374L44.2116 22.5281L44.2123 22.4954C44.213 22.4674 44.214 22.4271 44.2156 22.3758C44.2186 22.2733 44.2236 22.1263 44.2314 21.9442C44.2469 21.5806 44.2739 21.0739 44.3196 20.4992C44.409 19.3773 44.5773 17.8938 44.9067 16.7147C45.1634 15.7959 45.6128 14.7229 45.9723 13.9238C46.1564 13.5144 46.3257 13.158 46.4491 12.9035C46.5109 12.7761 46.5614 12.6737 46.5969 12.6023L46.6385 12.5192L46.65 12.4965L46.6547 12.4873C46.6547 12.4872 46.6548 12.4871 47.9763 13.159L46.6547 12.4873C47.0301 11.7488 47.9332 11.4543 48.6717 11.8298C49.4101 12.2052 49.7043 13.1082 49.329 13.8467Z" fill="#506A05"/>
<path d="M52.8729 52.1503C52.3309 52.886 51.2952 53.043 50.5595 52.501C49.8238 51.959 49.6669 50.9232 50.2088 50.1876C50.7508 49.4519 51.7866 49.2949 52.5223 49.8369C53.2579 50.3789 53.4149 51.4146 52.8729 52.1503Z" fill="#BB0202"/>
<path d="M53.6428 47.3745C53.174 48.0108 52.2781 48.1466 51.6417 47.6778C51.0054 47.209 50.8696 46.3131 51.3384 45.6768C51.8072 45.0404 52.7031 44.9046 53.3395 45.3735C53.9758 45.8423 54.1116 46.7382 53.6428 47.3745Z" fill="#BB0202"/>
<path d="M52.2019 56.6612C51.733 57.2976 50.8372 57.4334 50.2008 56.9646C49.5645 56.4957 49.4287 55.5998 49.8975 54.9635C50.3663 54.3272 51.2622 54.1914 51.8985 54.6602C52.5349 55.129 52.6707 56.0249 52.2019 56.6612Z" fill="#BB0202"/>
<path d="M50.8986 42.3724C50.4298 43.0088 49.5339 43.1446 48.8976 42.6757C48.2613 42.2069 48.1255 41.311 48.5943 40.6747C49.0631 40.0384 49.959 39.9026 50.5953 40.3714C51.2317 40.8402 51.3675 41.7361 50.8986 42.3724Z" fill="#BB0202"/>
<path d="M52.6841 38.2045C52.3578 38.6473 51.7344 38.7419 51.2915 38.4156C50.8487 38.0893 50.7542 37.4658 51.0804 37.023C51.4067 36.5801 52.0302 36.4856 52.473 36.8119C52.9159 37.1382 53.0104 37.7617 52.6841 38.2045Z" fill="#BB0202"/>
<path d="M53.3811 42.9644C53.1382 43.294 52.674 43.3644 52.3443 43.1215C52.0147 42.8786 51.9443 42.4145 52.1872 42.0848C52.4301 41.7551 52.8942 41.6848 53.2239 41.9276C53.5536 42.1705 53.624 42.6347 53.3811 42.9644Z" fill="#BB0202"/>
<path d="M49.899 67.9861C49.5727 68.429 48.9492 68.5235 48.5064 68.1972C48.0635 67.8709 47.969 67.2474 48.2953 66.8046C48.6215 66.3618 49.245 66.2672 49.6879 66.5935C50.1307 66.9198 50.2252 67.5433 49.899 67.9861Z" fill="#BB0202"/>
<path d="M51.7593 61.5125C51.433 61.9553 50.8096 62.0498 50.3667 61.7236C49.9239 61.3973 49.8293 60.7738 50.1556 60.331C50.4819 59.8881 51.1054 59.7936 51.5482 60.1199C51.9911 60.4461 52.0856 61.0696 51.7593 61.5125Z" fill="#BB0202"/>
<path fill-rule="evenodd" clip-rule="evenodd" d="M45.8371 19.5745C43.5456 18.1296 38.0771 17.451 34.5355 26.2948C36.3027 26.6567 38.8026 26.8281 41.0065 26.3028C40.9973 27.9833 41.4185 30.0361 42.4953 32.5195C44.406 31.2455 46.9334 28.9105 47.8411 26.2874C49.2279 27.599 51.4309 28.7468 54.8136 29.4164C54.8822 25.2615 53.2403 17.4711 46.1243 19.548C46.0673 19.6919 46.0146 19.8457 45.9678 20.0079C45.934 19.9783 45.8998 19.9487 45.8652 19.9191C45.858 19.806 45.8486 19.6911 45.8371 19.5745Z" fill="#B6EC1C"/>
<path fill-rule="evenodd" clip-rule="evenodd" d="M35.9623 25.5134C37.4544 25.6951 39.2123 25.7025 40.7747 25.3301C41.0733 25.2589 41.3881 25.3288 41.6284 25.5197C41.8688 25.7106 42.0082 26.0014 42.0065 26.3084C41.9996 27.564 42.2603 29.0997 42.9445 30.956C44.5481 29.6885 46.2351 27.8707 46.8961 25.9604C47.0072 25.6395 47.2735 25.3968 47.6033 25.3161C47.9332 25.2353 48.2815 25.3275 48.5282 25.5609C49.5803 26.5558 51.2345 27.5037 53.7825 28.1581C53.6667 26.3596 53.2349 24.2482 52.3001 22.6503C51.7293 21.6746 51.0023 20.9423 50.0939 20.546C49.2902 20.1954 48.2527 20.0676 46.8963 20.3794C46.7829 20.6629 46.545 20.881 46.2485 20.9677C45.92 21.0638 45.5651 20.9852 45.3079 20.7593C45.2776 20.7327 45.247 20.7061 45.2159 20.6796C45.0667 20.5522 44.9596 20.385 44.9054 20.1997C43.9479 19.7345 42.5236 19.4661 40.994 20.0172C39.4191 20.5846 37.5634 22.0836 35.9623 25.5134ZM46.0372 18.5336C44.6573 17.7845 42.5604 17.3271 40.3162 18.1356C37.865 19.0187 35.4446 21.335 33.6072 25.9231C33.497 26.1982 33.5146 26.508 33.6551 26.769C33.7956 27.0299 34.0446 27.2151 34.3349 27.2745C35.8926 27.5935 38.0109 27.7787 40.0631 27.4947C40.2171 29.0751 40.6923 30.875 41.5779 32.9173C41.6958 33.1892 41.9282 33.3948 42.2124 33.4786C42.4967 33.5625 42.8035 33.5159 43.0501 33.3515C44.7355 32.2277 46.9733 30.2577 48.227 27.8903C49.749 28.9679 51.8329 29.8457 54.6194 30.3973C54.9102 30.4549 55.2114 30.3805 55.442 30.1943C55.6725 30.0081 55.8086 29.7292 55.8135 29.4329C55.8493 27.2639 55.4475 24.0695 54.0263 21.6403C53.3058 20.4086 52.2923 19.323 50.8936 18.7129C49.5312 18.1185 47.9121 18.0228 46.0372 18.5336Z" fill="#6F9602"/>
<path d="M42.0985 21.9755C42.3482 22.4681 41.9141 23.19 41.129 23.5879C40.3438 23.9859 39.505 23.9091 39.2553 23.4164C39.0056 22.9238 39.4397 22.2019 40.2248 21.804C41.0099 21.4061 41.8488 21.4828 42.0985 21.9755Z" fill="#E3FF93"/>
</svg>
