<svg width="1085" height="765" viewBox="0 0 1085 765" fill="none" xmlns="http://www.w3.org/2000/svg">
<rect opacity="0.4" x="482.289" y="218.421" width="50.0934" height="50.0934" rx="10" transform="rotate(-45 482.289 218.421)" fill="white"/>
<rect opacity="0.4" y="701.887" width="29.5386" height="29.5386" rx="4" transform="rotate(-45 0 701.887)" fill="white"/>
<rect opacity="0.4" x="956" y="147.421" width="50.0934" height="50.0934" rx="10" transform="rotate(-45 956 147.421)" fill="white"/>
<rect opacity="0.4" x="650" y="111.887" width="29.5386" height="29.5386" rx="4" transform="rotate(-45 650 111.887)" fill="white"/>
<rect opacity="0.4" x="870" y="648.421" width="50.0934" height="50.0934" rx="10" transform="rotate(-45 870 648.421)" fill="white"/>
<rect opacity="0.4" x="1043" y="334.887" width="29.5386" height="29.5386" rx="4" transform="rotate(-45 1043 334.887)" fill="white"/>
<rect opacity="0.4" x="155" y="616.421" width="50.0934" height="50.0934" rx="10" transform="rotate(-45 155 616.421)" fill="white"/>
<rect opacity="0.4" x="575" y="743.887" width="29.5386" height="29.5386" rx="4" transform="rotate(-45 575 743.887)" fill="white"/>
<rect opacity="0.4" x="130" y="19.4214" width="50.0934" height="50.0934" rx="10" transform="rotate(-45 130 19.4214)" fill="white"/>
<rect opacity="0.4" y="132.887" width="29.5386" height="29.5386" rx="4" transform="rotate(-45 0 132.887)" fill="white"/>
</svg>
