<svg width="96" height="96" viewBox="0 0 96 96" fill="none" xmlns="http://www.w3.org/2000/svg">
<path d="M51.9228 45.7885C40.7659 57.6614 30.1146 78.654 19.0577 68.2639C8.00078 57.8737 28.7117 46.3341 39.8687 34.4612C51.0256 22.5883 59.7802 18.7215 63.1089 21.8494C66.4376 24.9774 63.0798 33.9157 51.9228 45.7885Z" fill="#4CAA1F"/>
<path fill-rule="evenodd" clip-rule="evenodd" d="M27.7806 72.7436C24.3075 73.6253 20.8839 72.7245 17.6881 69.7213C14.4913 66.7174 13.3966 63.368 14.1168 59.8656C14.7912 56.5863 17.0051 53.4648 19.658 50.5678C22.3429 47.6359 25.7222 44.6803 29.04 41.7839L29.1581 41.6808C32.4752 38.7852 35.7348 35.9397 38.4112 33.0916C44.0717 27.0679 49.229 22.9562 53.5086 20.752C55.6445 19.6519 57.6684 18.9712 59.4948 18.8362C61.349 18.6992 63.13 19.1248 64.4785 20.3919C65.8281 21.6602 66.3608 23.4108 66.3341 25.2686C66.3078 27.0972 65.7476 29.1546 64.777 31.3487C62.8322 35.7451 59.0389 41.1363 53.3803 47.1581C50.8282 49.8739 48.293 53.0913 45.7065 56.3739C45.5399 56.5852 45.3732 56.7968 45.2062 57.0086C42.4779 60.4688 39.6835 63.9756 36.8662 66.7898C34.0805 69.5724 31.047 71.9144 27.7806 72.7436ZM44.1516 55.1157C46.722 51.8533 49.3085 48.5706 51.9228 45.7885C63.0798 33.9156 66.4375 24.9774 63.1089 21.8494C59.7802 18.7215 51.0256 22.5883 39.8686 34.4612C37.1239 37.3821 33.8009 40.2828 30.5149 43.1513C20.444 51.9423 10.7209 60.4298 19.0577 68.2639C27.5237 76.2194 35.752 65.7762 44.1516 55.1157Z" fill="#2B710A"/>
<path fill-rule="evenodd" clip-rule="evenodd" d="M42.4825 46.892C44.7949 43.9042 47.1218 40.8977 49.498 38.369C56.2843 31.1473 59.7867 25.0175 60.3639 20.8148C61.4944 20.8526 62.4184 21.2005 63.1089 21.8494C66.4376 24.9773 63.0798 33.9156 51.9229 45.7885C49.3086 48.5705 46.7221 51.8533 44.1516 55.1157C35.7521 65.7762 27.5238 76.2194 19.0577 68.2638C15.0712 64.5177 15.2143 60.6222 17.5503 56.6155C17.9715 57.1641 18.472 57.7135 19.0577 58.2639C27.5238 66.2194 34.9261 56.6552 42.4825 46.892Z" fill="#419C15"/>
<path d="M51.5001 26.5C52.9059 28.7892 44.6965 39.5 36 46.4999C30.6293 50.8228 21 58.5 20.6394 55.2014C19.5099 53.8914 30.6633 44.3097 35.5001 40.5001C46 32.2298 49.4059 24.7892 51.5001 26.5Z" fill="#5FCF2A"/>
<path fill-rule="evenodd" clip-rule="evenodd" d="M31.2071 46.7928C31.5976 47.1834 31.5976 47.8165 31.2071 48.2071C29.6953 49.7189 28.4355 50.6964 26.9005 51.8875C26.3518 52.3133 25.7679 52.7663 25.1248 53.2808C24.6936 53.6258 24.0643 53.5559 23.7192 53.1247C23.3742 52.6934 23.4442 52.0641 23.8754 51.7191C24.5727 51.1613 25.1848 50.6862 25.7459 50.2508C27.2428 49.0891 28.3761 48.2096 29.7929 46.7928C30.1834 46.4023 30.8166 46.4023 31.2071 46.7928Z" fill="#A0EA29"/>
<path d="M65.1039 57.4403C52.1322 67.2981 40.2966 86.7744 29.1966 72.1682C18.0966 57.5619 40.0311 51.3745 53.0028 41.5167C65.9745 31.6588 72.8296 32.0725 76.1713 36.4697C79.5129 40.8669 78.0756 47.5824 65.1039 57.4403Z" fill="#58C923"/>
<path fill-rule="evenodd" clip-rule="evenodd" d="M37.6143 79.4145C33.9509 79.3201 30.6189 77.3452 27.6042 73.3783C24.5895 69.4113 23.5792 65.6722 24.4692 62.1174C25.3272 58.6908 27.8489 55.8957 30.8183 53.5041C33.8098 51.0949 37.5517 48.8677 41.2309 46.6897C41.3203 46.6367 41.4098 46.5838 41.4992 46.5309C45.1424 44.3744 48.7352 42.2478 51.7927 39.9243C58.374 34.9228 63.6509 32.3256 67.8933 31.671C70.0464 31.3387 71.9824 31.4996 73.6801 32.149C75.3846 32.801 76.7308 33.9005 77.7636 35.2596C78.7965 36.6187 79.4953 38.2101 79.667 40.027C79.8381 41.8366 79.4746 43.745 78.5778 45.7305C76.8109 49.6426 72.8954 54.0312 66.3141 59.0327C63.2567 61.3561 60.2456 64.2482 57.1922 67.1808L56.9673 67.3968C53.8835 70.3583 50.7356 73.3671 47.6132 75.6041C44.5138 77.8245 41.1454 79.5056 37.6143 79.4145ZM55.8458 65.7009C58.8686 62.7974 61.9528 59.835 65.104 57.4403C78.0757 47.5824 79.5129 40.8669 76.1713 36.4697C72.8296 32.0725 65.9745 31.6588 53.0028 41.5167C49.8516 43.9114 46.1715 46.0896 42.5645 48.2244C31.3236 54.8775 20.7931 61.1102 29.1966 72.1682C37.6001 83.2261 46.4253 74.7494 55.8458 65.7009Z" fill="#2B710A"/>
<path fill-rule="evenodd" clip-rule="evenodd" d="M53.8458 61.7009C56.8687 58.7974 59.9528 55.8351 63.104 53.4403C73.1374 45.8155 76.27 40.0706 75.628 35.8243C75.8186 36.0284 75.9996 36.2438 76.1713 36.4698C79.513 40.867 78.0757 47.5825 65.104 57.4403C61.9528 59.8351 58.8687 62.7974 55.8458 65.7009C46.4253 74.7495 37.6001 83.2262 29.1966 72.1682C27.8788 70.434 27.0265 68.8186 26.5697 67.3015C26.7657 67.5871 26.9745 67.876 27.1966 68.1682C35.6001 79.2262 44.4253 70.7495 53.8458 61.7009Z" fill="#4CAA1F"/>
<path d="M62.0944 42.2108C63.5001 44.5 45.0001 57.5 45.0001 57.5C45.0001 57.5 29.7691 66.5115 28.6395 65.2015C27.5099 63.8914 34.4576 56.9511 40.0001 54.2702C54.5944 47.2108 60.0001 40.5 62.0944 42.2108Z" fill="#79E645"/>
<path d="M45.7779 48.9583C45.7779 49.6717 45.1996 50.25 44.4862 50.25C43.7729 50.25 43.1946 49.6717 43.1946 48.9583C43.1946 48.245 43.7729 47.6667 44.4862 47.6667C45.1996 47.6667 45.7779 48.245 45.7779 48.9583Z" fill="#47A21D"/>
<path d="M54.389 45.5139C54.389 46.2273 53.8107 46.8056 53.0973 46.8056C52.384 46.8056 51.8057 46.2273 51.8057 45.5139C51.8057 44.8005 52.384 44.2222 53.0973 44.2222C53.8107 44.2222 54.389 44.8005 54.389 45.5139Z" fill="#47A21D"/>
<path d="M59.5557 40.3472C59.5557 41.0606 58.9774 41.6389 58.264 41.6389C57.5506 41.6389 56.9723 41.0606 56.9723 40.3472C56.9723 39.6339 57.5506 39.0556 58.264 39.0556C58.9774 39.0556 59.5557 39.6339 59.5557 40.3472Z" fill="#47A21D"/>
<path d="M38.0279 55.8472C38.0279 56.5606 37.4496 57.1389 36.7362 57.1389C36.0229 57.1389 35.4446 56.5606 35.4446 55.8472C35.4446 55.1339 36.0229 54.5556 36.7362 54.5556C37.4496 54.5556 38.0279 55.1339 38.0279 55.8472Z" fill="#47A21D"/>
<path d="M50.0835 45.9444C50.0835 46.42 49.6979 46.8056 49.2223 46.8056C48.7468 46.8056 48.3612 46.42 48.3612 45.9444C48.3612 45.4689 48.7468 45.0833 49.2223 45.0833C49.6979 45.0833 50.0835 45.4689 50.0835 45.9444Z" fill="#47A21D"/>
<path d="M48.3612 50.25C48.3612 50.7256 47.9757 51.1111 47.5001 51.1111C47.0245 51.1111 46.639 50.7256 46.639 50.25C46.639 49.7744 47.0245 49.3889 47.5001 49.3889C47.9757 49.3889 48.3612 49.7744 48.3612 50.25Z" fill="#47A21D"/>
<path d="M56.1112 41.6389C56.1112 42.1145 55.7257 42.5 55.2501 42.5C54.7745 42.5 54.389 42.1145 54.389 41.6389C54.389 41.1633 54.7745 40.7778 55.2501 40.7778C55.7257 40.7778 56.1112 41.1633 56.1112 41.6389Z" fill="#47A21D"/>
<path d="M63.0001 38.1944C63.0001 38.67 62.6146 39.0556 62.139 39.0556C61.6634 39.0556 61.2779 38.67 61.2779 38.1944C61.2779 37.7189 61.6634 37.3333 62.139 37.3333C62.6146 37.3333 63.0001 37.7189 63.0001 38.1944Z" fill="#47A21D"/>
<path d="M33.7223 57.1389C33.7223 57.6145 33.3368 58 32.8612 58C32.3857 58 32.0001 57.6145 32.0001 57.1389C32.0001 56.6633 32.3857 56.2778 32.8612 56.2778C33.3368 56.2778 33.7223 56.6633 33.7223 57.1389Z" fill="#47A21D"/>
<path d="M39.7501 52.8333C39.7501 53.3089 39.3646 53.6944 38.889 53.6944C38.4134 53.6944 38.0279 53.3089 38.0279 52.8333C38.0279 52.3578 38.4134 51.9722 38.889 51.9722C39.3646 51.9722 39.7501 52.3578 39.7501 52.8333Z" fill="#47A21D"/>
<path d="M44.0557 51.9722C44.0557 52.9234 43.2846 53.6944 42.3335 53.6944C41.3823 53.6944 40.6112 52.9234 40.6112 51.9722C40.6112 51.0211 41.3823 50.25 42.3335 50.25C43.2846 50.25 44.0557 51.0211 44.0557 51.9722Z" fill="#47A21D"/>
<path d="M51.0001 63.5C51.0001 64.3284 50.3285 65 49.5001 65C48.6717 65 48.0001 64.3284 48.0001 63.5C48.0001 62.6715 48.6717 62 49.5001 62C50.3285 62 51.0001 62.6715 51.0001 63.5Z" fill="#79E745"/>
<path d="M45.0001 73.5C45.0001 74.3284 44.3285 75 43.5001 75C42.6717 75 42.0001 74.3284 42.0001 73.5C42.0001 72.6715 42.6717 72 43.5001 72C44.3285 72 45.0001 72.6715 45.0001 73.5Z" fill="#79E745"/>
<path d="M61.0001 58.5C61.0001 59.3284 60.3285 60 59.5001 60C58.6717 60 58.0001 59.3284 58.0001 58.5C58.0001 57.6715 58.6717 57 59.5001 57C60.3285 57 61.0001 57.6715 61.0001 58.5Z" fill="#79E745"/>
<path d="M72.0001 49.5C72.0001 50.3284 71.3285 51 70.5001 51C69.6717 51 69.0001 50.3284 69.0001 49.5C69.0001 48.6715 69.6717 48 70.5001 48C71.3285 48 72.0001 48.6715 72.0001 49.5Z" fill="#79E745"/>
<path d="M54.0001 65C54.0001 65.5522 53.5524 66 53.0001 66C52.4478 66 52.0001 65.5522 52.0001 65C52.0001 64.4477 52.4478 64 53.0001 64C53.5524 64 54.0001 64.4477 54.0001 65Z" fill="#79E745"/>
<path d="M64.0001 56C64.0001 56.5522 63.5524 57 63.0001 57C62.4478 57 62.0001 56.5522 62.0001 56C62.0001 55.4477 62.4478 55 63.0001 55C63.5524 55 64.0001 55.4477 64.0001 56Z" fill="#79E745"/>
<path d="M58.0001 61C58.0001 62.1045 57.1047 63 56.0001 63C54.8956 63 54.0001 62.1045 54.0001 61C54.0001 59.8954 54.8956 59 56.0001 59C57.1047 59 58.0001 59.8954 58.0001 61Z" fill="#79E745"/>
<path d="M67.0001 53C67.0001 54.1045 66.1047 55 65.0001 55C63.8956 55 63.0001 54.1045 63.0001 53C63.0001 51.8954 63.8956 51 65.0001 51C66.1047 51 67.0001 51.8954 67.0001 53Z" fill="#79E745"/>
<path d="M49.0001 69C49.0001 70.1045 48.1047 71 47.0001 71C45.8956 71 45.0001 70.1045 45.0001 69C45.0001 67.8954 45.8956 67 47.0001 67C48.1047 67 49.0001 67.8954 49.0001 69Z" fill="#79E745"/>
<path fill-rule="evenodd" clip-rule="evenodd" d="M46.3602 53.0002C46.6899 53.4433 46.5979 54.0698 46.1548 54.3994C44.9083 55.3267 42.693 56.593 40.5369 57.8255C40.3738 57.9188 40.2111 58.0118 40.0492 58.1044C37.6714 59.465 35.4877 60.7358 34.5054 61.5606C34.0824 61.9157 33.4517 61.8608 33.0965 61.4378C32.7414 61.0148 32.7964 60.3841 33.2194 60.0289C34.3746 59.059 36.7597 57.6824 39.0559 56.3685C39.1982 56.2871 39.3403 56.2058 39.482 56.1248C41.7008 54.856 43.8169 53.6459 44.961 52.7948C45.4041 52.4651 46.0306 52.5571 46.3602 53.0002Z" fill="white"/>
</svg>
