<svg width="96" height="96" viewBox="0 0 96 96" fill="none" xmlns="http://www.w3.org/2000/svg">
<path d="M16.5951 36.003C14.4952 50.1802 23.1308 58.405 35.1628 58.1154C47.1947 57.8258 60.3073 60.2256 63.6947 47.3258C66.5909 36.2969 61.2992 31.7322 46.7591 26.1351C32.2189 20.538 18.6949 21.8258 16.5951 36.003Z" fill="#CA8E34"/>
<path fill-rule="evenodd" clip-rule="evenodd" d="M19.0904 53.8195C22.9562 58.1306 28.7321 60.2708 35.2109 60.1149C36.9981 60.0718 38.747 60.0885 40.522 60.1054C41.7396 60.117 42.9693 60.1287 44.2321 60.1214C47.2367 60.1039 50.267 59.9738 53.0654 59.41C55.8756 58.8439 58.5562 57.8208 60.7872 55.9433C63.0398 54.0477 64.6926 51.4001 65.6291 47.8338C67.1823 41.9189 66.6268 37.2654 63.2796 33.3869C60.1365 29.7449 54.7269 27.0592 47.4775 24.2686C40.034 21.4033 32.5562 20.1738 26.5171 21.7159C23.4588 22.4968 20.745 23.9975 18.6503 26.369C16.5581 28.7377 15.1872 31.8574 14.6166 35.71C13.4988 43.2566 15.2125 49.4948 19.0904 53.8195ZM35.1627 58.1154C23.1308 58.405 14.4952 50.1802 16.595 36.003C18.6948 21.8258 32.2188 20.538 46.759 26.1351C61.2992 31.7322 66.5908 36.2969 63.6947 47.3258C60.8146 58.2935 50.9045 58.2015 40.6055 58.1059C38.7912 58.089 36.9649 58.0721 35.1627 58.1154Z" fill="#855D22"/>
<path d="M36.1948 26.8258C37.477 29.3719 34.5139 32.0847 30.6948 34.008C26.8757 35.9313 22.4457 36.5541 21.1634 34.008C19.8812 31.4619 21.9378 27.8388 25.7569 25.9155C29.576 23.9922 34.9126 24.2797 36.1948 26.8258Z" fill="#DB9F45"/>
<path fill-rule="evenodd" clip-rule="evenodd" d="M16.4994 36.7041C17.7934 40.0908 20.0689 43.093 23.7214 44.3129C33.2702 47.5021 52.835 42.7781 49.9227 30.8855C49.5302 29.2824 48.8773 27.8732 48.0292 26.6308C61.6062 32.0088 66.5051 36.6242 63.6948 47.3258C60.8148 58.2934 50.9046 58.2014 40.6057 58.1058C38.7914 58.089 36.965 58.072 35.1629 58.1154C23.3307 58.4002 14.783 50.4509 16.4994 36.7041Z" fill="#AA7A32"/>
<path d="M79.6862 52.655C77.2408 40.0394 64.2013 32.0084 49.5765 42.7618C34.9518 53.5152 22.4779 49.2139 23.6032 62.1353C24.5926 73.4951 40.544 75.8825 53.878 75.8825C67.212 75.8825 81.6259 63.8916 79.6862 52.655Z" fill="#DD9B38"/>
<path fill-rule="evenodd" clip-rule="evenodd" d="M81.6536 52.2946L81.6497 52.2744C80.3194 45.4119 76.0705 39.6339 69.9659 37.0981C63.796 34.5351 56.146 35.449 48.3918 41.1505C42.8932 45.1936 37.816 46.9726 33.4431 48.5049C32.2231 48.9324 31.0579 49.3407 29.9537 49.7736C27.4982 50.7361 25.1474 51.905 23.556 53.9355C21.901 56.0473 21.3024 58.7677 21.6108 62.3088C22.206 69.1427 27.36 73.0307 33.4523 75.1571C39.5512 77.2858 47.1415 77.8825 53.878 77.8825C61.1029 77.8825 68.494 74.657 73.8273 69.9872C79.119 65.3538 82.7944 58.9032 81.6571 52.3148L81.6536 52.2946ZM79.6862 52.655C81.6259 63.8916 67.212 75.8825 53.878 75.8825C40.544 75.8825 24.5926 73.4951 23.6032 62.1353C22.9215 54.3076 27.2306 52.8004 33.9852 50.4378C38.3805 48.9004 43.8114 47.0009 49.5766 42.7618C64.2013 32.0084 77.2408 40.0394 79.6862 52.655Z" fill="#976923"/>
<path fill-rule="evenodd" clip-rule="evenodd" d="M66.9977 38.2176C71.591 40.4991 74.8657 45.114 75.9445 50.6792C77.7655 61.2283 64.2336 72.4855 51.7154 72.4855C39.8355 72.4855 25.7425 70.4669 23.5424 61.1458C23.5534 61.464 23.5736 61.7937 23.6034 62.1354C24.5928 73.4952 40.5442 75.8826 53.8782 75.8826C67.2122 75.8826 81.6261 63.8917 79.6864 52.6551C78.3031 45.5189 73.53 39.8498 66.9977 38.2176Z" fill="#CA8E34"/>
<path d="M52.2722 51.0371C51.5643 51.6709 50.4765 51.6109 49.8427 50.903C49.2088 50.195 49.2689 49.1073 49.9768 48.4734C50.6847 47.8396 51.7725 47.8996 52.4063 48.6075C53.0402 49.3155 52.9801 50.4032 52.2722 51.0371Z" fill="#996518"/>
<path d="M35.2722 67.0371C34.5643 67.6709 33.4765 67.6109 32.8427 66.903C32.2088 66.195 32.2689 65.1073 32.9768 64.4734C33.6847 63.8396 34.7725 63.8996 35.4063 64.6075C36.0402 65.3155 35.9801 66.4032 35.2722 67.0371Z" fill="#996518"/>
<path d="M44.2722 61.0371C43.5643 61.6709 42.4765 61.6109 41.8427 60.903C41.2088 60.195 41.2689 59.1073 41.9768 58.4734C42.6847 57.8396 43.7725 57.8996 44.4063 58.6075C45.0402 59.3155 44.9801 60.4032 44.2722 61.0371Z" fill="#996518"/>
<path d="M52.2722 67.0371C51.5643 67.6709 50.4765 67.6109 49.8427 66.903C49.2088 66.195 49.2689 65.1073 49.9768 64.4734C50.6847 63.8396 51.7725 63.8996 52.4063 64.6075C53.0402 65.3155 52.9801 66.4032 52.2722 67.0371Z" fill="#996518"/>
<path d="M65.2722 54.0371C64.5643 54.6709 63.4765 54.6109 62.8427 53.903C62.2088 53.195 62.2689 52.1073 62.9768 51.4734C63.6847 50.8396 64.7725 50.8996 65.4063 51.6075C66.0402 52.3155 65.9801 53.4032 65.2722 54.0371Z" fill="#996518"/>
<path d="M65.2722 44.0371C64.5643 44.6709 63.4765 44.6109 62.8427 43.903C62.2088 43.195 62.2689 42.1073 62.9768 41.4734C63.6847 40.8396 64.7725 40.8996 65.4063 41.6075C66.0402 42.3155 65.9801 43.4032 65.2722 44.0371Z" fill="#996518"/>
<path d="M77.2722 55.0371C76.5643 55.6709 75.4765 55.6109 74.8427 54.903C74.2088 54.195 74.2689 53.1073 74.9768 52.4734C75.6847 51.8396 76.7725 51.8996 77.4063 52.6075C78.0402 53.3155 77.9801 54.4032 77.2722 55.0371Z" fill="#996518"/>
<path d="M58.2722 59.0371C57.5643 59.6709 56.4765 59.6109 55.8427 58.903C55.2088 58.195 55.2689 57.1073 55.9768 56.4734C56.6847 55.8396 57.7725 55.8996 58.4063 56.6075C59.0402 57.3155 58.9801 58.4032 58.2722 59.0371Z" fill="#996518"/>
<path d="M71.5774 62.7113C70.8694 63.3451 69.7817 63.2851 69.1479 62.5771C68.514 61.8692 68.574 60.7815 69.282 60.1476C69.9899 59.5138 71.0776 59.5738 71.7115 60.2817C72.3454 60.9897 72.2853 62.0774 71.5774 62.7113Z" fill="#996518"/>
<path d="M60.5774 70.7113C59.8694 71.3451 58.7817 71.2851 58.1479 70.5771C57.514 69.8692 57.574 68.7815 58.282 68.1476C58.9899 67.5138 60.0776 67.5738 60.7115 68.2817C61.3454 68.9897 61.2853 70.0774 60.5774 70.7113Z" fill="#996518"/>
<path d="M70.5774 70.7113C69.8694 71.3451 68.7817 71.2851 68.1479 70.5771C67.514 69.8692 67.574 68.7815 68.282 68.1476C68.9899 67.5138 70.0776 67.5738 70.7115 68.2817C71.3454 68.9897 71.2853 70.0774 70.5774 70.7113Z" fill="#996518"/>
<path d="M53.5774 76.7113C52.8694 77.3451 51.7817 77.2851 51.1479 76.5771C50.514 75.8692 50.574 74.7815 51.282 74.1476C51.9899 73.5138 53.0776 73.5738 53.7115 74.2817C54.3454 74.9897 54.2853 76.0774 53.5774 76.7113Z" fill="#996518"/>
<path d="M42.2722 76.0371C41.5643 76.6709 40.4765 76.6109 39.8427 75.903C39.2088 75.195 39.2689 74.1073 39.9768 73.4734C40.6847 72.8396 41.7725 72.8996 42.4063 73.6075C43.0402 74.3155 42.9801 75.4032 42.2722 76.0371Z" fill="#996518"/>
<path d="M26.2722 58.0371C25.5643 58.6709 24.4765 58.6109 23.8427 57.903C23.2088 57.195 23.2689 56.1073 23.9768 55.4734C24.6847 54.8396 25.7725 54.8996 26.4063 55.6075C27.0402 56.3155 26.9801 57.4032 26.2722 58.0371Z" fill="#996518"/>
<path d="M42.2722 50.0371C41.5643 50.6709 40.4765 50.6109 39.8427 49.903C39.2088 49.195 39.2689 48.1073 39.9768 47.4734C40.6847 46.8396 41.7725 46.8996 42.4063 47.6075C43.0402 48.3155 42.9801 49.4032 42.2722 50.0371Z" fill="#996518"/>
<path d="M77.272 46.0371C76.564 46.6709 75.4763 46.6109 74.8424 45.903C74.2086 45.195 74.2686 44.1073 74.9766 43.4734C75.6845 42.8396 76.7722 42.8996 77.4061 43.6075C78.0399 44.3155 77.9799 45.4032 77.272 46.0371Z" fill="#996518"/>
<path d="M40.9936 54.0431C42.2758 56.5891 40.2192 60.2123 36.4001 62.1356C32.581 64.0589 28.4456 63.5541 27.1634 61.008C25.8812 58.4619 27.9377 54.8388 31.7568 52.9155C35.5759 50.9921 39.7114 51.497 40.9936 54.0431Z" fill="#EEB257"/>
<path fill-rule="evenodd" clip-rule="evenodd" d="M34.0285 55.5321C34.5448 56.5086 34.1718 57.7187 33.1954 58.2351C32.5885 58.556 32.1124 58.9608 31.7393 59.4496C31.0691 60.3276 29.814 60.4961 28.936 59.8258C28.058 59.1556 27.8895 57.9006 28.5597 57.0226C29.3007 56.0518 30.2319 55.2773 31.3256 54.699C32.302 54.1826 33.5122 54.5556 34.0285 55.5321Z" fill="white"/>
</svg>
